%TF.GenerationSoftware,KiCad,Pcbnew,5.1.9-1.fc32*%
%TF.CreationDate,2021-04-18T22:57:20+02:00*%
%TF.ProjectId,energy-meter,656e6572-6779-42d6-9d65-7465722e6b69,rev?*%
%TF.SameCoordinates,Original*%
%TF.FileFunction,Soldermask,Top*%
%TF.FilePolarity,Negative*%
%FSLAX46Y46*%
G04 Gerber Fmt 4.6, Leading zero omitted, Abs format (unit mm)*
G04 Created by KiCad (PCBNEW 5.1.9-1.fc32) date 2021-04-18 22:57:20*
%MOMM*%
%LPD*%
G01*
G04 APERTURE LIST*
%ADD10C,0.150000*%
%ADD11R,1.000000X1.000000*%
%ADD12C,0.100000*%
%ADD13R,0.600000X0.700000*%
%ADD14R,1.700000X1.700000*%
%ADD15O,1.700000X1.700000*%
%ADD16R,1.060000X0.650000*%
%ADD17O,1.600000X1.600000*%
%ADD18R,1.600000X1.600000*%
%ADD19C,3.000000*%
%ADD20C,2.500000*%
%ADD21R,0.700000X0.600000*%
%ADD22C,1.524000*%
%ADD23C,3.200000*%
%ADD24O,6.600000X3.300000*%
%ADD25C,2.200000*%
%ADD26C,2.300000*%
%ADD27C,1.700000*%
G04 APERTURE END LIST*
D10*
X132870000Y-136680000D02*
X128425000Y-141125000D01*
X132870000Y-121440000D02*
X132870000Y-118265000D01*
X132870000Y-118265000D02*
X131600000Y-116995000D01*
X134140000Y-129060000D02*
X132870000Y-130330000D01*
X134140000Y-122710000D02*
X132870000Y-121440000D01*
X132870000Y-136680000D02*
X132870000Y-130330000D01*
X139220000Y-129060000D02*
X134140000Y-129060000D01*
X141125000Y-127155000D02*
X139220000Y-129060000D01*
X141125000Y-124615000D02*
X141125000Y-127155000D01*
X139220000Y-122710000D02*
X141125000Y-124615000D01*
X134140000Y-122710000D02*
X139220000Y-122710000D01*
X128425000Y-141125000D02*
X128425000Y-154460000D01*
X131600000Y-94770000D02*
X131600000Y-116995000D01*
D11*
%TO.C,TP4*%
X146586000Y-120551000D03*
%TD*%
%TO.C,TP3*%
X145951000Y-132489000D03*
%TD*%
%TO.C,TP5*%
X134648000Y-134140000D03*
%TD*%
%TO.C,TP6*%
X134013000Y-117249000D03*
%TD*%
D12*
%TO.C,JP11*%
G36*
X160541000Y-147208398D02*
G01*
X160516466Y-147208398D01*
X160467635Y-147203588D01*
X160419510Y-147194016D01*
X160372555Y-147179772D01*
X160327222Y-147160995D01*
X160283949Y-147137864D01*
X160243150Y-147110604D01*
X160205221Y-147079476D01*
X160170524Y-147044779D01*
X160139396Y-147006850D01*
X160112136Y-146966051D01*
X160089005Y-146922778D01*
X160070228Y-146877445D01*
X160055984Y-146830490D01*
X160046412Y-146782365D01*
X160041602Y-146733534D01*
X160041602Y-146709000D01*
X160041000Y-146709000D01*
X160041000Y-146209000D01*
X160041602Y-146209000D01*
X160041602Y-146184466D01*
X160046412Y-146135635D01*
X160055984Y-146087510D01*
X160070228Y-146040555D01*
X160089005Y-145995222D01*
X160112136Y-145951949D01*
X160139396Y-145911150D01*
X160170524Y-145873221D01*
X160205221Y-145838524D01*
X160243150Y-145807396D01*
X160283949Y-145780136D01*
X160327222Y-145757005D01*
X160372555Y-145738228D01*
X160419510Y-145723984D01*
X160467635Y-145714412D01*
X160516466Y-145709602D01*
X160541000Y-145709602D01*
X160541000Y-145709000D01*
X161041000Y-145709000D01*
X161041000Y-147209000D01*
X160541000Y-147209000D01*
X160541000Y-147208398D01*
G37*
G36*
X161341000Y-145709000D02*
G01*
X161841000Y-145709000D01*
X161841000Y-145709602D01*
X161865534Y-145709602D01*
X161914365Y-145714412D01*
X161962490Y-145723984D01*
X162009445Y-145738228D01*
X162054778Y-145757005D01*
X162098051Y-145780136D01*
X162138850Y-145807396D01*
X162176779Y-145838524D01*
X162211476Y-145873221D01*
X162242604Y-145911150D01*
X162269864Y-145951949D01*
X162292995Y-145995222D01*
X162311772Y-146040555D01*
X162326016Y-146087510D01*
X162335588Y-146135635D01*
X162340398Y-146184466D01*
X162340398Y-146209000D01*
X162341000Y-146209000D01*
X162341000Y-146709000D01*
X162340398Y-146709000D01*
X162340398Y-146733534D01*
X162335588Y-146782365D01*
X162326016Y-146830490D01*
X162311772Y-146877445D01*
X162292995Y-146922778D01*
X162269864Y-146966051D01*
X162242604Y-147006850D01*
X162211476Y-147044779D01*
X162176779Y-147079476D01*
X162138850Y-147110604D01*
X162098051Y-147137864D01*
X162054778Y-147160995D01*
X162009445Y-147179772D01*
X161962490Y-147194016D01*
X161914365Y-147203588D01*
X161865534Y-147208398D01*
X161841000Y-147208398D01*
X161841000Y-147209000D01*
X161341000Y-147209000D01*
X161341000Y-145709000D01*
G37*
%TD*%
%TO.C,JP12*%
G36*
X174765000Y-152796398D02*
G01*
X174740466Y-152796398D01*
X174691635Y-152791588D01*
X174643510Y-152782016D01*
X174596555Y-152767772D01*
X174551222Y-152748995D01*
X174507949Y-152725864D01*
X174467150Y-152698604D01*
X174429221Y-152667476D01*
X174394524Y-152632779D01*
X174363396Y-152594850D01*
X174336136Y-152554051D01*
X174313005Y-152510778D01*
X174294228Y-152465445D01*
X174279984Y-152418490D01*
X174270412Y-152370365D01*
X174265602Y-152321534D01*
X174265602Y-152297000D01*
X174265000Y-152297000D01*
X174265000Y-151797000D01*
X174265602Y-151797000D01*
X174265602Y-151772466D01*
X174270412Y-151723635D01*
X174279984Y-151675510D01*
X174294228Y-151628555D01*
X174313005Y-151583222D01*
X174336136Y-151539949D01*
X174363396Y-151499150D01*
X174394524Y-151461221D01*
X174429221Y-151426524D01*
X174467150Y-151395396D01*
X174507949Y-151368136D01*
X174551222Y-151345005D01*
X174596555Y-151326228D01*
X174643510Y-151311984D01*
X174691635Y-151302412D01*
X174740466Y-151297602D01*
X174765000Y-151297602D01*
X174765000Y-151297000D01*
X175265000Y-151297000D01*
X175265000Y-152797000D01*
X174765000Y-152797000D01*
X174765000Y-152796398D01*
G37*
G36*
X175565000Y-151297000D02*
G01*
X176065000Y-151297000D01*
X176065000Y-151297602D01*
X176089534Y-151297602D01*
X176138365Y-151302412D01*
X176186490Y-151311984D01*
X176233445Y-151326228D01*
X176278778Y-151345005D01*
X176322051Y-151368136D01*
X176362850Y-151395396D01*
X176400779Y-151426524D01*
X176435476Y-151461221D01*
X176466604Y-151499150D01*
X176493864Y-151539949D01*
X176516995Y-151583222D01*
X176535772Y-151628555D01*
X176550016Y-151675510D01*
X176559588Y-151723635D01*
X176564398Y-151772466D01*
X176564398Y-151797000D01*
X176565000Y-151797000D01*
X176565000Y-152297000D01*
X176564398Y-152297000D01*
X176564398Y-152321534D01*
X176559588Y-152370365D01*
X176550016Y-152418490D01*
X176535772Y-152465445D01*
X176516995Y-152510778D01*
X176493864Y-152554051D01*
X176466604Y-152594850D01*
X176435476Y-152632779D01*
X176400779Y-152667476D01*
X176362850Y-152698604D01*
X176322051Y-152725864D01*
X176278778Y-152748995D01*
X176233445Y-152767772D01*
X176186490Y-152782016D01*
X176138365Y-152791588D01*
X176089534Y-152796398D01*
X176065000Y-152796398D01*
X176065000Y-152797000D01*
X175565000Y-152797000D01*
X175565000Y-151297000D01*
G37*
%TD*%
D13*
%TO.C,D6*%
X147218000Y-140617000D03*
X148618000Y-140617000D03*
%TD*%
D14*
%TO.C,U9*%
X165636000Y-94643000D03*
D15*
X165636000Y-97183000D03*
X165636000Y-99723000D03*
X165636000Y-102263000D03*
X165636000Y-104803000D03*
X165636000Y-107343000D03*
X165636000Y-109883000D03*
X165636000Y-112423000D03*
X165636000Y-114963000D03*
X165636000Y-120043000D03*
X165636000Y-122583000D03*
X165636000Y-125123000D03*
X165636000Y-127663000D03*
X165636000Y-130203000D03*
X165636000Y-132743000D03*
X165636000Y-135283000D03*
X165636000Y-137823000D03*
X183416000Y-137823000D03*
X183416000Y-135283000D03*
X183416000Y-132743000D03*
X183416000Y-130203000D03*
X183416000Y-127663000D03*
X183416000Y-125123000D03*
X183416000Y-122583000D03*
X183416000Y-120043000D03*
X183416000Y-114963000D03*
X183416000Y-112423000D03*
X183416000Y-109883000D03*
X183416000Y-107343000D03*
X183416000Y-104803000D03*
X183416000Y-102263000D03*
X183416000Y-99723000D03*
X183416000Y-97183000D03*
X183416000Y-94643000D03*
%TD*%
D16*
%TO.C,U12*%
X168980000Y-152174000D03*
X168980000Y-154074000D03*
X166780000Y-154074000D03*
X166780000Y-153124000D03*
X166780000Y-152174000D03*
%TD*%
%TO.C,U11*%
X176515000Y-150650000D03*
X176515000Y-149700000D03*
X176515000Y-151600000D03*
X174315000Y-151600000D03*
X174315000Y-150650000D03*
X174315000Y-149700000D03*
%TD*%
%TO.C,U10*%
X156027000Y-146012000D03*
X156027000Y-144112000D03*
X158227000Y-144112000D03*
X158227000Y-145062000D03*
X158227000Y-146012000D03*
%TD*%
%TO.C,U8*%
X152385000Y-143411000D03*
X152385000Y-142461000D03*
X152385000Y-144361000D03*
X150185000Y-144361000D03*
X150185000Y-143411000D03*
X150185000Y-142461000D03*
%TD*%
%TO.C,U7*%
G36*
G01*
X172216000Y-143942000D02*
X172216000Y-143642000D01*
G75*
G02*
X172366000Y-143492000I150000J0D01*
G01*
X174016000Y-143492000D01*
G75*
G02*
X174166000Y-143642000I0J-150000D01*
G01*
X174166000Y-143942000D01*
G75*
G02*
X174016000Y-144092000I-150000J0D01*
G01*
X172366000Y-144092000D01*
G75*
G02*
X172216000Y-143942000I0J150000D01*
G01*
G37*
G36*
G01*
X172216000Y-145212000D02*
X172216000Y-144912000D01*
G75*
G02*
X172366000Y-144762000I150000J0D01*
G01*
X174016000Y-144762000D01*
G75*
G02*
X174166000Y-144912000I0J-150000D01*
G01*
X174166000Y-145212000D01*
G75*
G02*
X174016000Y-145362000I-150000J0D01*
G01*
X172366000Y-145362000D01*
G75*
G02*
X172216000Y-145212000I0J150000D01*
G01*
G37*
G36*
G01*
X172216000Y-146482000D02*
X172216000Y-146182000D01*
G75*
G02*
X172366000Y-146032000I150000J0D01*
G01*
X174016000Y-146032000D01*
G75*
G02*
X174166000Y-146182000I0J-150000D01*
G01*
X174166000Y-146482000D01*
G75*
G02*
X174016000Y-146632000I-150000J0D01*
G01*
X172366000Y-146632000D01*
G75*
G02*
X172216000Y-146482000I0J150000D01*
G01*
G37*
G36*
G01*
X172216000Y-147752000D02*
X172216000Y-147452000D01*
G75*
G02*
X172366000Y-147302000I150000J0D01*
G01*
X174016000Y-147302000D01*
G75*
G02*
X174166000Y-147452000I0J-150000D01*
G01*
X174166000Y-147752000D01*
G75*
G02*
X174016000Y-147902000I-150000J0D01*
G01*
X172366000Y-147902000D01*
G75*
G02*
X172216000Y-147752000I0J150000D01*
G01*
G37*
G36*
G01*
X167266000Y-147752000D02*
X167266000Y-147452000D01*
G75*
G02*
X167416000Y-147302000I150000J0D01*
G01*
X169066000Y-147302000D01*
G75*
G02*
X169216000Y-147452000I0J-150000D01*
G01*
X169216000Y-147752000D01*
G75*
G02*
X169066000Y-147902000I-150000J0D01*
G01*
X167416000Y-147902000D01*
G75*
G02*
X167266000Y-147752000I0J150000D01*
G01*
G37*
G36*
G01*
X167266000Y-146482000D02*
X167266000Y-146182000D01*
G75*
G02*
X167416000Y-146032000I150000J0D01*
G01*
X169066000Y-146032000D01*
G75*
G02*
X169216000Y-146182000I0J-150000D01*
G01*
X169216000Y-146482000D01*
G75*
G02*
X169066000Y-146632000I-150000J0D01*
G01*
X167416000Y-146632000D01*
G75*
G02*
X167266000Y-146482000I0J150000D01*
G01*
G37*
G36*
G01*
X167266000Y-145212000D02*
X167266000Y-144912000D01*
G75*
G02*
X167416000Y-144762000I150000J0D01*
G01*
X169066000Y-144762000D01*
G75*
G02*
X169216000Y-144912000I0J-150000D01*
G01*
X169216000Y-145212000D01*
G75*
G02*
X169066000Y-145362000I-150000J0D01*
G01*
X167416000Y-145362000D01*
G75*
G02*
X167266000Y-145212000I0J150000D01*
G01*
G37*
G36*
G01*
X167266000Y-143942000D02*
X167266000Y-143642000D01*
G75*
G02*
X167416000Y-143492000I150000J0D01*
G01*
X169066000Y-143492000D01*
G75*
G02*
X169216000Y-143642000I0J-150000D01*
G01*
X169216000Y-143942000D01*
G75*
G02*
X169066000Y-144092000I-150000J0D01*
G01*
X167416000Y-144092000D01*
G75*
G02*
X167266000Y-143942000I0J150000D01*
G01*
G37*
%TD*%
%TO.C,R27*%
G36*
G01*
X175827000Y-145967500D02*
X175827000Y-146442500D01*
G75*
G02*
X175589500Y-146680000I-237500J0D01*
G01*
X175014500Y-146680000D01*
G75*
G02*
X174777000Y-146442500I0J237500D01*
G01*
X174777000Y-145967500D01*
G75*
G02*
X175014500Y-145730000I237500J0D01*
G01*
X175589500Y-145730000D01*
G75*
G02*
X175827000Y-145967500I0J-237500D01*
G01*
G37*
G36*
G01*
X177577000Y-145967500D02*
X177577000Y-146442500D01*
G75*
G02*
X177339500Y-146680000I-237500J0D01*
G01*
X176764500Y-146680000D01*
G75*
G02*
X176527000Y-146442500I0J237500D01*
G01*
X176527000Y-145967500D01*
G75*
G02*
X176764500Y-145730000I237500J0D01*
G01*
X177339500Y-145730000D01*
G75*
G02*
X177577000Y-145967500I0J-237500D01*
G01*
G37*
%TD*%
%TO.C,R26*%
G36*
G01*
X172082000Y-149490500D02*
X172082000Y-149015500D01*
G75*
G02*
X172319500Y-148778000I237500J0D01*
G01*
X172894500Y-148778000D01*
G75*
G02*
X173132000Y-149015500I0J-237500D01*
G01*
X173132000Y-149490500D01*
G75*
G02*
X172894500Y-149728000I-237500J0D01*
G01*
X172319500Y-149728000D01*
G75*
G02*
X172082000Y-149490500I0J237500D01*
G01*
G37*
G36*
G01*
X170332000Y-149490500D02*
X170332000Y-149015500D01*
G75*
G02*
X170569500Y-148778000I237500J0D01*
G01*
X171144500Y-148778000D01*
G75*
G02*
X171382000Y-149015500I0J-237500D01*
G01*
X171382000Y-149490500D01*
G75*
G02*
X171144500Y-149728000I-237500J0D01*
G01*
X170569500Y-149728000D01*
G75*
G02*
X170332000Y-149490500I0J237500D01*
G01*
G37*
%TD*%
%TO.C,R25*%
G36*
G01*
X172082000Y-151141500D02*
X172082000Y-150666500D01*
G75*
G02*
X172319500Y-150429000I237500J0D01*
G01*
X172894500Y-150429000D01*
G75*
G02*
X173132000Y-150666500I0J-237500D01*
G01*
X173132000Y-151141500D01*
G75*
G02*
X172894500Y-151379000I-237500J0D01*
G01*
X172319500Y-151379000D01*
G75*
G02*
X172082000Y-151141500I0J237500D01*
G01*
G37*
G36*
G01*
X170332000Y-151141500D02*
X170332000Y-150666500D01*
G75*
G02*
X170569500Y-150429000I237500J0D01*
G01*
X171144500Y-150429000D01*
G75*
G02*
X171382000Y-150666500I0J-237500D01*
G01*
X171382000Y-151141500D01*
G75*
G02*
X171144500Y-151379000I-237500J0D01*
G01*
X170569500Y-151379000D01*
G75*
G02*
X170332000Y-151141500I0J237500D01*
G01*
G37*
%TD*%
%TO.C,R24*%
G36*
G01*
X175638000Y-154443500D02*
X175638000Y-153968500D01*
G75*
G02*
X175875500Y-153731000I237500J0D01*
G01*
X176450500Y-153731000D01*
G75*
G02*
X176688000Y-153968500I0J-237500D01*
G01*
X176688000Y-154443500D01*
G75*
G02*
X176450500Y-154681000I-237500J0D01*
G01*
X175875500Y-154681000D01*
G75*
G02*
X175638000Y-154443500I0J237500D01*
G01*
G37*
G36*
G01*
X173888000Y-154443500D02*
X173888000Y-153968500D01*
G75*
G02*
X174125500Y-153731000I237500J0D01*
G01*
X174700500Y-153731000D01*
G75*
G02*
X174938000Y-153968500I0J-237500D01*
G01*
X174938000Y-154443500D01*
G75*
G02*
X174700500Y-154681000I-237500J0D01*
G01*
X174125500Y-154681000D01*
G75*
G02*
X173888000Y-154443500I0J237500D01*
G01*
G37*
%TD*%
%TO.C,R23*%
G36*
G01*
X165238500Y-152967000D02*
X164763500Y-152967000D01*
G75*
G02*
X164526000Y-152729500I0J237500D01*
G01*
X164526000Y-152154500D01*
G75*
G02*
X164763500Y-151917000I237500J0D01*
G01*
X165238500Y-151917000D01*
G75*
G02*
X165476000Y-152154500I0J-237500D01*
G01*
X165476000Y-152729500D01*
G75*
G02*
X165238500Y-152967000I-237500J0D01*
G01*
G37*
G36*
G01*
X165238500Y-154717000D02*
X164763500Y-154717000D01*
G75*
G02*
X164526000Y-154479500I0J237500D01*
G01*
X164526000Y-153904500D01*
G75*
G02*
X164763500Y-153667000I237500J0D01*
G01*
X165238500Y-153667000D01*
G75*
G02*
X165476000Y-153904500I0J-237500D01*
G01*
X165476000Y-154479500D01*
G75*
G02*
X165238500Y-154717000I-237500J0D01*
G01*
G37*
%TD*%
%TO.C,R22*%
G36*
G01*
X163508000Y-150031500D02*
X163508000Y-150506500D01*
G75*
G02*
X163270500Y-150744000I-237500J0D01*
G01*
X162695500Y-150744000D01*
G75*
G02*
X162458000Y-150506500I0J237500D01*
G01*
X162458000Y-150031500D01*
G75*
G02*
X162695500Y-149794000I237500J0D01*
G01*
X163270500Y-149794000D01*
G75*
G02*
X163508000Y-150031500I0J-237500D01*
G01*
G37*
G36*
G01*
X165258000Y-150031500D02*
X165258000Y-150506500D01*
G75*
G02*
X165020500Y-150744000I-237500J0D01*
G01*
X164445500Y-150744000D01*
G75*
G02*
X164208000Y-150506500I0J237500D01*
G01*
X164208000Y-150031500D01*
G75*
G02*
X164445500Y-149794000I237500J0D01*
G01*
X165020500Y-149794000D01*
G75*
G02*
X165258000Y-150031500I0J-237500D01*
G01*
G37*
%TD*%
%TO.C,R21*%
G36*
G01*
X159509000Y-142632500D02*
X159509000Y-142157500D01*
G75*
G02*
X159746500Y-141920000I237500J0D01*
G01*
X160321500Y-141920000D01*
G75*
G02*
X160559000Y-142157500I0J-237500D01*
G01*
X160559000Y-142632500D01*
G75*
G02*
X160321500Y-142870000I-237500J0D01*
G01*
X159746500Y-142870000D01*
G75*
G02*
X159509000Y-142632500I0J237500D01*
G01*
G37*
G36*
G01*
X157759000Y-142632500D02*
X157759000Y-142157500D01*
G75*
G02*
X157996500Y-141920000I237500J0D01*
G01*
X158571500Y-141920000D01*
G75*
G02*
X158809000Y-142157500I0J-237500D01*
G01*
X158809000Y-142632500D01*
G75*
G02*
X158571500Y-142870000I-237500J0D01*
G01*
X157996500Y-142870000D01*
G75*
G02*
X157759000Y-142632500I0J237500D01*
G01*
G37*
%TD*%
%TO.C,R20*%
G36*
G01*
X160652000Y-148855500D02*
X160652000Y-148380500D01*
G75*
G02*
X160889500Y-148143000I237500J0D01*
G01*
X161464500Y-148143000D01*
G75*
G02*
X161702000Y-148380500I0J-237500D01*
G01*
X161702000Y-148855500D01*
G75*
G02*
X161464500Y-149093000I-237500J0D01*
G01*
X160889500Y-149093000D01*
G75*
G02*
X160652000Y-148855500I0J237500D01*
G01*
G37*
G36*
G01*
X158902000Y-148855500D02*
X158902000Y-148380500D01*
G75*
G02*
X159139500Y-148143000I237500J0D01*
G01*
X159714500Y-148143000D01*
G75*
G02*
X159952000Y-148380500I0J-237500D01*
G01*
X159952000Y-148855500D01*
G75*
G02*
X159714500Y-149093000I-237500J0D01*
G01*
X159139500Y-149093000D01*
G75*
G02*
X158902000Y-148855500I0J237500D01*
G01*
G37*
%TD*%
%TO.C,R19*%
G36*
G01*
X154745000Y-142030500D02*
X154745000Y-142505500D01*
G75*
G02*
X154507500Y-142743000I-237500J0D01*
G01*
X153932500Y-142743000D01*
G75*
G02*
X153695000Y-142505500I0J237500D01*
G01*
X153695000Y-142030500D01*
G75*
G02*
X153932500Y-141793000I237500J0D01*
G01*
X154507500Y-141793000D01*
G75*
G02*
X154745000Y-142030500I0J-237500D01*
G01*
G37*
G36*
G01*
X156495000Y-142030500D02*
X156495000Y-142505500D01*
G75*
G02*
X156257500Y-142743000I-237500J0D01*
G01*
X155682500Y-142743000D01*
G75*
G02*
X155445000Y-142505500I0J237500D01*
G01*
X155445000Y-142030500D01*
G75*
G02*
X155682500Y-141793000I237500J0D01*
G01*
X156257500Y-141793000D01*
G75*
G02*
X156495000Y-142030500I0J-237500D01*
G01*
G37*
%TD*%
%TO.C,R18*%
G36*
G01*
X150808000Y-140379500D02*
X150808000Y-140854500D01*
G75*
G02*
X150570500Y-141092000I-237500J0D01*
G01*
X149995500Y-141092000D01*
G75*
G02*
X149758000Y-140854500I0J237500D01*
G01*
X149758000Y-140379500D01*
G75*
G02*
X149995500Y-140142000I237500J0D01*
G01*
X150570500Y-140142000D01*
G75*
G02*
X150808000Y-140379500I0J-237500D01*
G01*
G37*
G36*
G01*
X152558000Y-140379500D02*
X152558000Y-140854500D01*
G75*
G02*
X152320500Y-141092000I-237500J0D01*
G01*
X151745500Y-141092000D01*
G75*
G02*
X151508000Y-140854500I0J237500D01*
G01*
X151508000Y-140379500D01*
G75*
G02*
X151745500Y-140142000I237500J0D01*
G01*
X152320500Y-140142000D01*
G75*
G02*
X152558000Y-140379500I0J-237500D01*
G01*
G37*
%TD*%
%TO.C,R17*%
G36*
G01*
X164208000Y-148855500D02*
X164208000Y-148380500D01*
G75*
G02*
X164445500Y-148143000I237500J0D01*
G01*
X165020500Y-148143000D01*
G75*
G02*
X165258000Y-148380500I0J-237500D01*
G01*
X165258000Y-148855500D01*
G75*
G02*
X165020500Y-149093000I-237500J0D01*
G01*
X164445500Y-149093000D01*
G75*
G02*
X164208000Y-148855500I0J237500D01*
G01*
G37*
G36*
G01*
X162458000Y-148855500D02*
X162458000Y-148380500D01*
G75*
G02*
X162695500Y-148143000I237500J0D01*
G01*
X163270500Y-148143000D01*
G75*
G02*
X163508000Y-148380500I0J-237500D01*
G01*
X163508000Y-148855500D01*
G75*
G02*
X163270500Y-149093000I-237500J0D01*
G01*
X162695500Y-149093000D01*
G75*
G02*
X162458000Y-148855500I0J237500D01*
G01*
G37*
%TD*%
%TO.C,R16*%
G36*
G01*
X163112500Y-153667000D02*
X163587500Y-153667000D01*
G75*
G02*
X163825000Y-153904500I0J-237500D01*
G01*
X163825000Y-154479500D01*
G75*
G02*
X163587500Y-154717000I-237500J0D01*
G01*
X163112500Y-154717000D01*
G75*
G02*
X162875000Y-154479500I0J237500D01*
G01*
X162875000Y-153904500D01*
G75*
G02*
X163112500Y-153667000I237500J0D01*
G01*
G37*
G36*
G01*
X163112500Y-151917000D02*
X163587500Y-151917000D01*
G75*
G02*
X163825000Y-152154500I0J-237500D01*
G01*
X163825000Y-152729500D01*
G75*
G02*
X163587500Y-152967000I-237500J0D01*
G01*
X163112500Y-152967000D01*
G75*
G02*
X162875000Y-152729500I0J237500D01*
G01*
X162875000Y-152154500D01*
G75*
G02*
X163112500Y-151917000I237500J0D01*
G01*
G37*
%TD*%
%TO.C,R15*%
G36*
G01*
X156523000Y-154095500D02*
X156523000Y-154570500D01*
G75*
G02*
X156285500Y-154808000I-237500J0D01*
G01*
X155710500Y-154808000D01*
G75*
G02*
X155473000Y-154570500I0J237500D01*
G01*
X155473000Y-154095500D01*
G75*
G02*
X155710500Y-153858000I237500J0D01*
G01*
X156285500Y-153858000D01*
G75*
G02*
X156523000Y-154095500I0J-237500D01*
G01*
G37*
G36*
G01*
X158273000Y-154095500D02*
X158273000Y-154570500D01*
G75*
G02*
X158035500Y-154808000I-237500J0D01*
G01*
X157460500Y-154808000D01*
G75*
G02*
X157223000Y-154570500I0J237500D01*
G01*
X157223000Y-154095500D01*
G75*
G02*
X157460500Y-153858000I237500J0D01*
G01*
X158035500Y-153858000D01*
G75*
G02*
X158273000Y-154095500I0J-237500D01*
G01*
G37*
%TD*%
%TO.C,R14*%
G36*
G01*
X157223000Y-151268500D02*
X157223000Y-150793500D01*
G75*
G02*
X157460500Y-150556000I237500J0D01*
G01*
X158035500Y-150556000D01*
G75*
G02*
X158273000Y-150793500I0J-237500D01*
G01*
X158273000Y-151268500D01*
G75*
G02*
X158035500Y-151506000I-237500J0D01*
G01*
X157460500Y-151506000D01*
G75*
G02*
X157223000Y-151268500I0J237500D01*
G01*
G37*
G36*
G01*
X155473000Y-151268500D02*
X155473000Y-150793500D01*
G75*
G02*
X155710500Y-150556000I237500J0D01*
G01*
X156285500Y-150556000D01*
G75*
G02*
X156523000Y-150793500I0J-237500D01*
G01*
X156523000Y-151268500D01*
G75*
G02*
X156285500Y-151506000I-237500J0D01*
G01*
X155710500Y-151506000D01*
G75*
G02*
X155473000Y-151268500I0J237500D01*
G01*
G37*
%TD*%
%TO.C,R13*%
G36*
G01*
X156523000Y-149142500D02*
X156523000Y-149617500D01*
G75*
G02*
X156285500Y-149855000I-237500J0D01*
G01*
X155710500Y-149855000D01*
G75*
G02*
X155473000Y-149617500I0J237500D01*
G01*
X155473000Y-149142500D01*
G75*
G02*
X155710500Y-148905000I237500J0D01*
G01*
X156285500Y-148905000D01*
G75*
G02*
X156523000Y-149142500I0J-237500D01*
G01*
G37*
G36*
G01*
X158273000Y-149142500D02*
X158273000Y-149617500D01*
G75*
G02*
X158035500Y-149855000I-237500J0D01*
G01*
X157460500Y-149855000D01*
G75*
G02*
X157223000Y-149617500I0J237500D01*
G01*
X157223000Y-149142500D01*
G75*
G02*
X157460500Y-148905000I237500J0D01*
G01*
X158035500Y-148905000D01*
G75*
G02*
X158273000Y-149142500I0J-237500D01*
G01*
G37*
%TD*%
%TO.C,FB1*%
G36*
G01*
X175525500Y-142426000D02*
X175050500Y-142426000D01*
G75*
G02*
X174813000Y-142188500I0J237500D01*
G01*
X174813000Y-141613500D01*
G75*
G02*
X175050500Y-141376000I237500J0D01*
G01*
X175525500Y-141376000D01*
G75*
G02*
X175763000Y-141613500I0J-237500D01*
G01*
X175763000Y-142188500D01*
G75*
G02*
X175525500Y-142426000I-237500J0D01*
G01*
G37*
G36*
G01*
X175525500Y-144176000D02*
X175050500Y-144176000D01*
G75*
G02*
X174813000Y-143938500I0J237500D01*
G01*
X174813000Y-143363500D01*
G75*
G02*
X175050500Y-143126000I237500J0D01*
G01*
X175525500Y-143126000D01*
G75*
G02*
X175763000Y-143363500I0J-237500D01*
G01*
X175763000Y-143938500D01*
G75*
G02*
X175525500Y-144176000I-237500J0D01*
G01*
G37*
%TD*%
%TO.C,C19*%
G36*
G01*
X171382000Y-153968500D02*
X171382000Y-154443500D01*
G75*
G02*
X171144500Y-154681000I-237500J0D01*
G01*
X170569500Y-154681000D01*
G75*
G02*
X170332000Y-154443500I0J237500D01*
G01*
X170332000Y-153968500D01*
G75*
G02*
X170569500Y-153731000I237500J0D01*
G01*
X171144500Y-153731000D01*
G75*
G02*
X171382000Y-153968500I0J-237500D01*
G01*
G37*
G36*
G01*
X173132000Y-153968500D02*
X173132000Y-154443500D01*
G75*
G02*
X172894500Y-154681000I-237500J0D01*
G01*
X172319500Y-154681000D01*
G75*
G02*
X172082000Y-154443500I0J237500D01*
G01*
X172082000Y-153968500D01*
G75*
G02*
X172319500Y-153731000I237500J0D01*
G01*
X172894500Y-153731000D01*
G75*
G02*
X173132000Y-153968500I0J-237500D01*
G01*
G37*
%TD*%
%TO.C,C18*%
G36*
G01*
X171382000Y-152317500D02*
X171382000Y-152792500D01*
G75*
G02*
X171144500Y-153030000I-237500J0D01*
G01*
X170569500Y-153030000D01*
G75*
G02*
X170332000Y-152792500I0J237500D01*
G01*
X170332000Y-152317500D01*
G75*
G02*
X170569500Y-152080000I237500J0D01*
G01*
X171144500Y-152080000D01*
G75*
G02*
X171382000Y-152317500I0J-237500D01*
G01*
G37*
G36*
G01*
X173132000Y-152317500D02*
X173132000Y-152792500D01*
G75*
G02*
X172894500Y-153030000I-237500J0D01*
G01*
X172319500Y-153030000D01*
G75*
G02*
X172082000Y-152792500I0J237500D01*
G01*
X172082000Y-152317500D01*
G75*
G02*
X172319500Y-152080000I237500J0D01*
G01*
X172894500Y-152080000D01*
G75*
G02*
X173132000Y-152317500I0J-237500D01*
G01*
G37*
%TD*%
%TO.C,C17*%
G36*
G01*
X167572000Y-150285500D02*
X167572000Y-150760500D01*
G75*
G02*
X167334500Y-150998000I-237500J0D01*
G01*
X166759500Y-150998000D01*
G75*
G02*
X166522000Y-150760500I0J237500D01*
G01*
X166522000Y-150285500D01*
G75*
G02*
X166759500Y-150048000I237500J0D01*
G01*
X167334500Y-150048000D01*
G75*
G02*
X167572000Y-150285500I0J-237500D01*
G01*
G37*
G36*
G01*
X169322000Y-150285500D02*
X169322000Y-150760500D01*
G75*
G02*
X169084500Y-150998000I-237500J0D01*
G01*
X168509500Y-150998000D01*
G75*
G02*
X168272000Y-150760500I0J237500D01*
G01*
X168272000Y-150285500D01*
G75*
G02*
X168509500Y-150048000I237500J0D01*
G01*
X169084500Y-150048000D01*
G75*
G02*
X169322000Y-150285500I0J-237500D01*
G01*
G37*
%TD*%
%TO.C,C16*%
G36*
G01*
X175827000Y-147618500D02*
X175827000Y-148093500D01*
G75*
G02*
X175589500Y-148331000I-237500J0D01*
G01*
X175014500Y-148331000D01*
G75*
G02*
X174777000Y-148093500I0J237500D01*
G01*
X174777000Y-147618500D01*
G75*
G02*
X175014500Y-147381000I237500J0D01*
G01*
X175589500Y-147381000D01*
G75*
G02*
X175827000Y-147618500I0J-237500D01*
G01*
G37*
G36*
G01*
X177577000Y-147618500D02*
X177577000Y-148093500D01*
G75*
G02*
X177339500Y-148331000I-237500J0D01*
G01*
X176764500Y-148331000D01*
G75*
G02*
X176527000Y-148093500I0J237500D01*
G01*
X176527000Y-147618500D01*
G75*
G02*
X176764500Y-147381000I237500J0D01*
G01*
X177339500Y-147381000D01*
G75*
G02*
X177577000Y-147618500I0J-237500D01*
G01*
G37*
%TD*%
%TO.C,C15*%
G36*
G01*
X153968500Y-145285000D02*
X154443500Y-145285000D01*
G75*
G02*
X154681000Y-145522500I0J-237500D01*
G01*
X154681000Y-146097500D01*
G75*
G02*
X154443500Y-146335000I-237500J0D01*
G01*
X153968500Y-146335000D01*
G75*
G02*
X153731000Y-146097500I0J237500D01*
G01*
X153731000Y-145522500D01*
G75*
G02*
X153968500Y-145285000I237500J0D01*
G01*
G37*
G36*
G01*
X153968500Y-143535000D02*
X154443500Y-143535000D01*
G75*
G02*
X154681000Y-143772500I0J-237500D01*
G01*
X154681000Y-144347500D01*
G75*
G02*
X154443500Y-144585000I-237500J0D01*
G01*
X153968500Y-144585000D01*
G75*
G02*
X153731000Y-144347500I0J237500D01*
G01*
X153731000Y-143772500D01*
G75*
G02*
X153968500Y-143535000I237500J0D01*
G01*
G37*
%TD*%
%TO.C,C14*%
G36*
G01*
X157096000Y-147966500D02*
X157096000Y-147491500D01*
G75*
G02*
X157333500Y-147254000I237500J0D01*
G01*
X157908500Y-147254000D01*
G75*
G02*
X158146000Y-147491500I0J-237500D01*
G01*
X158146000Y-147966500D01*
G75*
G02*
X157908500Y-148204000I-237500J0D01*
G01*
X157333500Y-148204000D01*
G75*
G02*
X157096000Y-147966500I0J237500D01*
G01*
G37*
G36*
G01*
X155346000Y-147966500D02*
X155346000Y-147491500D01*
G75*
G02*
X155583500Y-147254000I237500J0D01*
G01*
X156158500Y-147254000D01*
G75*
G02*
X156396000Y-147491500I0J-237500D01*
G01*
X156396000Y-147966500D01*
G75*
G02*
X156158500Y-148204000I-237500J0D01*
G01*
X155583500Y-148204000D01*
G75*
G02*
X155346000Y-147966500I0J237500D01*
G01*
G37*
%TD*%
%TO.C,C13*%
G36*
G01*
X155064000Y-140854500D02*
X155064000Y-140379500D01*
G75*
G02*
X155301500Y-140142000I237500J0D01*
G01*
X155876500Y-140142000D01*
G75*
G02*
X156114000Y-140379500I0J-237500D01*
G01*
X156114000Y-140854500D01*
G75*
G02*
X155876500Y-141092000I-237500J0D01*
G01*
X155301500Y-141092000D01*
G75*
G02*
X155064000Y-140854500I0J237500D01*
G01*
G37*
G36*
G01*
X153314000Y-140854500D02*
X153314000Y-140379500D01*
G75*
G02*
X153551500Y-140142000I237500J0D01*
G01*
X154126500Y-140142000D01*
G75*
G02*
X154364000Y-140379500I0J-237500D01*
G01*
X154364000Y-140854500D01*
G75*
G02*
X154126500Y-141092000I-237500J0D01*
G01*
X153551500Y-141092000D01*
G75*
G02*
X153314000Y-140854500I0J237500D01*
G01*
G37*
%TD*%
%TO.C,C12*%
G36*
G01*
X164222500Y-144585000D02*
X163747500Y-144585000D01*
G75*
G02*
X163510000Y-144347500I0J237500D01*
G01*
X163510000Y-143772500D01*
G75*
G02*
X163747500Y-143535000I237500J0D01*
G01*
X164222500Y-143535000D01*
G75*
G02*
X164460000Y-143772500I0J-237500D01*
G01*
X164460000Y-144347500D01*
G75*
G02*
X164222500Y-144585000I-237500J0D01*
G01*
G37*
G36*
G01*
X164222500Y-146335000D02*
X163747500Y-146335000D01*
G75*
G02*
X163510000Y-146097500I0J237500D01*
G01*
X163510000Y-145522500D01*
G75*
G02*
X163747500Y-145285000I237500J0D01*
G01*
X164222500Y-145285000D01*
G75*
G02*
X164460000Y-145522500I0J-237500D01*
G01*
X164460000Y-146097500D01*
G75*
G02*
X164222500Y-146335000I-237500J0D01*
G01*
G37*
%TD*%
%TO.C,C11*%
G36*
G01*
X165439999Y-146274000D02*
X166340001Y-146274000D01*
G75*
G02*
X166590000Y-146523999I0J-249999D01*
G01*
X166590000Y-147174001D01*
G75*
G02*
X166340001Y-147424000I-249999J0D01*
G01*
X165439999Y-147424000D01*
G75*
G02*
X165190000Y-147174001I0J249999D01*
G01*
X165190000Y-146523999D01*
G75*
G02*
X165439999Y-146274000I249999J0D01*
G01*
G37*
G36*
G01*
X165439999Y-144224000D02*
X166340001Y-144224000D01*
G75*
G02*
X166590000Y-144473999I0J-249999D01*
G01*
X166590000Y-145124001D01*
G75*
G02*
X166340001Y-145374000I-249999J0D01*
G01*
X165439999Y-145374000D01*
G75*
G02*
X165190000Y-145124001I0J249999D01*
G01*
X165190000Y-144473999D01*
G75*
G02*
X165439999Y-144224000I249999J0D01*
G01*
G37*
%TD*%
%TO.C,C10*%
G36*
G01*
X169161000Y-142251500D02*
X169161000Y-141776500D01*
G75*
G02*
X169398500Y-141539000I237500J0D01*
G01*
X169973500Y-141539000D01*
G75*
G02*
X170211000Y-141776500I0J-237500D01*
G01*
X170211000Y-142251500D01*
G75*
G02*
X169973500Y-142489000I-237500J0D01*
G01*
X169398500Y-142489000D01*
G75*
G02*
X169161000Y-142251500I0J237500D01*
G01*
G37*
G36*
G01*
X167411000Y-142251500D02*
X167411000Y-141776500D01*
G75*
G02*
X167648500Y-141539000I237500J0D01*
G01*
X168223500Y-141539000D01*
G75*
G02*
X168461000Y-141776500I0J-237500D01*
G01*
X168461000Y-142251500D01*
G75*
G02*
X168223500Y-142489000I-237500J0D01*
G01*
X167648500Y-142489000D01*
G75*
G02*
X167411000Y-142251500I0J237500D01*
G01*
G37*
%TD*%
%TO.C,C9*%
G36*
G01*
X159952000Y-150031500D02*
X159952000Y-150506500D01*
G75*
G02*
X159714500Y-150744000I-237500J0D01*
G01*
X159139500Y-150744000D01*
G75*
G02*
X158902000Y-150506500I0J237500D01*
G01*
X158902000Y-150031500D01*
G75*
G02*
X159139500Y-149794000I237500J0D01*
G01*
X159714500Y-149794000D01*
G75*
G02*
X159952000Y-150031500I0J-237500D01*
G01*
G37*
G36*
G01*
X161702000Y-150031500D02*
X161702000Y-150506500D01*
G75*
G02*
X161464500Y-150744000I-237500J0D01*
G01*
X160889500Y-150744000D01*
G75*
G02*
X160652000Y-150506500I0J237500D01*
G01*
X160652000Y-150031500D01*
G75*
G02*
X160889500Y-149794000I237500J0D01*
G01*
X161464500Y-149794000D01*
G75*
G02*
X161702000Y-150031500I0J-237500D01*
G01*
G37*
%TD*%
%TO.C,C8*%
G36*
G01*
X156523000Y-152444500D02*
X156523000Y-152919500D01*
G75*
G02*
X156285500Y-153157000I-237500J0D01*
G01*
X155710500Y-153157000D01*
G75*
G02*
X155473000Y-152919500I0J237500D01*
G01*
X155473000Y-152444500D01*
G75*
G02*
X155710500Y-152207000I237500J0D01*
G01*
X156285500Y-152207000D01*
G75*
G02*
X156523000Y-152444500I0J-237500D01*
G01*
G37*
G36*
G01*
X158273000Y-152444500D02*
X158273000Y-152919500D01*
G75*
G02*
X158035500Y-153157000I-237500J0D01*
G01*
X157460500Y-153157000D01*
G75*
G02*
X157223000Y-152919500I0J237500D01*
G01*
X157223000Y-152444500D01*
G75*
G02*
X157460500Y-152207000I237500J0D01*
G01*
X158035500Y-152207000D01*
G75*
G02*
X158273000Y-152444500I0J-237500D01*
G01*
G37*
%TD*%
%TO.C,C7*%
G36*
G01*
X172044000Y-141436999D02*
X172044000Y-142337001D01*
G75*
G02*
X171794001Y-142587000I-249999J0D01*
G01*
X171143999Y-142587000D01*
G75*
G02*
X170894000Y-142337001I0J249999D01*
G01*
X170894000Y-141436999D01*
G75*
G02*
X171143999Y-141187000I249999J0D01*
G01*
X171794001Y-141187000D01*
G75*
G02*
X172044000Y-141436999I0J-249999D01*
G01*
G37*
G36*
G01*
X174094000Y-141436999D02*
X174094000Y-142337001D01*
G75*
G02*
X173844001Y-142587000I-249999J0D01*
G01*
X173193999Y-142587000D01*
G75*
G02*
X172944000Y-142337001I0J249999D01*
G01*
X172944000Y-141436999D01*
G75*
G02*
X173193999Y-141187000I249999J0D01*
G01*
X173844001Y-141187000D01*
G75*
G02*
X174094000Y-141436999I0J-249999D01*
G01*
G37*
%TD*%
%TO.C,U6*%
G36*
G01*
X155600000Y-129792500D02*
X155600000Y-129467500D01*
G75*
G02*
X155762500Y-129305000I162500J0D01*
G01*
X157412500Y-129305000D01*
G75*
G02*
X157575000Y-129467500I0J-162500D01*
G01*
X157575000Y-129792500D01*
G75*
G02*
X157412500Y-129955000I-162500J0D01*
G01*
X155762500Y-129955000D01*
G75*
G02*
X155600000Y-129792500I0J162500D01*
G01*
G37*
G36*
G01*
X155600000Y-131062500D02*
X155600000Y-130737500D01*
G75*
G02*
X155762500Y-130575000I162500J0D01*
G01*
X157412500Y-130575000D01*
G75*
G02*
X157575000Y-130737500I0J-162500D01*
G01*
X157575000Y-131062500D01*
G75*
G02*
X157412500Y-131225000I-162500J0D01*
G01*
X155762500Y-131225000D01*
G75*
G02*
X155600000Y-131062500I0J162500D01*
G01*
G37*
G36*
G01*
X155600000Y-132332500D02*
X155600000Y-132007500D01*
G75*
G02*
X155762500Y-131845000I162500J0D01*
G01*
X157412500Y-131845000D01*
G75*
G02*
X157575000Y-132007500I0J-162500D01*
G01*
X157575000Y-132332500D01*
G75*
G02*
X157412500Y-132495000I-162500J0D01*
G01*
X155762500Y-132495000D01*
G75*
G02*
X155600000Y-132332500I0J162500D01*
G01*
G37*
G36*
G01*
X155600000Y-133602500D02*
X155600000Y-133277500D01*
G75*
G02*
X155762500Y-133115000I162500J0D01*
G01*
X157412500Y-133115000D01*
G75*
G02*
X157575000Y-133277500I0J-162500D01*
G01*
X157575000Y-133602500D01*
G75*
G02*
X157412500Y-133765000I-162500J0D01*
G01*
X155762500Y-133765000D01*
G75*
G02*
X155600000Y-133602500I0J162500D01*
G01*
G37*
G36*
G01*
X150525000Y-133602500D02*
X150525000Y-133277500D01*
G75*
G02*
X150687500Y-133115000I162500J0D01*
G01*
X152337500Y-133115000D01*
G75*
G02*
X152500000Y-133277500I0J-162500D01*
G01*
X152500000Y-133602500D01*
G75*
G02*
X152337500Y-133765000I-162500J0D01*
G01*
X150687500Y-133765000D01*
G75*
G02*
X150525000Y-133602500I0J162500D01*
G01*
G37*
G36*
G01*
X150525000Y-132332500D02*
X150525000Y-132007500D01*
G75*
G02*
X150687500Y-131845000I162500J0D01*
G01*
X152337500Y-131845000D01*
G75*
G02*
X152500000Y-132007500I0J-162500D01*
G01*
X152500000Y-132332500D01*
G75*
G02*
X152337500Y-132495000I-162500J0D01*
G01*
X150687500Y-132495000D01*
G75*
G02*
X150525000Y-132332500I0J162500D01*
G01*
G37*
G36*
G01*
X150525000Y-131062500D02*
X150525000Y-130737500D01*
G75*
G02*
X150687500Y-130575000I162500J0D01*
G01*
X152337500Y-130575000D01*
G75*
G02*
X152500000Y-130737500I0J-162500D01*
G01*
X152500000Y-131062500D01*
G75*
G02*
X152337500Y-131225000I-162500J0D01*
G01*
X150687500Y-131225000D01*
G75*
G02*
X150525000Y-131062500I0J162500D01*
G01*
G37*
G36*
G01*
X150525000Y-129792500D02*
X150525000Y-129467500D01*
G75*
G02*
X150687500Y-129305000I162500J0D01*
G01*
X152337500Y-129305000D01*
G75*
G02*
X152500000Y-129467500I0J-162500D01*
G01*
X152500000Y-129792500D01*
G75*
G02*
X152337500Y-129955000I-162500J0D01*
G01*
X150687500Y-129955000D01*
G75*
G02*
X150525000Y-129792500I0J162500D01*
G01*
G37*
%TD*%
%TO.C,R12*%
G36*
G01*
X150365000Y-135647500D02*
X150365000Y-135172500D01*
G75*
G02*
X150602500Y-134935000I237500J0D01*
G01*
X151177500Y-134935000D01*
G75*
G02*
X151415000Y-135172500I0J-237500D01*
G01*
X151415000Y-135647500D01*
G75*
G02*
X151177500Y-135885000I-237500J0D01*
G01*
X150602500Y-135885000D01*
G75*
G02*
X150365000Y-135647500I0J237500D01*
G01*
G37*
G36*
G01*
X148615000Y-135647500D02*
X148615000Y-135172500D01*
G75*
G02*
X148852500Y-134935000I237500J0D01*
G01*
X149427500Y-134935000D01*
G75*
G02*
X149665000Y-135172500I0J-237500D01*
G01*
X149665000Y-135647500D01*
G75*
G02*
X149427500Y-135885000I-237500J0D01*
G01*
X148852500Y-135885000D01*
G75*
G02*
X148615000Y-135647500I0J237500D01*
G01*
G37*
%TD*%
%TO.C,R11*%
G36*
G01*
X168667500Y-133155000D02*
X168192500Y-133155000D01*
G75*
G02*
X167955000Y-132917500I0J237500D01*
G01*
X167955000Y-132342500D01*
G75*
G02*
X168192500Y-132105000I237500J0D01*
G01*
X168667500Y-132105000D01*
G75*
G02*
X168905000Y-132342500I0J-237500D01*
G01*
X168905000Y-132917500D01*
G75*
G02*
X168667500Y-133155000I-237500J0D01*
G01*
G37*
G36*
G01*
X168667500Y-134905000D02*
X168192500Y-134905000D01*
G75*
G02*
X167955000Y-134667500I0J237500D01*
G01*
X167955000Y-134092500D01*
G75*
G02*
X168192500Y-133855000I237500J0D01*
G01*
X168667500Y-133855000D01*
G75*
G02*
X168905000Y-134092500I0J-237500D01*
G01*
X168905000Y-134667500D01*
G75*
G02*
X168667500Y-134905000I-237500J0D01*
G01*
G37*
%TD*%
%TO.C,R10*%
G36*
G01*
X168667500Y-129345000D02*
X168192500Y-129345000D01*
G75*
G02*
X167955000Y-129107500I0J237500D01*
G01*
X167955000Y-128532500D01*
G75*
G02*
X168192500Y-128295000I237500J0D01*
G01*
X168667500Y-128295000D01*
G75*
G02*
X168905000Y-128532500I0J-237500D01*
G01*
X168905000Y-129107500D01*
G75*
G02*
X168667500Y-129345000I-237500J0D01*
G01*
G37*
G36*
G01*
X168667500Y-131095000D02*
X168192500Y-131095000D01*
G75*
G02*
X167955000Y-130857500I0J237500D01*
G01*
X167955000Y-130282500D01*
G75*
G02*
X168192500Y-130045000I237500J0D01*
G01*
X168667500Y-130045000D01*
G75*
G02*
X168905000Y-130282500I0J-237500D01*
G01*
X168905000Y-130857500D01*
G75*
G02*
X168667500Y-131095000I-237500J0D01*
G01*
G37*
%TD*%
%TO.C,C6*%
G36*
G01*
X154175000Y-135647500D02*
X154175000Y-135172500D01*
G75*
G02*
X154412500Y-134935000I237500J0D01*
G01*
X154987500Y-134935000D01*
G75*
G02*
X155225000Y-135172500I0J-237500D01*
G01*
X155225000Y-135647500D01*
G75*
G02*
X154987500Y-135885000I-237500J0D01*
G01*
X154412500Y-135885000D01*
G75*
G02*
X154175000Y-135647500I0J237500D01*
G01*
G37*
G36*
G01*
X152425000Y-135647500D02*
X152425000Y-135172500D01*
G75*
G02*
X152662500Y-134935000I237500J0D01*
G01*
X153237500Y-134935000D01*
G75*
G02*
X153475000Y-135172500I0J-237500D01*
G01*
X153475000Y-135647500D01*
G75*
G02*
X153237500Y-135885000I-237500J0D01*
G01*
X152662500Y-135885000D01*
G75*
G02*
X152425000Y-135647500I0J237500D01*
G01*
G37*
%TD*%
D17*
%TO.C,U5*%
X125885000Y-151285000D03*
X133505000Y-148745000D03*
X125885000Y-148745000D03*
D18*
X133505000Y-151285000D03*
%TD*%
D17*
%TO.C,U4*%
X125885000Y-144935000D03*
X133505000Y-142395000D03*
X125885000Y-142395000D03*
D18*
X133505000Y-144935000D03*
%TD*%
D19*
%TO.C,TP2*%
X120297000Y-141125000D03*
%TD*%
%TO.C,R9*%
G36*
G01*
X122865001Y-145250000D02*
X120014999Y-145250000D01*
G75*
G02*
X119765000Y-145000001I0J249999D01*
G01*
X119765000Y-143974999D01*
G75*
G02*
X120014999Y-143725000I249999J0D01*
G01*
X122865001Y-143725000D01*
G75*
G02*
X123115000Y-143974999I0J-249999D01*
G01*
X123115000Y-145000001D01*
G75*
G02*
X122865001Y-145250000I-249999J0D01*
G01*
G37*
G36*
G01*
X122865001Y-151225000D02*
X120014999Y-151225000D01*
G75*
G02*
X119765000Y-150975001I0J249999D01*
G01*
X119765000Y-149949999D01*
G75*
G02*
X120014999Y-149700000I249999J0D01*
G01*
X122865001Y-149700000D01*
G75*
G02*
X123115000Y-149949999I0J-249999D01*
G01*
X123115000Y-150975001D01*
G75*
G02*
X122865001Y-151225000I-249999J0D01*
G01*
G37*
%TD*%
D16*
%TO.C,U3*%
X162291000Y-145062000D03*
X162291000Y-144112000D03*
X162291000Y-146012000D03*
X160091000Y-146012000D03*
X160091000Y-145062000D03*
X160091000Y-144112000D03*
%TD*%
%TO.C,U2*%
X161656000Y-152367000D03*
X161656000Y-154267000D03*
X159456000Y-154267000D03*
X159456000Y-153317000D03*
X159456000Y-152367000D03*
%TD*%
D12*
%TO.C,JP8*%
G36*
X172255000Y-97830602D02*
G01*
X172279534Y-97830602D01*
X172328365Y-97835412D01*
X172376490Y-97844984D01*
X172423445Y-97859228D01*
X172468778Y-97878005D01*
X172512051Y-97901136D01*
X172552850Y-97928396D01*
X172590779Y-97959524D01*
X172625476Y-97994221D01*
X172656604Y-98032150D01*
X172683864Y-98072949D01*
X172706995Y-98116222D01*
X172725772Y-98161555D01*
X172740016Y-98208510D01*
X172749588Y-98256635D01*
X172754398Y-98305466D01*
X172754398Y-98330000D01*
X172755000Y-98330000D01*
X172755000Y-98830000D01*
X172754398Y-98830000D01*
X172754398Y-98854534D01*
X172749588Y-98903365D01*
X172740016Y-98951490D01*
X172725772Y-98998445D01*
X172706995Y-99043778D01*
X172683864Y-99087051D01*
X172656604Y-99127850D01*
X172625476Y-99165779D01*
X172590779Y-99200476D01*
X172552850Y-99231604D01*
X172512051Y-99258864D01*
X172468778Y-99281995D01*
X172423445Y-99300772D01*
X172376490Y-99315016D01*
X172328365Y-99324588D01*
X172279534Y-99329398D01*
X172255000Y-99329398D01*
X172255000Y-99330000D01*
X171755000Y-99330000D01*
X171755000Y-97830000D01*
X172255000Y-97830000D01*
X172255000Y-97830602D01*
G37*
G36*
X171455000Y-99330000D02*
G01*
X170955000Y-99330000D01*
X170955000Y-99329398D01*
X170930466Y-99329398D01*
X170881635Y-99324588D01*
X170833510Y-99315016D01*
X170786555Y-99300772D01*
X170741222Y-99281995D01*
X170697949Y-99258864D01*
X170657150Y-99231604D01*
X170619221Y-99200476D01*
X170584524Y-99165779D01*
X170553396Y-99127850D01*
X170526136Y-99087051D01*
X170503005Y-99043778D01*
X170484228Y-98998445D01*
X170469984Y-98951490D01*
X170460412Y-98903365D01*
X170455602Y-98854534D01*
X170455602Y-98830000D01*
X170455000Y-98830000D01*
X170455000Y-98330000D01*
X170455602Y-98330000D01*
X170455602Y-98305466D01*
X170460412Y-98256635D01*
X170469984Y-98208510D01*
X170484228Y-98161555D01*
X170503005Y-98116222D01*
X170526136Y-98072949D01*
X170553396Y-98032150D01*
X170584524Y-97994221D01*
X170619221Y-97959524D01*
X170657150Y-97928396D01*
X170697949Y-97901136D01*
X170741222Y-97878005D01*
X170786555Y-97859228D01*
X170833510Y-97844984D01*
X170881635Y-97835412D01*
X170930466Y-97830602D01*
X170955000Y-97830602D01*
X170955000Y-97830000D01*
X171455000Y-97830000D01*
X171455000Y-99330000D01*
G37*
%TD*%
%TO.C,JP7*%
G36*
X175265000Y-101235000D02*
G01*
X174765000Y-101235000D01*
X174765000Y-101234398D01*
X174740466Y-101234398D01*
X174691635Y-101229588D01*
X174643510Y-101220016D01*
X174596555Y-101205772D01*
X174551222Y-101186995D01*
X174507949Y-101163864D01*
X174467150Y-101136604D01*
X174429221Y-101105476D01*
X174394524Y-101070779D01*
X174363396Y-101032850D01*
X174336136Y-100992051D01*
X174313005Y-100948778D01*
X174294228Y-100903445D01*
X174279984Y-100856490D01*
X174270412Y-100808365D01*
X174265602Y-100759534D01*
X174265602Y-100735000D01*
X174265000Y-100735000D01*
X174265000Y-100235000D01*
X174265602Y-100235000D01*
X174265602Y-100210466D01*
X174270412Y-100161635D01*
X174279984Y-100113510D01*
X174294228Y-100066555D01*
X174313005Y-100021222D01*
X174336136Y-99977949D01*
X174363396Y-99937150D01*
X174394524Y-99899221D01*
X174429221Y-99864524D01*
X174467150Y-99833396D01*
X174507949Y-99806136D01*
X174551222Y-99783005D01*
X174596555Y-99764228D01*
X174643510Y-99749984D01*
X174691635Y-99740412D01*
X174740466Y-99735602D01*
X174765000Y-99735602D01*
X174765000Y-99735000D01*
X175265000Y-99735000D01*
X175265000Y-101235000D01*
G37*
G36*
X176065000Y-99735602D02*
G01*
X176089534Y-99735602D01*
X176138365Y-99740412D01*
X176186490Y-99749984D01*
X176233445Y-99764228D01*
X176278778Y-99783005D01*
X176322051Y-99806136D01*
X176362850Y-99833396D01*
X176400779Y-99864524D01*
X176435476Y-99899221D01*
X176466604Y-99937150D01*
X176493864Y-99977949D01*
X176516995Y-100021222D01*
X176535772Y-100066555D01*
X176550016Y-100113510D01*
X176559588Y-100161635D01*
X176564398Y-100210466D01*
X176564398Y-100235000D01*
X176565000Y-100235000D01*
X176565000Y-100735000D01*
X176564398Y-100735000D01*
X176564398Y-100759534D01*
X176559588Y-100808365D01*
X176550016Y-100856490D01*
X176535772Y-100903445D01*
X176516995Y-100948778D01*
X176493864Y-100992051D01*
X176466604Y-101032850D01*
X176435476Y-101070779D01*
X176400779Y-101105476D01*
X176362850Y-101136604D01*
X176322051Y-101163864D01*
X176278778Y-101186995D01*
X176233445Y-101205772D01*
X176186490Y-101220016D01*
X176138365Y-101229588D01*
X176089534Y-101234398D01*
X176065000Y-101234398D01*
X176065000Y-101235000D01*
X175565000Y-101235000D01*
X175565000Y-99735000D01*
X176065000Y-99735000D01*
X176065000Y-99735602D01*
G37*
%TD*%
%TO.C,JP6*%
G36*
X175565000Y-102275000D02*
G01*
X176065000Y-102275000D01*
X176065000Y-102275602D01*
X176089534Y-102275602D01*
X176138365Y-102280412D01*
X176186490Y-102289984D01*
X176233445Y-102304228D01*
X176278778Y-102323005D01*
X176322051Y-102346136D01*
X176362850Y-102373396D01*
X176400779Y-102404524D01*
X176435476Y-102439221D01*
X176466604Y-102477150D01*
X176493864Y-102517949D01*
X176516995Y-102561222D01*
X176535772Y-102606555D01*
X176550016Y-102653510D01*
X176559588Y-102701635D01*
X176564398Y-102750466D01*
X176564398Y-102775000D01*
X176565000Y-102775000D01*
X176565000Y-103275000D01*
X176564398Y-103275000D01*
X176564398Y-103299534D01*
X176559588Y-103348365D01*
X176550016Y-103396490D01*
X176535772Y-103443445D01*
X176516995Y-103488778D01*
X176493864Y-103532051D01*
X176466604Y-103572850D01*
X176435476Y-103610779D01*
X176400779Y-103645476D01*
X176362850Y-103676604D01*
X176322051Y-103703864D01*
X176278778Y-103726995D01*
X176233445Y-103745772D01*
X176186490Y-103760016D01*
X176138365Y-103769588D01*
X176089534Y-103774398D01*
X176065000Y-103774398D01*
X176065000Y-103775000D01*
X175565000Y-103775000D01*
X175565000Y-102275000D01*
G37*
G36*
X174765000Y-103774398D02*
G01*
X174740466Y-103774398D01*
X174691635Y-103769588D01*
X174643510Y-103760016D01*
X174596555Y-103745772D01*
X174551222Y-103726995D01*
X174507949Y-103703864D01*
X174467150Y-103676604D01*
X174429221Y-103645476D01*
X174394524Y-103610779D01*
X174363396Y-103572850D01*
X174336136Y-103532051D01*
X174313005Y-103488778D01*
X174294228Y-103443445D01*
X174279984Y-103396490D01*
X174270412Y-103348365D01*
X174265602Y-103299534D01*
X174265602Y-103275000D01*
X174265000Y-103275000D01*
X174265000Y-102775000D01*
X174265602Y-102775000D01*
X174265602Y-102750466D01*
X174270412Y-102701635D01*
X174279984Y-102653510D01*
X174294228Y-102606555D01*
X174313005Y-102561222D01*
X174336136Y-102517949D01*
X174363396Y-102477150D01*
X174394524Y-102439221D01*
X174429221Y-102404524D01*
X174467150Y-102373396D01*
X174507949Y-102346136D01*
X174551222Y-102323005D01*
X174596555Y-102304228D01*
X174643510Y-102289984D01*
X174691635Y-102280412D01*
X174740466Y-102275602D01*
X174765000Y-102275602D01*
X174765000Y-102275000D01*
X175265000Y-102275000D01*
X175265000Y-103775000D01*
X174765000Y-103775000D01*
X174765000Y-103774398D01*
G37*
%TD*%
D13*
%TO.C,D9*%
X147156000Y-142395000D03*
X148556000Y-142395000D03*
%TD*%
%TO.C,D8*%
X147156000Y-144300000D03*
X148556000Y-144300000D03*
%TD*%
%TO.C,R7*%
G36*
G01*
X161047500Y-127440000D02*
X160572500Y-127440000D01*
G75*
G02*
X160335000Y-127202500I0J237500D01*
G01*
X160335000Y-126627500D01*
G75*
G02*
X160572500Y-126390000I237500J0D01*
G01*
X161047500Y-126390000D01*
G75*
G02*
X161285000Y-126627500I0J-237500D01*
G01*
X161285000Y-127202500D01*
G75*
G02*
X161047500Y-127440000I-237500J0D01*
G01*
G37*
G36*
G01*
X161047500Y-129190000D02*
X160572500Y-129190000D01*
G75*
G02*
X160335000Y-128952500I0J237500D01*
G01*
X160335000Y-128377500D01*
G75*
G02*
X160572500Y-128140000I237500J0D01*
G01*
X161047500Y-128140000D01*
G75*
G02*
X161285000Y-128377500I0J-237500D01*
G01*
X161285000Y-128952500D01*
G75*
G02*
X161047500Y-129190000I-237500J0D01*
G01*
G37*
%TD*%
%TO.C,R6*%
G36*
G01*
X160572500Y-124330000D02*
X161047500Y-124330000D01*
G75*
G02*
X161285000Y-124567500I0J-237500D01*
G01*
X161285000Y-125142500D01*
G75*
G02*
X161047500Y-125380000I-237500J0D01*
G01*
X160572500Y-125380000D01*
G75*
G02*
X160335000Y-125142500I0J237500D01*
G01*
X160335000Y-124567500D01*
G75*
G02*
X160572500Y-124330000I237500J0D01*
G01*
G37*
G36*
G01*
X160572500Y-122580000D02*
X161047500Y-122580000D01*
G75*
G02*
X161285000Y-122817500I0J-237500D01*
G01*
X161285000Y-123392500D01*
G75*
G02*
X161047500Y-123630000I-237500J0D01*
G01*
X160572500Y-123630000D01*
G75*
G02*
X160335000Y-123392500I0J237500D01*
G01*
X160335000Y-122817500D01*
G75*
G02*
X160572500Y-122580000I237500J0D01*
G01*
G37*
%TD*%
%TO.C,R5*%
G36*
G01*
X118420001Y-145250000D02*
X115569999Y-145250000D01*
G75*
G02*
X115320000Y-145000001I0J249999D01*
G01*
X115320000Y-143974999D01*
G75*
G02*
X115569999Y-143725000I249999J0D01*
G01*
X118420001Y-143725000D01*
G75*
G02*
X118670000Y-143974999I0J-249999D01*
G01*
X118670000Y-145000001D01*
G75*
G02*
X118420001Y-145250000I-249999J0D01*
G01*
G37*
G36*
G01*
X118420001Y-151225000D02*
X115569999Y-151225000D01*
G75*
G02*
X115320000Y-150975001I0J249999D01*
G01*
X115320000Y-149949999D01*
G75*
G02*
X115569999Y-149700000I249999J0D01*
G01*
X118420001Y-149700000D01*
G75*
G02*
X118670000Y-149949999I0J-249999D01*
G01*
X118670000Y-150975001D01*
G75*
G02*
X118420001Y-151225000I-249999J0D01*
G01*
G37*
%TD*%
D19*
%TO.C,TP1*%
X127790000Y-135410000D03*
%TD*%
D20*
%TO.C,K2*%
X123595000Y-119885000D03*
X137795000Y-125885000D03*
X135795000Y-131885000D03*
X137795000Y-125885000D03*
X135795000Y-119885000D03*
X123595000Y-119885000D03*
%TD*%
D15*
%TO.C,J2*%
X146840000Y-115725000D03*
X144300000Y-115725000D03*
D14*
X141760000Y-115725000D03*
%TD*%
D15*
%TO.C,J3*%
X158270000Y-103025000D03*
X158270000Y-105565000D03*
X158270000Y-108105000D03*
D14*
X158270000Y-110645000D03*
%TD*%
D12*
%TO.C,JP5*%
G36*
X152669398Y-111915000D02*
G01*
X152669398Y-111939534D01*
X152664588Y-111988365D01*
X152655016Y-112036490D01*
X152640772Y-112083445D01*
X152621995Y-112128778D01*
X152598864Y-112172051D01*
X152571604Y-112212850D01*
X152540476Y-112250779D01*
X152505779Y-112285476D01*
X152467850Y-112316604D01*
X152427051Y-112343864D01*
X152383778Y-112366995D01*
X152338445Y-112385772D01*
X152291490Y-112400016D01*
X152243365Y-112409588D01*
X152194534Y-112414398D01*
X152170000Y-112414398D01*
X152170000Y-112415000D01*
X151670000Y-112415000D01*
X151670000Y-112414398D01*
X151645466Y-112414398D01*
X151596635Y-112409588D01*
X151548510Y-112400016D01*
X151501555Y-112385772D01*
X151456222Y-112366995D01*
X151412949Y-112343864D01*
X151372150Y-112316604D01*
X151334221Y-112285476D01*
X151299524Y-112250779D01*
X151268396Y-112212850D01*
X151241136Y-112172051D01*
X151218005Y-112128778D01*
X151199228Y-112083445D01*
X151184984Y-112036490D01*
X151175412Y-111988365D01*
X151170602Y-111939534D01*
X151170602Y-111915000D01*
X151170000Y-111915000D01*
X151170000Y-111415000D01*
X152670000Y-111415000D01*
X152670000Y-111915000D01*
X152669398Y-111915000D01*
G37*
G36*
X151170000Y-111115000D02*
G01*
X151170000Y-110615000D01*
X151170602Y-110615000D01*
X151170602Y-110590466D01*
X151175412Y-110541635D01*
X151184984Y-110493510D01*
X151199228Y-110446555D01*
X151218005Y-110401222D01*
X151241136Y-110357949D01*
X151268396Y-110317150D01*
X151299524Y-110279221D01*
X151334221Y-110244524D01*
X151372150Y-110213396D01*
X151412949Y-110186136D01*
X151456222Y-110163005D01*
X151501555Y-110144228D01*
X151548510Y-110129984D01*
X151596635Y-110120412D01*
X151645466Y-110115602D01*
X151670000Y-110115602D01*
X151670000Y-110115000D01*
X152170000Y-110115000D01*
X152170000Y-110115602D01*
X152194534Y-110115602D01*
X152243365Y-110120412D01*
X152291490Y-110129984D01*
X152338445Y-110144228D01*
X152383778Y-110163005D01*
X152427051Y-110186136D01*
X152467850Y-110213396D01*
X152505779Y-110244524D01*
X152540476Y-110279221D01*
X152571604Y-110317150D01*
X152598864Y-110357949D01*
X152621995Y-110401222D01*
X152640772Y-110446555D01*
X152655016Y-110493510D01*
X152664588Y-110541635D01*
X152669398Y-110590466D01*
X152669398Y-110615000D01*
X152670000Y-110615000D01*
X152670000Y-111115000D01*
X151170000Y-111115000D01*
G37*
%TD*%
%TO.C,JP4*%
G36*
X154345602Y-110645000D02*
G01*
X154345602Y-110620466D01*
X154350412Y-110571635D01*
X154359984Y-110523510D01*
X154374228Y-110476555D01*
X154393005Y-110431222D01*
X154416136Y-110387949D01*
X154443396Y-110347150D01*
X154474524Y-110309221D01*
X154509221Y-110274524D01*
X154547150Y-110243396D01*
X154587949Y-110216136D01*
X154631222Y-110193005D01*
X154676555Y-110174228D01*
X154723510Y-110159984D01*
X154771635Y-110150412D01*
X154820466Y-110145602D01*
X154845000Y-110145602D01*
X154845000Y-110145000D01*
X155345000Y-110145000D01*
X155345000Y-110145602D01*
X155369534Y-110145602D01*
X155418365Y-110150412D01*
X155466490Y-110159984D01*
X155513445Y-110174228D01*
X155558778Y-110193005D01*
X155602051Y-110216136D01*
X155642850Y-110243396D01*
X155680779Y-110274524D01*
X155715476Y-110309221D01*
X155746604Y-110347150D01*
X155773864Y-110387949D01*
X155796995Y-110431222D01*
X155815772Y-110476555D01*
X155830016Y-110523510D01*
X155839588Y-110571635D01*
X155844398Y-110620466D01*
X155844398Y-110645000D01*
X155845000Y-110645000D01*
X155845000Y-111145000D01*
X154345000Y-111145000D01*
X154345000Y-110645000D01*
X154345602Y-110645000D01*
G37*
G36*
X155845000Y-111445000D02*
G01*
X155845000Y-111945000D01*
X155844398Y-111945000D01*
X155844398Y-111969534D01*
X155839588Y-112018365D01*
X155830016Y-112066490D01*
X155815772Y-112113445D01*
X155796995Y-112158778D01*
X155773864Y-112202051D01*
X155746604Y-112242850D01*
X155715476Y-112280779D01*
X155680779Y-112315476D01*
X155642850Y-112346604D01*
X155602051Y-112373864D01*
X155558778Y-112396995D01*
X155513445Y-112415772D01*
X155466490Y-112430016D01*
X155418365Y-112439588D01*
X155369534Y-112444398D01*
X155345000Y-112444398D01*
X155345000Y-112445000D01*
X154845000Y-112445000D01*
X154845000Y-112444398D01*
X154820466Y-112444398D01*
X154771635Y-112439588D01*
X154723510Y-112430016D01*
X154676555Y-112415772D01*
X154631222Y-112396995D01*
X154587949Y-112373864D01*
X154547150Y-112346604D01*
X154509221Y-112315476D01*
X154474524Y-112280779D01*
X154443396Y-112242850D01*
X154416136Y-112202051D01*
X154393005Y-112158778D01*
X154374228Y-112113445D01*
X154359984Y-112066490D01*
X154350412Y-112018365D01*
X154345602Y-111969534D01*
X154345602Y-111945000D01*
X154345000Y-111945000D01*
X154345000Y-111445000D01*
X155845000Y-111445000D01*
G37*
%TD*%
D21*
%TO.C,D5*%
X168430000Y-104865000D03*
X168430000Y-106265000D03*
%TD*%
%TO.C,C5*%
G36*
G01*
X146020000Y-109825001D02*
X146020000Y-108924999D01*
G75*
G02*
X146269999Y-108675000I249999J0D01*
G01*
X146920001Y-108675000D01*
G75*
G02*
X147170000Y-108924999I0J-249999D01*
G01*
X147170000Y-109825001D01*
G75*
G02*
X146920001Y-110075000I-249999J0D01*
G01*
X146269999Y-110075000D01*
G75*
G02*
X146020000Y-109825001I0J249999D01*
G01*
G37*
G36*
G01*
X143970000Y-109825001D02*
X143970000Y-108924999D01*
G75*
G02*
X144219999Y-108675000I249999J0D01*
G01*
X144870001Y-108675000D01*
G75*
G02*
X145120000Y-108924999I0J-249999D01*
G01*
X145120000Y-109825001D01*
G75*
G02*
X144870001Y-110075000I-249999J0D01*
G01*
X144219999Y-110075000D01*
G75*
G02*
X143970000Y-109825001I0J249999D01*
G01*
G37*
%TD*%
%TO.C,U1*%
G36*
G01*
X157280000Y-124142500D02*
X157280000Y-123817500D01*
G75*
G02*
X157442500Y-123655000I162500J0D01*
G01*
X159092500Y-123655000D01*
G75*
G02*
X159255000Y-123817500I0J-162500D01*
G01*
X159255000Y-124142500D01*
G75*
G02*
X159092500Y-124305000I-162500J0D01*
G01*
X157442500Y-124305000D01*
G75*
G02*
X157280000Y-124142500I0J162500D01*
G01*
G37*
G36*
G01*
X157280000Y-125412500D02*
X157280000Y-125087500D01*
G75*
G02*
X157442500Y-124925000I162500J0D01*
G01*
X159092500Y-124925000D01*
G75*
G02*
X159255000Y-125087500I0J-162500D01*
G01*
X159255000Y-125412500D01*
G75*
G02*
X159092500Y-125575000I-162500J0D01*
G01*
X157442500Y-125575000D01*
G75*
G02*
X157280000Y-125412500I0J162500D01*
G01*
G37*
G36*
G01*
X157280000Y-126682500D02*
X157280000Y-126357500D01*
G75*
G02*
X157442500Y-126195000I162500J0D01*
G01*
X159092500Y-126195000D01*
G75*
G02*
X159255000Y-126357500I0J-162500D01*
G01*
X159255000Y-126682500D01*
G75*
G02*
X159092500Y-126845000I-162500J0D01*
G01*
X157442500Y-126845000D01*
G75*
G02*
X157280000Y-126682500I0J162500D01*
G01*
G37*
G36*
G01*
X157280000Y-127952500D02*
X157280000Y-127627500D01*
G75*
G02*
X157442500Y-127465000I162500J0D01*
G01*
X159092500Y-127465000D01*
G75*
G02*
X159255000Y-127627500I0J-162500D01*
G01*
X159255000Y-127952500D01*
G75*
G02*
X159092500Y-128115000I-162500J0D01*
G01*
X157442500Y-128115000D01*
G75*
G02*
X157280000Y-127952500I0J162500D01*
G01*
G37*
G36*
G01*
X152205000Y-127952500D02*
X152205000Y-127627500D01*
G75*
G02*
X152367500Y-127465000I162500J0D01*
G01*
X154017500Y-127465000D01*
G75*
G02*
X154180000Y-127627500I0J-162500D01*
G01*
X154180000Y-127952500D01*
G75*
G02*
X154017500Y-128115000I-162500J0D01*
G01*
X152367500Y-128115000D01*
G75*
G02*
X152205000Y-127952500I0J162500D01*
G01*
G37*
G36*
G01*
X152205000Y-126682500D02*
X152205000Y-126357500D01*
G75*
G02*
X152367500Y-126195000I162500J0D01*
G01*
X154017500Y-126195000D01*
G75*
G02*
X154180000Y-126357500I0J-162500D01*
G01*
X154180000Y-126682500D01*
G75*
G02*
X154017500Y-126845000I-162500J0D01*
G01*
X152367500Y-126845000D01*
G75*
G02*
X152205000Y-126682500I0J162500D01*
G01*
G37*
G36*
G01*
X152205000Y-125412500D02*
X152205000Y-125087500D01*
G75*
G02*
X152367500Y-124925000I162500J0D01*
G01*
X154017500Y-124925000D01*
G75*
G02*
X154180000Y-125087500I0J-162500D01*
G01*
X154180000Y-125412500D01*
G75*
G02*
X154017500Y-125575000I-162500J0D01*
G01*
X152367500Y-125575000D01*
G75*
G02*
X152205000Y-125412500I0J162500D01*
G01*
G37*
G36*
G01*
X152205000Y-124142500D02*
X152205000Y-123817500D01*
G75*
G02*
X152367500Y-123655000I162500J0D01*
G01*
X154017500Y-123655000D01*
G75*
G02*
X154180000Y-123817500I0J-162500D01*
G01*
X154180000Y-124142500D01*
G75*
G02*
X154017500Y-124305000I-162500J0D01*
G01*
X152367500Y-124305000D01*
G75*
G02*
X152205000Y-124142500I0J162500D01*
G01*
G37*
%TD*%
D12*
%TO.C,JP1*%
G36*
X150281000Y-121290000D02*
G01*
X150281000Y-120790000D01*
X150281602Y-120790000D01*
X150281602Y-120765466D01*
X150286412Y-120716635D01*
X150295984Y-120668510D01*
X150310228Y-120621555D01*
X150329005Y-120576222D01*
X150352136Y-120532949D01*
X150379396Y-120492150D01*
X150410524Y-120454221D01*
X150445221Y-120419524D01*
X150483150Y-120388396D01*
X150523949Y-120361136D01*
X150567222Y-120338005D01*
X150612555Y-120319228D01*
X150659510Y-120304984D01*
X150707635Y-120295412D01*
X150756466Y-120290602D01*
X150781000Y-120290602D01*
X150781000Y-120290000D01*
X151281000Y-120290000D01*
X151281000Y-120290602D01*
X151305534Y-120290602D01*
X151354365Y-120295412D01*
X151402490Y-120304984D01*
X151449445Y-120319228D01*
X151494778Y-120338005D01*
X151538051Y-120361136D01*
X151578850Y-120388396D01*
X151616779Y-120419524D01*
X151651476Y-120454221D01*
X151682604Y-120492150D01*
X151709864Y-120532949D01*
X151732995Y-120576222D01*
X151751772Y-120621555D01*
X151766016Y-120668510D01*
X151775588Y-120716635D01*
X151780398Y-120765466D01*
X151780398Y-120790000D01*
X151781000Y-120790000D01*
X151781000Y-121290000D01*
X150281000Y-121290000D01*
G37*
G36*
X151780398Y-122090000D02*
G01*
X151780398Y-122114534D01*
X151775588Y-122163365D01*
X151766016Y-122211490D01*
X151751772Y-122258445D01*
X151732995Y-122303778D01*
X151709864Y-122347051D01*
X151682604Y-122387850D01*
X151651476Y-122425779D01*
X151616779Y-122460476D01*
X151578850Y-122491604D01*
X151538051Y-122518864D01*
X151494778Y-122541995D01*
X151449445Y-122560772D01*
X151402490Y-122575016D01*
X151354365Y-122584588D01*
X151305534Y-122589398D01*
X151281000Y-122589398D01*
X151281000Y-122590000D01*
X150781000Y-122590000D01*
X150781000Y-122589398D01*
X150756466Y-122589398D01*
X150707635Y-122584588D01*
X150659510Y-122575016D01*
X150612555Y-122560772D01*
X150567222Y-122541995D01*
X150523949Y-122518864D01*
X150483150Y-122491604D01*
X150445221Y-122460476D01*
X150410524Y-122425779D01*
X150379396Y-122387850D01*
X150352136Y-122347051D01*
X150329005Y-122303778D01*
X150310228Y-122258445D01*
X150295984Y-122211490D01*
X150286412Y-122163365D01*
X150281602Y-122114534D01*
X150281602Y-122090000D01*
X150281000Y-122090000D01*
X150281000Y-121590000D01*
X151781000Y-121590000D01*
X151781000Y-122090000D01*
X151780398Y-122090000D01*
G37*
%TD*%
%TO.C,C4*%
G36*
G01*
X150887500Y-125535000D02*
X150412500Y-125535000D01*
G75*
G02*
X150175000Y-125297500I0J237500D01*
G01*
X150175000Y-124722500D01*
G75*
G02*
X150412500Y-124485000I237500J0D01*
G01*
X150887500Y-124485000D01*
G75*
G02*
X151125000Y-124722500I0J-237500D01*
G01*
X151125000Y-125297500D01*
G75*
G02*
X150887500Y-125535000I-237500J0D01*
G01*
G37*
G36*
G01*
X150887500Y-127285000D02*
X150412500Y-127285000D01*
G75*
G02*
X150175000Y-127047500I0J237500D01*
G01*
X150175000Y-126472500D01*
G75*
G02*
X150412500Y-126235000I237500J0D01*
G01*
X150887500Y-126235000D01*
G75*
G02*
X151125000Y-126472500I0J-237500D01*
G01*
X151125000Y-127047500D01*
G75*
G02*
X150887500Y-127285000I-237500J0D01*
G01*
G37*
%TD*%
%TO.C,C3*%
G36*
G01*
X156180000Y-122525001D02*
X156180000Y-121624999D01*
G75*
G02*
X156429999Y-121375000I249999J0D01*
G01*
X157080001Y-121375000D01*
G75*
G02*
X157330000Y-121624999I0J-249999D01*
G01*
X157330000Y-122525001D01*
G75*
G02*
X157080001Y-122775000I-249999J0D01*
G01*
X156429999Y-122775000D01*
G75*
G02*
X156180000Y-122525001I0J249999D01*
G01*
G37*
G36*
G01*
X154130000Y-122525001D02*
X154130000Y-121624999D01*
G75*
G02*
X154379999Y-121375000I249999J0D01*
G01*
X155030001Y-121375000D01*
G75*
G02*
X155280000Y-121624999I0J-249999D01*
G01*
X155280000Y-122525001D01*
G75*
G02*
X155030001Y-122775000I-249999J0D01*
G01*
X154379999Y-122775000D01*
G75*
G02*
X154130000Y-122525001I0J249999D01*
G01*
G37*
%TD*%
%TO.C,R4*%
G36*
G01*
X170572500Y-101405000D02*
X170097500Y-101405000D01*
G75*
G02*
X169860000Y-101167500I0J237500D01*
G01*
X169860000Y-100592500D01*
G75*
G02*
X170097500Y-100355000I237500J0D01*
G01*
X170572500Y-100355000D01*
G75*
G02*
X170810000Y-100592500I0J-237500D01*
G01*
X170810000Y-101167500D01*
G75*
G02*
X170572500Y-101405000I-237500J0D01*
G01*
G37*
G36*
G01*
X170572500Y-103155000D02*
X170097500Y-103155000D01*
G75*
G02*
X169860000Y-102917500I0J237500D01*
G01*
X169860000Y-102342500D01*
G75*
G02*
X170097500Y-102105000I237500J0D01*
G01*
X170572500Y-102105000D01*
G75*
G02*
X170810000Y-102342500I0J-237500D01*
G01*
X170810000Y-102917500D01*
G75*
G02*
X170572500Y-103155000I-237500J0D01*
G01*
G37*
%TD*%
%TO.C,R3*%
G36*
G01*
X168192500Y-102105000D02*
X168667500Y-102105000D01*
G75*
G02*
X168905000Y-102342500I0J-237500D01*
G01*
X168905000Y-102917500D01*
G75*
G02*
X168667500Y-103155000I-237500J0D01*
G01*
X168192500Y-103155000D01*
G75*
G02*
X167955000Y-102917500I0J237500D01*
G01*
X167955000Y-102342500D01*
G75*
G02*
X168192500Y-102105000I237500J0D01*
G01*
G37*
G36*
G01*
X168192500Y-100355000D02*
X168667500Y-100355000D01*
G75*
G02*
X168905000Y-100592500I0J-237500D01*
G01*
X168905000Y-101167500D01*
G75*
G02*
X168667500Y-101405000I-237500J0D01*
G01*
X168192500Y-101405000D01*
G75*
G02*
X167955000Y-101167500I0J237500D01*
G01*
X167955000Y-100592500D01*
G75*
G02*
X168192500Y-100355000I237500J0D01*
G01*
G37*
%TD*%
%TO.C,R2*%
G36*
G01*
X180892500Y-104010000D02*
X181367500Y-104010000D01*
G75*
G02*
X181605000Y-104247500I0J-237500D01*
G01*
X181605000Y-104822500D01*
G75*
G02*
X181367500Y-105060000I-237500J0D01*
G01*
X180892500Y-105060000D01*
G75*
G02*
X180655000Y-104822500I0J237500D01*
G01*
X180655000Y-104247500D01*
G75*
G02*
X180892500Y-104010000I237500J0D01*
G01*
G37*
G36*
G01*
X180892500Y-102260000D02*
X181367500Y-102260000D01*
G75*
G02*
X181605000Y-102497500I0J-237500D01*
G01*
X181605000Y-103072500D01*
G75*
G02*
X181367500Y-103310000I-237500J0D01*
G01*
X180892500Y-103310000D01*
G75*
G02*
X180655000Y-103072500I0J237500D01*
G01*
X180655000Y-102497500D01*
G75*
G02*
X180892500Y-102260000I237500J0D01*
G01*
G37*
%TD*%
%TO.C,R1*%
G36*
G01*
X145220000Y-107232500D02*
X145220000Y-107707500D01*
G75*
G02*
X144982500Y-107945000I-237500J0D01*
G01*
X144407500Y-107945000D01*
G75*
G02*
X144170000Y-107707500I0J237500D01*
G01*
X144170000Y-107232500D01*
G75*
G02*
X144407500Y-106995000I237500J0D01*
G01*
X144982500Y-106995000D01*
G75*
G02*
X145220000Y-107232500I0J-237500D01*
G01*
G37*
G36*
G01*
X146970000Y-107232500D02*
X146970000Y-107707500D01*
G75*
G02*
X146732500Y-107945000I-237500J0D01*
G01*
X146157500Y-107945000D01*
G75*
G02*
X145920000Y-107707500I0J237500D01*
G01*
X145920000Y-107232500D01*
G75*
G02*
X146157500Y-106995000I237500J0D01*
G01*
X146732500Y-106995000D01*
G75*
G02*
X146970000Y-107232500I0J-237500D01*
G01*
G37*
%TD*%
%TO.C,C2*%
G36*
G01*
X172477500Y-101405000D02*
X172002500Y-101405000D01*
G75*
G02*
X171765000Y-101167500I0J237500D01*
G01*
X171765000Y-100592500D01*
G75*
G02*
X172002500Y-100355000I237500J0D01*
G01*
X172477500Y-100355000D01*
G75*
G02*
X172715000Y-100592500I0J-237500D01*
G01*
X172715000Y-101167500D01*
G75*
G02*
X172477500Y-101405000I-237500J0D01*
G01*
G37*
G36*
G01*
X172477500Y-103155000D02*
X172002500Y-103155000D01*
G75*
G02*
X171765000Y-102917500I0J237500D01*
G01*
X171765000Y-102342500D01*
G75*
G02*
X172002500Y-102105000I237500J0D01*
G01*
X172477500Y-102105000D01*
G75*
G02*
X172715000Y-102342500I0J-237500D01*
G01*
X172715000Y-102917500D01*
G75*
G02*
X172477500Y-103155000I-237500J0D01*
G01*
G37*
%TD*%
%TO.C,C1*%
G36*
G01*
X179462500Y-103310000D02*
X178987500Y-103310000D01*
G75*
G02*
X178750000Y-103072500I0J237500D01*
G01*
X178750000Y-102497500D01*
G75*
G02*
X178987500Y-102260000I237500J0D01*
G01*
X179462500Y-102260000D01*
G75*
G02*
X179700000Y-102497500I0J-237500D01*
G01*
X179700000Y-103072500D01*
G75*
G02*
X179462500Y-103310000I-237500J0D01*
G01*
G37*
G36*
G01*
X179462500Y-105060000D02*
X178987500Y-105060000D01*
G75*
G02*
X178750000Y-104822500I0J237500D01*
G01*
X178750000Y-104247500D01*
G75*
G02*
X178987500Y-104010000I237500J0D01*
G01*
X179462500Y-104010000D01*
G75*
G02*
X179700000Y-104247500I0J-237500D01*
G01*
X179700000Y-104822500D01*
G75*
G02*
X179462500Y-105060000I-237500J0D01*
G01*
G37*
%TD*%
D22*
%TO.C,T1*%
X140744000Y-137315000D03*
X140744000Y-150015000D03*
%TD*%
D23*
%TO.C,REF\u002A\u002A*%
X110467000Y-99285000D03*
%TD*%
%TO.C,REF\u002A\u002A*%
X150417000Y-99135000D03*
%TD*%
%TO.C,REF\u002A\u002A*%
X150667000Y-149235000D03*
%TD*%
D24*
%TO.C,J1*%
X110729000Y-137230000D03*
X110729000Y-128980000D03*
X110729000Y-120730000D03*
X110729000Y-112480000D03*
%TD*%
D25*
%TO.C,K1*%
X126551000Y-130256000D03*
X121551000Y-130256000D03*
X121551000Y-122756000D03*
X126551000Y-122756000D03*
X146551000Y-122756000D03*
X146551000Y-130256000D03*
%TD*%
D26*
%TO.C,T2*%
X138676000Y-108559000D03*
X138676000Y-103559000D03*
X123676000Y-98559000D03*
X123676000Y-113559000D03*
%TD*%
D27*
%TO.C,P1*%
X150607000Y-117438200D03*
X153147000Y-117438200D03*
X155687000Y-117438200D03*
X158227000Y-117438200D03*
X158227000Y-114898200D03*
X155687000Y-114898200D03*
X153147000Y-114898200D03*
D14*
X150607000Y-114898200D03*
%TD*%
D23*
%TO.C,REF\u002A\u002A*%
X110427000Y-149075000D03*
%TD*%
%TO.C,R53*%
G36*
G01*
X181494500Y-98992000D02*
X181019500Y-98992000D01*
G75*
G02*
X180782000Y-98754500I0J237500D01*
G01*
X180782000Y-98179500D01*
G75*
G02*
X181019500Y-97942000I237500J0D01*
G01*
X181494500Y-97942000D01*
G75*
G02*
X181732000Y-98179500I0J-237500D01*
G01*
X181732000Y-98754500D01*
G75*
G02*
X181494500Y-98992000I-237500J0D01*
G01*
G37*
G36*
G01*
X181494500Y-100742000D02*
X181019500Y-100742000D01*
G75*
G02*
X180782000Y-100504500I0J237500D01*
G01*
X180782000Y-99929500D01*
G75*
G02*
X181019500Y-99692000I237500J0D01*
G01*
X181494500Y-99692000D01*
G75*
G02*
X181732000Y-99929500I0J-237500D01*
G01*
X181732000Y-100504500D01*
G75*
G02*
X181494500Y-100742000I-237500J0D01*
G01*
G37*
%TD*%
%TO.C,R52*%
G36*
G01*
X181494500Y-95309000D02*
X181019500Y-95309000D01*
G75*
G02*
X180782000Y-95071500I0J237500D01*
G01*
X180782000Y-94496500D01*
G75*
G02*
X181019500Y-94259000I237500J0D01*
G01*
X181494500Y-94259000D01*
G75*
G02*
X181732000Y-94496500I0J-237500D01*
G01*
X181732000Y-95071500D01*
G75*
G02*
X181494500Y-95309000I-237500J0D01*
G01*
G37*
G36*
G01*
X181494500Y-97059000D02*
X181019500Y-97059000D01*
G75*
G02*
X180782000Y-96821500I0J237500D01*
G01*
X180782000Y-96246500D01*
G75*
G02*
X181019500Y-96009000I237500J0D01*
G01*
X181494500Y-96009000D01*
G75*
G02*
X181732000Y-96246500I0J-237500D01*
G01*
X181732000Y-96821500D01*
G75*
G02*
X181494500Y-97059000I-237500J0D01*
G01*
G37*
%TD*%
M02*
