M48
; DRILL file {KiCad 5.1.9-1.fc32} date Sun Apr 18 22:57:24 2021
; FORMAT={-:-/ absolute / inch / decimal}
; #@! TF.CreationDate,2021-04-18T22:57:24+02:00
; #@! TF.GenerationSoftware,Kicad,Pcbnew,5.1.9-1.fc32
FMAT,2
INCH
T1C0.0079
T2C0.0157
T3C0.0197
T4C0.0315
T5C0.0394
T6C0.0512
T7C0.0591
T8C0.0866
T9C0.1260
%
G90
G05
T1
X5.6911Y-5.2811
X5.9811Y-4.3311
X6.0011Y-5.5861
X6.0311Y-5.6711
X6.0609Y-5.3608
X6.1061Y-4.3311
X6.1272Y-5.6361
X6.1403Y-5.7771
X6.1411Y-5.8511
X6.1661Y-6.0411
X6.1859Y-5.7111
X6.1961Y-5.6799
X6.2361Y-5.8461
X6.2397Y-5.9189
X6.2411Y-6.0411
X6.2486Y-5.7944
X6.2561Y-5.6311
X6.2611Y-5.7361
X6.3361Y-5.7111
X6.3717Y-5.7661
X6.3911Y-5.6461
X6.4111Y-5.9711
X6.4173Y-5.7824
X6.4294Y-5.7011
X6.4482Y-5.8198
X6.4561Y-3.7811
X6.4819Y-5.7961
X6.5711Y-5.7411
X6.5777Y-3.7811
X6.5811Y-3.9561
X6.5811Y-4.2061
X6.6211Y-5.8961
X6.6561Y-3.9811
X6.6811Y-5.6711
X6.7611Y-5.7011
X6.8301Y-5.917
X6.9398Y-5.8498
X6.9411Y-5.4961
X7.0011Y-5.5011
X7.0061Y-5.2277
X7.0103Y-5.1303
X7.0311Y-3.7811
X7.1411Y-5.2461
X7.1511Y-5.3061
X7.1911Y-5.2761
T2
X4.1561Y-5.7561
X4.1811Y-3.9811
X4.4561Y-6.0061
X4.5311Y-4.1311
X5.0811Y-4.0311
X5.0811Y-5.9311
X5.1311Y-4.5561
X5.2561Y-5.3561
X5.3311Y-4.8311
X5.3311Y-5.0811
X5.6061Y-4.2561
X5.6961Y-5.8011
X5.7011Y-5.4561
X5.8161Y-4.9361
X5.8311Y-4.2811
X5.8311Y-5.2061
X5.8511Y-5.5011
X5.8811Y-4.6811
X5.8811Y-4.8061
X5.9061Y-5.0284
X5.9511Y-5.6461
X5.9561Y-4.7311
X5.9861Y-6.0311
X6.0311Y-5.7411
X6.1061Y-3.9311
X6.1311Y-5.0061
X6.2526Y-4.8096
X6.2661Y-5.0961
X6.3011Y-5.4311
X6.3311Y-4.0561
X6.3311Y-4.7811
X6.3811Y-5.5911
X6.3961Y-5.0561
X6.4061Y-4.0061
X6.4561Y-4.2311
X6.5461Y-5.8261
X6.5511Y-5.6511
X6.6061Y-5.4811
X6.6311Y-4.9311
X6.7011Y-5.1861
X6.7811Y-5.0311
X6.8561Y-3.7311
X6.8611Y-5.5211
X6.8811Y-4.2061
X7.0311Y-3.9311
X7.0311Y-5.3611
X7.0761Y-5.9261
X7.1011Y-5.5311
X7.1711Y-4.6511
T3
X5.2761Y-4.6161
X5.3011Y-5.2811
X5.7461Y-5.2161
X5.7711Y-4.7461
T4
X4.9561Y-5.6061
X4.9561Y-5.7061
X4.9561Y-5.8561
X4.9561Y-5.9561
X5.2561Y-5.6061
X5.2561Y-5.7061
X5.2561Y-5.8561
X5.2561Y-5.9561
X5.5411Y-5.4061
X5.5411Y-5.9061
T5
X5.5811Y-4.5561
X5.6811Y-4.5561
X5.7811Y-4.5561
X5.9294Y-4.5236
X5.9294Y-4.6236
X6.0294Y-4.5236
X6.0294Y-4.6236
X6.1294Y-4.5236
X6.1294Y-4.6236
X6.2294Y-4.5236
X6.2294Y-4.6236
X6.2311Y-4.0561
X6.2311Y-4.1561
X6.2311Y-4.2561
X6.2311Y-4.3561
X6.5211Y-3.7261
X6.5211Y-3.8261
X6.5211Y-3.9261
X6.5211Y-4.0261
X6.5211Y-4.1261
X6.5211Y-4.2261
X6.5211Y-4.3261
X6.5211Y-4.4261
X6.5211Y-4.5261
X6.5211Y-4.7261
X6.5211Y-4.8261
X6.5211Y-4.9261
X6.5211Y-5.0261
X6.5211Y-5.1261
X6.5211Y-5.2261
X6.5211Y-5.3261
X6.5211Y-5.4261
X7.2211Y-3.7261
X7.2211Y-3.8261
X7.2211Y-3.9261
X7.2211Y-4.0261
X7.2211Y-4.1261
X7.2211Y-4.2261
X7.2211Y-4.3261
X7.2211Y-4.4261
X7.2211Y-4.5261
X7.2211Y-4.7261
X7.2211Y-4.8261
X7.2211Y-4.9261
X7.2211Y-5.0261
X7.2211Y-5.1261
X7.2211Y-5.2261
X7.2211Y-5.3261
X7.2211Y-5.4261
T6
X4.7855Y-4.8329
X4.7855Y-5.1282
X4.8659Y-4.7199
X4.8659Y-4.7199
X4.8691Y-3.8803
X4.8691Y-4.4708
X4.9823Y-4.8329
X4.9823Y-5.1282
X5.3463Y-4.7199
X5.3463Y-5.1923
X5.425Y-4.9561
X5.425Y-4.9561
X5.4597Y-4.0771
X5.4597Y-4.274
X5.7697Y-4.8329
X5.7697Y-5.1282
T7
X4.7361Y-5.5561
X5.0311Y-5.3311
T8
X4.3594Y-4.4283
X4.3594Y-4.7531
X4.3594Y-5.078
X4.3594Y-5.4028
T9
X4.3475Y-5.8691
X4.3491Y-3.9089
X5.9219Y-3.903
X5.9318Y-5.8754
T0
M30
