%TF.GenerationSoftware,KiCad,Pcbnew,5.1.9-1.fc32*%
%TF.CreationDate,2021-04-18T22:57:20+02:00*%
%TF.ProjectId,energy-meter,656e6572-6779-42d6-9d65-7465722e6b69,rev?*%
%TF.SameCoordinates,Original*%
%TF.FileFunction,Paste,Top*%
%TF.FilePolarity,Positive*%
%FSLAX46Y46*%
G04 Gerber Fmt 4.6, Leading zero omitted, Abs format (unit mm)*
G04 Created by KiCad (PCBNEW 5.1.9-1.fc32) date 2021-04-18 22:57:20*
%MOMM*%
%LPD*%
G01*
G04 APERTURE LIST*
%ADD10R,0.600000X0.700000*%
%ADD11R,1.060000X0.650000*%
%ADD12R,0.700000X0.600000*%
G04 APERTURE END LIST*
D10*
%TO.C,D6*%
X147218000Y-140617000D03*
X148618000Y-140617000D03*
%TD*%
D11*
%TO.C,U12*%
X168980000Y-152174000D03*
X168980000Y-154074000D03*
X166780000Y-154074000D03*
X166780000Y-153124000D03*
X166780000Y-152174000D03*
%TD*%
%TO.C,U11*%
X176515000Y-150650000D03*
X176515000Y-149700000D03*
X176515000Y-151600000D03*
X174315000Y-151600000D03*
X174315000Y-150650000D03*
X174315000Y-149700000D03*
%TD*%
%TO.C,U10*%
X156027000Y-146012000D03*
X156027000Y-144112000D03*
X158227000Y-144112000D03*
X158227000Y-145062000D03*
X158227000Y-146012000D03*
%TD*%
%TO.C,U8*%
X152385000Y-143411000D03*
X152385000Y-142461000D03*
X152385000Y-144361000D03*
X150185000Y-144361000D03*
X150185000Y-143411000D03*
X150185000Y-142461000D03*
%TD*%
%TO.C,U7*%
G36*
G01*
X172216000Y-143942000D02*
X172216000Y-143642000D01*
G75*
G02*
X172366000Y-143492000I150000J0D01*
G01*
X174016000Y-143492000D01*
G75*
G02*
X174166000Y-143642000I0J-150000D01*
G01*
X174166000Y-143942000D01*
G75*
G02*
X174016000Y-144092000I-150000J0D01*
G01*
X172366000Y-144092000D01*
G75*
G02*
X172216000Y-143942000I0J150000D01*
G01*
G37*
G36*
G01*
X172216000Y-145212000D02*
X172216000Y-144912000D01*
G75*
G02*
X172366000Y-144762000I150000J0D01*
G01*
X174016000Y-144762000D01*
G75*
G02*
X174166000Y-144912000I0J-150000D01*
G01*
X174166000Y-145212000D01*
G75*
G02*
X174016000Y-145362000I-150000J0D01*
G01*
X172366000Y-145362000D01*
G75*
G02*
X172216000Y-145212000I0J150000D01*
G01*
G37*
G36*
G01*
X172216000Y-146482000D02*
X172216000Y-146182000D01*
G75*
G02*
X172366000Y-146032000I150000J0D01*
G01*
X174016000Y-146032000D01*
G75*
G02*
X174166000Y-146182000I0J-150000D01*
G01*
X174166000Y-146482000D01*
G75*
G02*
X174016000Y-146632000I-150000J0D01*
G01*
X172366000Y-146632000D01*
G75*
G02*
X172216000Y-146482000I0J150000D01*
G01*
G37*
G36*
G01*
X172216000Y-147752000D02*
X172216000Y-147452000D01*
G75*
G02*
X172366000Y-147302000I150000J0D01*
G01*
X174016000Y-147302000D01*
G75*
G02*
X174166000Y-147452000I0J-150000D01*
G01*
X174166000Y-147752000D01*
G75*
G02*
X174016000Y-147902000I-150000J0D01*
G01*
X172366000Y-147902000D01*
G75*
G02*
X172216000Y-147752000I0J150000D01*
G01*
G37*
G36*
G01*
X167266000Y-147752000D02*
X167266000Y-147452000D01*
G75*
G02*
X167416000Y-147302000I150000J0D01*
G01*
X169066000Y-147302000D01*
G75*
G02*
X169216000Y-147452000I0J-150000D01*
G01*
X169216000Y-147752000D01*
G75*
G02*
X169066000Y-147902000I-150000J0D01*
G01*
X167416000Y-147902000D01*
G75*
G02*
X167266000Y-147752000I0J150000D01*
G01*
G37*
G36*
G01*
X167266000Y-146482000D02*
X167266000Y-146182000D01*
G75*
G02*
X167416000Y-146032000I150000J0D01*
G01*
X169066000Y-146032000D01*
G75*
G02*
X169216000Y-146182000I0J-150000D01*
G01*
X169216000Y-146482000D01*
G75*
G02*
X169066000Y-146632000I-150000J0D01*
G01*
X167416000Y-146632000D01*
G75*
G02*
X167266000Y-146482000I0J150000D01*
G01*
G37*
G36*
G01*
X167266000Y-145212000D02*
X167266000Y-144912000D01*
G75*
G02*
X167416000Y-144762000I150000J0D01*
G01*
X169066000Y-144762000D01*
G75*
G02*
X169216000Y-144912000I0J-150000D01*
G01*
X169216000Y-145212000D01*
G75*
G02*
X169066000Y-145362000I-150000J0D01*
G01*
X167416000Y-145362000D01*
G75*
G02*
X167266000Y-145212000I0J150000D01*
G01*
G37*
G36*
G01*
X167266000Y-143942000D02*
X167266000Y-143642000D01*
G75*
G02*
X167416000Y-143492000I150000J0D01*
G01*
X169066000Y-143492000D01*
G75*
G02*
X169216000Y-143642000I0J-150000D01*
G01*
X169216000Y-143942000D01*
G75*
G02*
X169066000Y-144092000I-150000J0D01*
G01*
X167416000Y-144092000D01*
G75*
G02*
X167266000Y-143942000I0J150000D01*
G01*
G37*
%TD*%
%TO.C,R27*%
G36*
G01*
X175827000Y-145967500D02*
X175827000Y-146442500D01*
G75*
G02*
X175589500Y-146680000I-237500J0D01*
G01*
X175014500Y-146680000D01*
G75*
G02*
X174777000Y-146442500I0J237500D01*
G01*
X174777000Y-145967500D01*
G75*
G02*
X175014500Y-145730000I237500J0D01*
G01*
X175589500Y-145730000D01*
G75*
G02*
X175827000Y-145967500I0J-237500D01*
G01*
G37*
G36*
G01*
X177577000Y-145967500D02*
X177577000Y-146442500D01*
G75*
G02*
X177339500Y-146680000I-237500J0D01*
G01*
X176764500Y-146680000D01*
G75*
G02*
X176527000Y-146442500I0J237500D01*
G01*
X176527000Y-145967500D01*
G75*
G02*
X176764500Y-145730000I237500J0D01*
G01*
X177339500Y-145730000D01*
G75*
G02*
X177577000Y-145967500I0J-237500D01*
G01*
G37*
%TD*%
%TO.C,R26*%
G36*
G01*
X172082000Y-149490500D02*
X172082000Y-149015500D01*
G75*
G02*
X172319500Y-148778000I237500J0D01*
G01*
X172894500Y-148778000D01*
G75*
G02*
X173132000Y-149015500I0J-237500D01*
G01*
X173132000Y-149490500D01*
G75*
G02*
X172894500Y-149728000I-237500J0D01*
G01*
X172319500Y-149728000D01*
G75*
G02*
X172082000Y-149490500I0J237500D01*
G01*
G37*
G36*
G01*
X170332000Y-149490500D02*
X170332000Y-149015500D01*
G75*
G02*
X170569500Y-148778000I237500J0D01*
G01*
X171144500Y-148778000D01*
G75*
G02*
X171382000Y-149015500I0J-237500D01*
G01*
X171382000Y-149490500D01*
G75*
G02*
X171144500Y-149728000I-237500J0D01*
G01*
X170569500Y-149728000D01*
G75*
G02*
X170332000Y-149490500I0J237500D01*
G01*
G37*
%TD*%
%TO.C,R25*%
G36*
G01*
X172082000Y-151141500D02*
X172082000Y-150666500D01*
G75*
G02*
X172319500Y-150429000I237500J0D01*
G01*
X172894500Y-150429000D01*
G75*
G02*
X173132000Y-150666500I0J-237500D01*
G01*
X173132000Y-151141500D01*
G75*
G02*
X172894500Y-151379000I-237500J0D01*
G01*
X172319500Y-151379000D01*
G75*
G02*
X172082000Y-151141500I0J237500D01*
G01*
G37*
G36*
G01*
X170332000Y-151141500D02*
X170332000Y-150666500D01*
G75*
G02*
X170569500Y-150429000I237500J0D01*
G01*
X171144500Y-150429000D01*
G75*
G02*
X171382000Y-150666500I0J-237500D01*
G01*
X171382000Y-151141500D01*
G75*
G02*
X171144500Y-151379000I-237500J0D01*
G01*
X170569500Y-151379000D01*
G75*
G02*
X170332000Y-151141500I0J237500D01*
G01*
G37*
%TD*%
%TO.C,R24*%
G36*
G01*
X175638000Y-154443500D02*
X175638000Y-153968500D01*
G75*
G02*
X175875500Y-153731000I237500J0D01*
G01*
X176450500Y-153731000D01*
G75*
G02*
X176688000Y-153968500I0J-237500D01*
G01*
X176688000Y-154443500D01*
G75*
G02*
X176450500Y-154681000I-237500J0D01*
G01*
X175875500Y-154681000D01*
G75*
G02*
X175638000Y-154443500I0J237500D01*
G01*
G37*
G36*
G01*
X173888000Y-154443500D02*
X173888000Y-153968500D01*
G75*
G02*
X174125500Y-153731000I237500J0D01*
G01*
X174700500Y-153731000D01*
G75*
G02*
X174938000Y-153968500I0J-237500D01*
G01*
X174938000Y-154443500D01*
G75*
G02*
X174700500Y-154681000I-237500J0D01*
G01*
X174125500Y-154681000D01*
G75*
G02*
X173888000Y-154443500I0J237500D01*
G01*
G37*
%TD*%
%TO.C,R23*%
G36*
G01*
X165238500Y-152967000D02*
X164763500Y-152967000D01*
G75*
G02*
X164526000Y-152729500I0J237500D01*
G01*
X164526000Y-152154500D01*
G75*
G02*
X164763500Y-151917000I237500J0D01*
G01*
X165238500Y-151917000D01*
G75*
G02*
X165476000Y-152154500I0J-237500D01*
G01*
X165476000Y-152729500D01*
G75*
G02*
X165238500Y-152967000I-237500J0D01*
G01*
G37*
G36*
G01*
X165238500Y-154717000D02*
X164763500Y-154717000D01*
G75*
G02*
X164526000Y-154479500I0J237500D01*
G01*
X164526000Y-153904500D01*
G75*
G02*
X164763500Y-153667000I237500J0D01*
G01*
X165238500Y-153667000D01*
G75*
G02*
X165476000Y-153904500I0J-237500D01*
G01*
X165476000Y-154479500D01*
G75*
G02*
X165238500Y-154717000I-237500J0D01*
G01*
G37*
%TD*%
%TO.C,R22*%
G36*
G01*
X163508000Y-150031500D02*
X163508000Y-150506500D01*
G75*
G02*
X163270500Y-150744000I-237500J0D01*
G01*
X162695500Y-150744000D01*
G75*
G02*
X162458000Y-150506500I0J237500D01*
G01*
X162458000Y-150031500D01*
G75*
G02*
X162695500Y-149794000I237500J0D01*
G01*
X163270500Y-149794000D01*
G75*
G02*
X163508000Y-150031500I0J-237500D01*
G01*
G37*
G36*
G01*
X165258000Y-150031500D02*
X165258000Y-150506500D01*
G75*
G02*
X165020500Y-150744000I-237500J0D01*
G01*
X164445500Y-150744000D01*
G75*
G02*
X164208000Y-150506500I0J237500D01*
G01*
X164208000Y-150031500D01*
G75*
G02*
X164445500Y-149794000I237500J0D01*
G01*
X165020500Y-149794000D01*
G75*
G02*
X165258000Y-150031500I0J-237500D01*
G01*
G37*
%TD*%
%TO.C,R21*%
G36*
G01*
X159509000Y-142632500D02*
X159509000Y-142157500D01*
G75*
G02*
X159746500Y-141920000I237500J0D01*
G01*
X160321500Y-141920000D01*
G75*
G02*
X160559000Y-142157500I0J-237500D01*
G01*
X160559000Y-142632500D01*
G75*
G02*
X160321500Y-142870000I-237500J0D01*
G01*
X159746500Y-142870000D01*
G75*
G02*
X159509000Y-142632500I0J237500D01*
G01*
G37*
G36*
G01*
X157759000Y-142632500D02*
X157759000Y-142157500D01*
G75*
G02*
X157996500Y-141920000I237500J0D01*
G01*
X158571500Y-141920000D01*
G75*
G02*
X158809000Y-142157500I0J-237500D01*
G01*
X158809000Y-142632500D01*
G75*
G02*
X158571500Y-142870000I-237500J0D01*
G01*
X157996500Y-142870000D01*
G75*
G02*
X157759000Y-142632500I0J237500D01*
G01*
G37*
%TD*%
%TO.C,R20*%
G36*
G01*
X160652000Y-148855500D02*
X160652000Y-148380500D01*
G75*
G02*
X160889500Y-148143000I237500J0D01*
G01*
X161464500Y-148143000D01*
G75*
G02*
X161702000Y-148380500I0J-237500D01*
G01*
X161702000Y-148855500D01*
G75*
G02*
X161464500Y-149093000I-237500J0D01*
G01*
X160889500Y-149093000D01*
G75*
G02*
X160652000Y-148855500I0J237500D01*
G01*
G37*
G36*
G01*
X158902000Y-148855500D02*
X158902000Y-148380500D01*
G75*
G02*
X159139500Y-148143000I237500J0D01*
G01*
X159714500Y-148143000D01*
G75*
G02*
X159952000Y-148380500I0J-237500D01*
G01*
X159952000Y-148855500D01*
G75*
G02*
X159714500Y-149093000I-237500J0D01*
G01*
X159139500Y-149093000D01*
G75*
G02*
X158902000Y-148855500I0J237500D01*
G01*
G37*
%TD*%
%TO.C,R19*%
G36*
G01*
X154745000Y-142030500D02*
X154745000Y-142505500D01*
G75*
G02*
X154507500Y-142743000I-237500J0D01*
G01*
X153932500Y-142743000D01*
G75*
G02*
X153695000Y-142505500I0J237500D01*
G01*
X153695000Y-142030500D01*
G75*
G02*
X153932500Y-141793000I237500J0D01*
G01*
X154507500Y-141793000D01*
G75*
G02*
X154745000Y-142030500I0J-237500D01*
G01*
G37*
G36*
G01*
X156495000Y-142030500D02*
X156495000Y-142505500D01*
G75*
G02*
X156257500Y-142743000I-237500J0D01*
G01*
X155682500Y-142743000D01*
G75*
G02*
X155445000Y-142505500I0J237500D01*
G01*
X155445000Y-142030500D01*
G75*
G02*
X155682500Y-141793000I237500J0D01*
G01*
X156257500Y-141793000D01*
G75*
G02*
X156495000Y-142030500I0J-237500D01*
G01*
G37*
%TD*%
%TO.C,R18*%
G36*
G01*
X150808000Y-140379500D02*
X150808000Y-140854500D01*
G75*
G02*
X150570500Y-141092000I-237500J0D01*
G01*
X149995500Y-141092000D01*
G75*
G02*
X149758000Y-140854500I0J237500D01*
G01*
X149758000Y-140379500D01*
G75*
G02*
X149995500Y-140142000I237500J0D01*
G01*
X150570500Y-140142000D01*
G75*
G02*
X150808000Y-140379500I0J-237500D01*
G01*
G37*
G36*
G01*
X152558000Y-140379500D02*
X152558000Y-140854500D01*
G75*
G02*
X152320500Y-141092000I-237500J0D01*
G01*
X151745500Y-141092000D01*
G75*
G02*
X151508000Y-140854500I0J237500D01*
G01*
X151508000Y-140379500D01*
G75*
G02*
X151745500Y-140142000I237500J0D01*
G01*
X152320500Y-140142000D01*
G75*
G02*
X152558000Y-140379500I0J-237500D01*
G01*
G37*
%TD*%
%TO.C,R17*%
G36*
G01*
X164208000Y-148855500D02*
X164208000Y-148380500D01*
G75*
G02*
X164445500Y-148143000I237500J0D01*
G01*
X165020500Y-148143000D01*
G75*
G02*
X165258000Y-148380500I0J-237500D01*
G01*
X165258000Y-148855500D01*
G75*
G02*
X165020500Y-149093000I-237500J0D01*
G01*
X164445500Y-149093000D01*
G75*
G02*
X164208000Y-148855500I0J237500D01*
G01*
G37*
G36*
G01*
X162458000Y-148855500D02*
X162458000Y-148380500D01*
G75*
G02*
X162695500Y-148143000I237500J0D01*
G01*
X163270500Y-148143000D01*
G75*
G02*
X163508000Y-148380500I0J-237500D01*
G01*
X163508000Y-148855500D01*
G75*
G02*
X163270500Y-149093000I-237500J0D01*
G01*
X162695500Y-149093000D01*
G75*
G02*
X162458000Y-148855500I0J237500D01*
G01*
G37*
%TD*%
%TO.C,R16*%
G36*
G01*
X163112500Y-153667000D02*
X163587500Y-153667000D01*
G75*
G02*
X163825000Y-153904500I0J-237500D01*
G01*
X163825000Y-154479500D01*
G75*
G02*
X163587500Y-154717000I-237500J0D01*
G01*
X163112500Y-154717000D01*
G75*
G02*
X162875000Y-154479500I0J237500D01*
G01*
X162875000Y-153904500D01*
G75*
G02*
X163112500Y-153667000I237500J0D01*
G01*
G37*
G36*
G01*
X163112500Y-151917000D02*
X163587500Y-151917000D01*
G75*
G02*
X163825000Y-152154500I0J-237500D01*
G01*
X163825000Y-152729500D01*
G75*
G02*
X163587500Y-152967000I-237500J0D01*
G01*
X163112500Y-152967000D01*
G75*
G02*
X162875000Y-152729500I0J237500D01*
G01*
X162875000Y-152154500D01*
G75*
G02*
X163112500Y-151917000I237500J0D01*
G01*
G37*
%TD*%
%TO.C,R15*%
G36*
G01*
X156523000Y-154095500D02*
X156523000Y-154570500D01*
G75*
G02*
X156285500Y-154808000I-237500J0D01*
G01*
X155710500Y-154808000D01*
G75*
G02*
X155473000Y-154570500I0J237500D01*
G01*
X155473000Y-154095500D01*
G75*
G02*
X155710500Y-153858000I237500J0D01*
G01*
X156285500Y-153858000D01*
G75*
G02*
X156523000Y-154095500I0J-237500D01*
G01*
G37*
G36*
G01*
X158273000Y-154095500D02*
X158273000Y-154570500D01*
G75*
G02*
X158035500Y-154808000I-237500J0D01*
G01*
X157460500Y-154808000D01*
G75*
G02*
X157223000Y-154570500I0J237500D01*
G01*
X157223000Y-154095500D01*
G75*
G02*
X157460500Y-153858000I237500J0D01*
G01*
X158035500Y-153858000D01*
G75*
G02*
X158273000Y-154095500I0J-237500D01*
G01*
G37*
%TD*%
%TO.C,R14*%
G36*
G01*
X157223000Y-151268500D02*
X157223000Y-150793500D01*
G75*
G02*
X157460500Y-150556000I237500J0D01*
G01*
X158035500Y-150556000D01*
G75*
G02*
X158273000Y-150793500I0J-237500D01*
G01*
X158273000Y-151268500D01*
G75*
G02*
X158035500Y-151506000I-237500J0D01*
G01*
X157460500Y-151506000D01*
G75*
G02*
X157223000Y-151268500I0J237500D01*
G01*
G37*
G36*
G01*
X155473000Y-151268500D02*
X155473000Y-150793500D01*
G75*
G02*
X155710500Y-150556000I237500J0D01*
G01*
X156285500Y-150556000D01*
G75*
G02*
X156523000Y-150793500I0J-237500D01*
G01*
X156523000Y-151268500D01*
G75*
G02*
X156285500Y-151506000I-237500J0D01*
G01*
X155710500Y-151506000D01*
G75*
G02*
X155473000Y-151268500I0J237500D01*
G01*
G37*
%TD*%
%TO.C,R13*%
G36*
G01*
X156523000Y-149142500D02*
X156523000Y-149617500D01*
G75*
G02*
X156285500Y-149855000I-237500J0D01*
G01*
X155710500Y-149855000D01*
G75*
G02*
X155473000Y-149617500I0J237500D01*
G01*
X155473000Y-149142500D01*
G75*
G02*
X155710500Y-148905000I237500J0D01*
G01*
X156285500Y-148905000D01*
G75*
G02*
X156523000Y-149142500I0J-237500D01*
G01*
G37*
G36*
G01*
X158273000Y-149142500D02*
X158273000Y-149617500D01*
G75*
G02*
X158035500Y-149855000I-237500J0D01*
G01*
X157460500Y-149855000D01*
G75*
G02*
X157223000Y-149617500I0J237500D01*
G01*
X157223000Y-149142500D01*
G75*
G02*
X157460500Y-148905000I237500J0D01*
G01*
X158035500Y-148905000D01*
G75*
G02*
X158273000Y-149142500I0J-237500D01*
G01*
G37*
%TD*%
%TO.C,FB1*%
G36*
G01*
X175525500Y-142426000D02*
X175050500Y-142426000D01*
G75*
G02*
X174813000Y-142188500I0J237500D01*
G01*
X174813000Y-141613500D01*
G75*
G02*
X175050500Y-141376000I237500J0D01*
G01*
X175525500Y-141376000D01*
G75*
G02*
X175763000Y-141613500I0J-237500D01*
G01*
X175763000Y-142188500D01*
G75*
G02*
X175525500Y-142426000I-237500J0D01*
G01*
G37*
G36*
G01*
X175525500Y-144176000D02*
X175050500Y-144176000D01*
G75*
G02*
X174813000Y-143938500I0J237500D01*
G01*
X174813000Y-143363500D01*
G75*
G02*
X175050500Y-143126000I237500J0D01*
G01*
X175525500Y-143126000D01*
G75*
G02*
X175763000Y-143363500I0J-237500D01*
G01*
X175763000Y-143938500D01*
G75*
G02*
X175525500Y-144176000I-237500J0D01*
G01*
G37*
%TD*%
%TO.C,C19*%
G36*
G01*
X171382000Y-153968500D02*
X171382000Y-154443500D01*
G75*
G02*
X171144500Y-154681000I-237500J0D01*
G01*
X170569500Y-154681000D01*
G75*
G02*
X170332000Y-154443500I0J237500D01*
G01*
X170332000Y-153968500D01*
G75*
G02*
X170569500Y-153731000I237500J0D01*
G01*
X171144500Y-153731000D01*
G75*
G02*
X171382000Y-153968500I0J-237500D01*
G01*
G37*
G36*
G01*
X173132000Y-153968500D02*
X173132000Y-154443500D01*
G75*
G02*
X172894500Y-154681000I-237500J0D01*
G01*
X172319500Y-154681000D01*
G75*
G02*
X172082000Y-154443500I0J237500D01*
G01*
X172082000Y-153968500D01*
G75*
G02*
X172319500Y-153731000I237500J0D01*
G01*
X172894500Y-153731000D01*
G75*
G02*
X173132000Y-153968500I0J-237500D01*
G01*
G37*
%TD*%
%TO.C,C18*%
G36*
G01*
X171382000Y-152317500D02*
X171382000Y-152792500D01*
G75*
G02*
X171144500Y-153030000I-237500J0D01*
G01*
X170569500Y-153030000D01*
G75*
G02*
X170332000Y-152792500I0J237500D01*
G01*
X170332000Y-152317500D01*
G75*
G02*
X170569500Y-152080000I237500J0D01*
G01*
X171144500Y-152080000D01*
G75*
G02*
X171382000Y-152317500I0J-237500D01*
G01*
G37*
G36*
G01*
X173132000Y-152317500D02*
X173132000Y-152792500D01*
G75*
G02*
X172894500Y-153030000I-237500J0D01*
G01*
X172319500Y-153030000D01*
G75*
G02*
X172082000Y-152792500I0J237500D01*
G01*
X172082000Y-152317500D01*
G75*
G02*
X172319500Y-152080000I237500J0D01*
G01*
X172894500Y-152080000D01*
G75*
G02*
X173132000Y-152317500I0J-237500D01*
G01*
G37*
%TD*%
%TO.C,C17*%
G36*
G01*
X167572000Y-150285500D02*
X167572000Y-150760500D01*
G75*
G02*
X167334500Y-150998000I-237500J0D01*
G01*
X166759500Y-150998000D01*
G75*
G02*
X166522000Y-150760500I0J237500D01*
G01*
X166522000Y-150285500D01*
G75*
G02*
X166759500Y-150048000I237500J0D01*
G01*
X167334500Y-150048000D01*
G75*
G02*
X167572000Y-150285500I0J-237500D01*
G01*
G37*
G36*
G01*
X169322000Y-150285500D02*
X169322000Y-150760500D01*
G75*
G02*
X169084500Y-150998000I-237500J0D01*
G01*
X168509500Y-150998000D01*
G75*
G02*
X168272000Y-150760500I0J237500D01*
G01*
X168272000Y-150285500D01*
G75*
G02*
X168509500Y-150048000I237500J0D01*
G01*
X169084500Y-150048000D01*
G75*
G02*
X169322000Y-150285500I0J-237500D01*
G01*
G37*
%TD*%
%TO.C,C16*%
G36*
G01*
X175827000Y-147618500D02*
X175827000Y-148093500D01*
G75*
G02*
X175589500Y-148331000I-237500J0D01*
G01*
X175014500Y-148331000D01*
G75*
G02*
X174777000Y-148093500I0J237500D01*
G01*
X174777000Y-147618500D01*
G75*
G02*
X175014500Y-147381000I237500J0D01*
G01*
X175589500Y-147381000D01*
G75*
G02*
X175827000Y-147618500I0J-237500D01*
G01*
G37*
G36*
G01*
X177577000Y-147618500D02*
X177577000Y-148093500D01*
G75*
G02*
X177339500Y-148331000I-237500J0D01*
G01*
X176764500Y-148331000D01*
G75*
G02*
X176527000Y-148093500I0J237500D01*
G01*
X176527000Y-147618500D01*
G75*
G02*
X176764500Y-147381000I237500J0D01*
G01*
X177339500Y-147381000D01*
G75*
G02*
X177577000Y-147618500I0J-237500D01*
G01*
G37*
%TD*%
%TO.C,C15*%
G36*
G01*
X153968500Y-145285000D02*
X154443500Y-145285000D01*
G75*
G02*
X154681000Y-145522500I0J-237500D01*
G01*
X154681000Y-146097500D01*
G75*
G02*
X154443500Y-146335000I-237500J0D01*
G01*
X153968500Y-146335000D01*
G75*
G02*
X153731000Y-146097500I0J237500D01*
G01*
X153731000Y-145522500D01*
G75*
G02*
X153968500Y-145285000I237500J0D01*
G01*
G37*
G36*
G01*
X153968500Y-143535000D02*
X154443500Y-143535000D01*
G75*
G02*
X154681000Y-143772500I0J-237500D01*
G01*
X154681000Y-144347500D01*
G75*
G02*
X154443500Y-144585000I-237500J0D01*
G01*
X153968500Y-144585000D01*
G75*
G02*
X153731000Y-144347500I0J237500D01*
G01*
X153731000Y-143772500D01*
G75*
G02*
X153968500Y-143535000I237500J0D01*
G01*
G37*
%TD*%
%TO.C,C14*%
G36*
G01*
X157096000Y-147966500D02*
X157096000Y-147491500D01*
G75*
G02*
X157333500Y-147254000I237500J0D01*
G01*
X157908500Y-147254000D01*
G75*
G02*
X158146000Y-147491500I0J-237500D01*
G01*
X158146000Y-147966500D01*
G75*
G02*
X157908500Y-148204000I-237500J0D01*
G01*
X157333500Y-148204000D01*
G75*
G02*
X157096000Y-147966500I0J237500D01*
G01*
G37*
G36*
G01*
X155346000Y-147966500D02*
X155346000Y-147491500D01*
G75*
G02*
X155583500Y-147254000I237500J0D01*
G01*
X156158500Y-147254000D01*
G75*
G02*
X156396000Y-147491500I0J-237500D01*
G01*
X156396000Y-147966500D01*
G75*
G02*
X156158500Y-148204000I-237500J0D01*
G01*
X155583500Y-148204000D01*
G75*
G02*
X155346000Y-147966500I0J237500D01*
G01*
G37*
%TD*%
%TO.C,C13*%
G36*
G01*
X155064000Y-140854500D02*
X155064000Y-140379500D01*
G75*
G02*
X155301500Y-140142000I237500J0D01*
G01*
X155876500Y-140142000D01*
G75*
G02*
X156114000Y-140379500I0J-237500D01*
G01*
X156114000Y-140854500D01*
G75*
G02*
X155876500Y-141092000I-237500J0D01*
G01*
X155301500Y-141092000D01*
G75*
G02*
X155064000Y-140854500I0J237500D01*
G01*
G37*
G36*
G01*
X153314000Y-140854500D02*
X153314000Y-140379500D01*
G75*
G02*
X153551500Y-140142000I237500J0D01*
G01*
X154126500Y-140142000D01*
G75*
G02*
X154364000Y-140379500I0J-237500D01*
G01*
X154364000Y-140854500D01*
G75*
G02*
X154126500Y-141092000I-237500J0D01*
G01*
X153551500Y-141092000D01*
G75*
G02*
X153314000Y-140854500I0J237500D01*
G01*
G37*
%TD*%
%TO.C,C12*%
G36*
G01*
X164222500Y-144585000D02*
X163747500Y-144585000D01*
G75*
G02*
X163510000Y-144347500I0J237500D01*
G01*
X163510000Y-143772500D01*
G75*
G02*
X163747500Y-143535000I237500J0D01*
G01*
X164222500Y-143535000D01*
G75*
G02*
X164460000Y-143772500I0J-237500D01*
G01*
X164460000Y-144347500D01*
G75*
G02*
X164222500Y-144585000I-237500J0D01*
G01*
G37*
G36*
G01*
X164222500Y-146335000D02*
X163747500Y-146335000D01*
G75*
G02*
X163510000Y-146097500I0J237500D01*
G01*
X163510000Y-145522500D01*
G75*
G02*
X163747500Y-145285000I237500J0D01*
G01*
X164222500Y-145285000D01*
G75*
G02*
X164460000Y-145522500I0J-237500D01*
G01*
X164460000Y-146097500D01*
G75*
G02*
X164222500Y-146335000I-237500J0D01*
G01*
G37*
%TD*%
%TO.C,C11*%
G36*
G01*
X165439999Y-146274000D02*
X166340001Y-146274000D01*
G75*
G02*
X166590000Y-146523999I0J-249999D01*
G01*
X166590000Y-147174001D01*
G75*
G02*
X166340001Y-147424000I-249999J0D01*
G01*
X165439999Y-147424000D01*
G75*
G02*
X165190000Y-147174001I0J249999D01*
G01*
X165190000Y-146523999D01*
G75*
G02*
X165439999Y-146274000I249999J0D01*
G01*
G37*
G36*
G01*
X165439999Y-144224000D02*
X166340001Y-144224000D01*
G75*
G02*
X166590000Y-144473999I0J-249999D01*
G01*
X166590000Y-145124001D01*
G75*
G02*
X166340001Y-145374000I-249999J0D01*
G01*
X165439999Y-145374000D01*
G75*
G02*
X165190000Y-145124001I0J249999D01*
G01*
X165190000Y-144473999D01*
G75*
G02*
X165439999Y-144224000I249999J0D01*
G01*
G37*
%TD*%
%TO.C,C10*%
G36*
G01*
X169161000Y-142251500D02*
X169161000Y-141776500D01*
G75*
G02*
X169398500Y-141539000I237500J0D01*
G01*
X169973500Y-141539000D01*
G75*
G02*
X170211000Y-141776500I0J-237500D01*
G01*
X170211000Y-142251500D01*
G75*
G02*
X169973500Y-142489000I-237500J0D01*
G01*
X169398500Y-142489000D01*
G75*
G02*
X169161000Y-142251500I0J237500D01*
G01*
G37*
G36*
G01*
X167411000Y-142251500D02*
X167411000Y-141776500D01*
G75*
G02*
X167648500Y-141539000I237500J0D01*
G01*
X168223500Y-141539000D01*
G75*
G02*
X168461000Y-141776500I0J-237500D01*
G01*
X168461000Y-142251500D01*
G75*
G02*
X168223500Y-142489000I-237500J0D01*
G01*
X167648500Y-142489000D01*
G75*
G02*
X167411000Y-142251500I0J237500D01*
G01*
G37*
%TD*%
%TO.C,C9*%
G36*
G01*
X159952000Y-150031500D02*
X159952000Y-150506500D01*
G75*
G02*
X159714500Y-150744000I-237500J0D01*
G01*
X159139500Y-150744000D01*
G75*
G02*
X158902000Y-150506500I0J237500D01*
G01*
X158902000Y-150031500D01*
G75*
G02*
X159139500Y-149794000I237500J0D01*
G01*
X159714500Y-149794000D01*
G75*
G02*
X159952000Y-150031500I0J-237500D01*
G01*
G37*
G36*
G01*
X161702000Y-150031500D02*
X161702000Y-150506500D01*
G75*
G02*
X161464500Y-150744000I-237500J0D01*
G01*
X160889500Y-150744000D01*
G75*
G02*
X160652000Y-150506500I0J237500D01*
G01*
X160652000Y-150031500D01*
G75*
G02*
X160889500Y-149794000I237500J0D01*
G01*
X161464500Y-149794000D01*
G75*
G02*
X161702000Y-150031500I0J-237500D01*
G01*
G37*
%TD*%
%TO.C,C8*%
G36*
G01*
X156523000Y-152444500D02*
X156523000Y-152919500D01*
G75*
G02*
X156285500Y-153157000I-237500J0D01*
G01*
X155710500Y-153157000D01*
G75*
G02*
X155473000Y-152919500I0J237500D01*
G01*
X155473000Y-152444500D01*
G75*
G02*
X155710500Y-152207000I237500J0D01*
G01*
X156285500Y-152207000D01*
G75*
G02*
X156523000Y-152444500I0J-237500D01*
G01*
G37*
G36*
G01*
X158273000Y-152444500D02*
X158273000Y-152919500D01*
G75*
G02*
X158035500Y-153157000I-237500J0D01*
G01*
X157460500Y-153157000D01*
G75*
G02*
X157223000Y-152919500I0J237500D01*
G01*
X157223000Y-152444500D01*
G75*
G02*
X157460500Y-152207000I237500J0D01*
G01*
X158035500Y-152207000D01*
G75*
G02*
X158273000Y-152444500I0J-237500D01*
G01*
G37*
%TD*%
%TO.C,C7*%
G36*
G01*
X172044000Y-141436999D02*
X172044000Y-142337001D01*
G75*
G02*
X171794001Y-142587000I-249999J0D01*
G01*
X171143999Y-142587000D01*
G75*
G02*
X170894000Y-142337001I0J249999D01*
G01*
X170894000Y-141436999D01*
G75*
G02*
X171143999Y-141187000I249999J0D01*
G01*
X171794001Y-141187000D01*
G75*
G02*
X172044000Y-141436999I0J-249999D01*
G01*
G37*
G36*
G01*
X174094000Y-141436999D02*
X174094000Y-142337001D01*
G75*
G02*
X173844001Y-142587000I-249999J0D01*
G01*
X173193999Y-142587000D01*
G75*
G02*
X172944000Y-142337001I0J249999D01*
G01*
X172944000Y-141436999D01*
G75*
G02*
X173193999Y-141187000I249999J0D01*
G01*
X173844001Y-141187000D01*
G75*
G02*
X174094000Y-141436999I0J-249999D01*
G01*
G37*
%TD*%
%TO.C,U6*%
G36*
G01*
X155600000Y-129792500D02*
X155600000Y-129467500D01*
G75*
G02*
X155762500Y-129305000I162500J0D01*
G01*
X157412500Y-129305000D01*
G75*
G02*
X157575000Y-129467500I0J-162500D01*
G01*
X157575000Y-129792500D01*
G75*
G02*
X157412500Y-129955000I-162500J0D01*
G01*
X155762500Y-129955000D01*
G75*
G02*
X155600000Y-129792500I0J162500D01*
G01*
G37*
G36*
G01*
X155600000Y-131062500D02*
X155600000Y-130737500D01*
G75*
G02*
X155762500Y-130575000I162500J0D01*
G01*
X157412500Y-130575000D01*
G75*
G02*
X157575000Y-130737500I0J-162500D01*
G01*
X157575000Y-131062500D01*
G75*
G02*
X157412500Y-131225000I-162500J0D01*
G01*
X155762500Y-131225000D01*
G75*
G02*
X155600000Y-131062500I0J162500D01*
G01*
G37*
G36*
G01*
X155600000Y-132332500D02*
X155600000Y-132007500D01*
G75*
G02*
X155762500Y-131845000I162500J0D01*
G01*
X157412500Y-131845000D01*
G75*
G02*
X157575000Y-132007500I0J-162500D01*
G01*
X157575000Y-132332500D01*
G75*
G02*
X157412500Y-132495000I-162500J0D01*
G01*
X155762500Y-132495000D01*
G75*
G02*
X155600000Y-132332500I0J162500D01*
G01*
G37*
G36*
G01*
X155600000Y-133602500D02*
X155600000Y-133277500D01*
G75*
G02*
X155762500Y-133115000I162500J0D01*
G01*
X157412500Y-133115000D01*
G75*
G02*
X157575000Y-133277500I0J-162500D01*
G01*
X157575000Y-133602500D01*
G75*
G02*
X157412500Y-133765000I-162500J0D01*
G01*
X155762500Y-133765000D01*
G75*
G02*
X155600000Y-133602500I0J162500D01*
G01*
G37*
G36*
G01*
X150525000Y-133602500D02*
X150525000Y-133277500D01*
G75*
G02*
X150687500Y-133115000I162500J0D01*
G01*
X152337500Y-133115000D01*
G75*
G02*
X152500000Y-133277500I0J-162500D01*
G01*
X152500000Y-133602500D01*
G75*
G02*
X152337500Y-133765000I-162500J0D01*
G01*
X150687500Y-133765000D01*
G75*
G02*
X150525000Y-133602500I0J162500D01*
G01*
G37*
G36*
G01*
X150525000Y-132332500D02*
X150525000Y-132007500D01*
G75*
G02*
X150687500Y-131845000I162500J0D01*
G01*
X152337500Y-131845000D01*
G75*
G02*
X152500000Y-132007500I0J-162500D01*
G01*
X152500000Y-132332500D01*
G75*
G02*
X152337500Y-132495000I-162500J0D01*
G01*
X150687500Y-132495000D01*
G75*
G02*
X150525000Y-132332500I0J162500D01*
G01*
G37*
G36*
G01*
X150525000Y-131062500D02*
X150525000Y-130737500D01*
G75*
G02*
X150687500Y-130575000I162500J0D01*
G01*
X152337500Y-130575000D01*
G75*
G02*
X152500000Y-130737500I0J-162500D01*
G01*
X152500000Y-131062500D01*
G75*
G02*
X152337500Y-131225000I-162500J0D01*
G01*
X150687500Y-131225000D01*
G75*
G02*
X150525000Y-131062500I0J162500D01*
G01*
G37*
G36*
G01*
X150525000Y-129792500D02*
X150525000Y-129467500D01*
G75*
G02*
X150687500Y-129305000I162500J0D01*
G01*
X152337500Y-129305000D01*
G75*
G02*
X152500000Y-129467500I0J-162500D01*
G01*
X152500000Y-129792500D01*
G75*
G02*
X152337500Y-129955000I-162500J0D01*
G01*
X150687500Y-129955000D01*
G75*
G02*
X150525000Y-129792500I0J162500D01*
G01*
G37*
%TD*%
%TO.C,R12*%
G36*
G01*
X150365000Y-135647500D02*
X150365000Y-135172500D01*
G75*
G02*
X150602500Y-134935000I237500J0D01*
G01*
X151177500Y-134935000D01*
G75*
G02*
X151415000Y-135172500I0J-237500D01*
G01*
X151415000Y-135647500D01*
G75*
G02*
X151177500Y-135885000I-237500J0D01*
G01*
X150602500Y-135885000D01*
G75*
G02*
X150365000Y-135647500I0J237500D01*
G01*
G37*
G36*
G01*
X148615000Y-135647500D02*
X148615000Y-135172500D01*
G75*
G02*
X148852500Y-134935000I237500J0D01*
G01*
X149427500Y-134935000D01*
G75*
G02*
X149665000Y-135172500I0J-237500D01*
G01*
X149665000Y-135647500D01*
G75*
G02*
X149427500Y-135885000I-237500J0D01*
G01*
X148852500Y-135885000D01*
G75*
G02*
X148615000Y-135647500I0J237500D01*
G01*
G37*
%TD*%
%TO.C,R11*%
G36*
G01*
X168667500Y-133155000D02*
X168192500Y-133155000D01*
G75*
G02*
X167955000Y-132917500I0J237500D01*
G01*
X167955000Y-132342500D01*
G75*
G02*
X168192500Y-132105000I237500J0D01*
G01*
X168667500Y-132105000D01*
G75*
G02*
X168905000Y-132342500I0J-237500D01*
G01*
X168905000Y-132917500D01*
G75*
G02*
X168667500Y-133155000I-237500J0D01*
G01*
G37*
G36*
G01*
X168667500Y-134905000D02*
X168192500Y-134905000D01*
G75*
G02*
X167955000Y-134667500I0J237500D01*
G01*
X167955000Y-134092500D01*
G75*
G02*
X168192500Y-133855000I237500J0D01*
G01*
X168667500Y-133855000D01*
G75*
G02*
X168905000Y-134092500I0J-237500D01*
G01*
X168905000Y-134667500D01*
G75*
G02*
X168667500Y-134905000I-237500J0D01*
G01*
G37*
%TD*%
%TO.C,R10*%
G36*
G01*
X168667500Y-129345000D02*
X168192500Y-129345000D01*
G75*
G02*
X167955000Y-129107500I0J237500D01*
G01*
X167955000Y-128532500D01*
G75*
G02*
X168192500Y-128295000I237500J0D01*
G01*
X168667500Y-128295000D01*
G75*
G02*
X168905000Y-128532500I0J-237500D01*
G01*
X168905000Y-129107500D01*
G75*
G02*
X168667500Y-129345000I-237500J0D01*
G01*
G37*
G36*
G01*
X168667500Y-131095000D02*
X168192500Y-131095000D01*
G75*
G02*
X167955000Y-130857500I0J237500D01*
G01*
X167955000Y-130282500D01*
G75*
G02*
X168192500Y-130045000I237500J0D01*
G01*
X168667500Y-130045000D01*
G75*
G02*
X168905000Y-130282500I0J-237500D01*
G01*
X168905000Y-130857500D01*
G75*
G02*
X168667500Y-131095000I-237500J0D01*
G01*
G37*
%TD*%
%TO.C,C6*%
G36*
G01*
X154175000Y-135647500D02*
X154175000Y-135172500D01*
G75*
G02*
X154412500Y-134935000I237500J0D01*
G01*
X154987500Y-134935000D01*
G75*
G02*
X155225000Y-135172500I0J-237500D01*
G01*
X155225000Y-135647500D01*
G75*
G02*
X154987500Y-135885000I-237500J0D01*
G01*
X154412500Y-135885000D01*
G75*
G02*
X154175000Y-135647500I0J237500D01*
G01*
G37*
G36*
G01*
X152425000Y-135647500D02*
X152425000Y-135172500D01*
G75*
G02*
X152662500Y-134935000I237500J0D01*
G01*
X153237500Y-134935000D01*
G75*
G02*
X153475000Y-135172500I0J-237500D01*
G01*
X153475000Y-135647500D01*
G75*
G02*
X153237500Y-135885000I-237500J0D01*
G01*
X152662500Y-135885000D01*
G75*
G02*
X152425000Y-135647500I0J237500D01*
G01*
G37*
%TD*%
%TO.C,R9*%
G36*
G01*
X122865001Y-145250000D02*
X120014999Y-145250000D01*
G75*
G02*
X119765000Y-145000001I0J249999D01*
G01*
X119765000Y-143974999D01*
G75*
G02*
X120014999Y-143725000I249999J0D01*
G01*
X122865001Y-143725000D01*
G75*
G02*
X123115000Y-143974999I0J-249999D01*
G01*
X123115000Y-145000001D01*
G75*
G02*
X122865001Y-145250000I-249999J0D01*
G01*
G37*
G36*
G01*
X122865001Y-151225000D02*
X120014999Y-151225000D01*
G75*
G02*
X119765000Y-150975001I0J249999D01*
G01*
X119765000Y-149949999D01*
G75*
G02*
X120014999Y-149700000I249999J0D01*
G01*
X122865001Y-149700000D01*
G75*
G02*
X123115000Y-149949999I0J-249999D01*
G01*
X123115000Y-150975001D01*
G75*
G02*
X122865001Y-151225000I-249999J0D01*
G01*
G37*
%TD*%
%TO.C,U3*%
X162291000Y-145062000D03*
X162291000Y-144112000D03*
X162291000Y-146012000D03*
X160091000Y-146012000D03*
X160091000Y-145062000D03*
X160091000Y-144112000D03*
%TD*%
%TO.C,U2*%
X161656000Y-152367000D03*
X161656000Y-154267000D03*
X159456000Y-154267000D03*
X159456000Y-153317000D03*
X159456000Y-152367000D03*
%TD*%
D10*
%TO.C,D9*%
X147156000Y-142395000D03*
X148556000Y-142395000D03*
%TD*%
%TO.C,D8*%
X147156000Y-144300000D03*
X148556000Y-144300000D03*
%TD*%
%TO.C,R7*%
G36*
G01*
X161047500Y-127440000D02*
X160572500Y-127440000D01*
G75*
G02*
X160335000Y-127202500I0J237500D01*
G01*
X160335000Y-126627500D01*
G75*
G02*
X160572500Y-126390000I237500J0D01*
G01*
X161047500Y-126390000D01*
G75*
G02*
X161285000Y-126627500I0J-237500D01*
G01*
X161285000Y-127202500D01*
G75*
G02*
X161047500Y-127440000I-237500J0D01*
G01*
G37*
G36*
G01*
X161047500Y-129190000D02*
X160572500Y-129190000D01*
G75*
G02*
X160335000Y-128952500I0J237500D01*
G01*
X160335000Y-128377500D01*
G75*
G02*
X160572500Y-128140000I237500J0D01*
G01*
X161047500Y-128140000D01*
G75*
G02*
X161285000Y-128377500I0J-237500D01*
G01*
X161285000Y-128952500D01*
G75*
G02*
X161047500Y-129190000I-237500J0D01*
G01*
G37*
%TD*%
%TO.C,R6*%
G36*
G01*
X160572500Y-124330000D02*
X161047500Y-124330000D01*
G75*
G02*
X161285000Y-124567500I0J-237500D01*
G01*
X161285000Y-125142500D01*
G75*
G02*
X161047500Y-125380000I-237500J0D01*
G01*
X160572500Y-125380000D01*
G75*
G02*
X160335000Y-125142500I0J237500D01*
G01*
X160335000Y-124567500D01*
G75*
G02*
X160572500Y-124330000I237500J0D01*
G01*
G37*
G36*
G01*
X160572500Y-122580000D02*
X161047500Y-122580000D01*
G75*
G02*
X161285000Y-122817500I0J-237500D01*
G01*
X161285000Y-123392500D01*
G75*
G02*
X161047500Y-123630000I-237500J0D01*
G01*
X160572500Y-123630000D01*
G75*
G02*
X160335000Y-123392500I0J237500D01*
G01*
X160335000Y-122817500D01*
G75*
G02*
X160572500Y-122580000I237500J0D01*
G01*
G37*
%TD*%
%TO.C,R5*%
G36*
G01*
X118420001Y-145250000D02*
X115569999Y-145250000D01*
G75*
G02*
X115320000Y-145000001I0J249999D01*
G01*
X115320000Y-143974999D01*
G75*
G02*
X115569999Y-143725000I249999J0D01*
G01*
X118420001Y-143725000D01*
G75*
G02*
X118670000Y-143974999I0J-249999D01*
G01*
X118670000Y-145000001D01*
G75*
G02*
X118420001Y-145250000I-249999J0D01*
G01*
G37*
G36*
G01*
X118420001Y-151225000D02*
X115569999Y-151225000D01*
G75*
G02*
X115320000Y-150975001I0J249999D01*
G01*
X115320000Y-149949999D01*
G75*
G02*
X115569999Y-149700000I249999J0D01*
G01*
X118420001Y-149700000D01*
G75*
G02*
X118670000Y-149949999I0J-249999D01*
G01*
X118670000Y-150975001D01*
G75*
G02*
X118420001Y-151225000I-249999J0D01*
G01*
G37*
%TD*%
D12*
%TO.C,D5*%
X168430000Y-104865000D03*
X168430000Y-106265000D03*
%TD*%
%TO.C,C5*%
G36*
G01*
X146020000Y-109825001D02*
X146020000Y-108924999D01*
G75*
G02*
X146269999Y-108675000I249999J0D01*
G01*
X146920001Y-108675000D01*
G75*
G02*
X147170000Y-108924999I0J-249999D01*
G01*
X147170000Y-109825001D01*
G75*
G02*
X146920001Y-110075000I-249999J0D01*
G01*
X146269999Y-110075000D01*
G75*
G02*
X146020000Y-109825001I0J249999D01*
G01*
G37*
G36*
G01*
X143970000Y-109825001D02*
X143970000Y-108924999D01*
G75*
G02*
X144219999Y-108675000I249999J0D01*
G01*
X144870001Y-108675000D01*
G75*
G02*
X145120000Y-108924999I0J-249999D01*
G01*
X145120000Y-109825001D01*
G75*
G02*
X144870001Y-110075000I-249999J0D01*
G01*
X144219999Y-110075000D01*
G75*
G02*
X143970000Y-109825001I0J249999D01*
G01*
G37*
%TD*%
%TO.C,U1*%
G36*
G01*
X157280000Y-124142500D02*
X157280000Y-123817500D01*
G75*
G02*
X157442500Y-123655000I162500J0D01*
G01*
X159092500Y-123655000D01*
G75*
G02*
X159255000Y-123817500I0J-162500D01*
G01*
X159255000Y-124142500D01*
G75*
G02*
X159092500Y-124305000I-162500J0D01*
G01*
X157442500Y-124305000D01*
G75*
G02*
X157280000Y-124142500I0J162500D01*
G01*
G37*
G36*
G01*
X157280000Y-125412500D02*
X157280000Y-125087500D01*
G75*
G02*
X157442500Y-124925000I162500J0D01*
G01*
X159092500Y-124925000D01*
G75*
G02*
X159255000Y-125087500I0J-162500D01*
G01*
X159255000Y-125412500D01*
G75*
G02*
X159092500Y-125575000I-162500J0D01*
G01*
X157442500Y-125575000D01*
G75*
G02*
X157280000Y-125412500I0J162500D01*
G01*
G37*
G36*
G01*
X157280000Y-126682500D02*
X157280000Y-126357500D01*
G75*
G02*
X157442500Y-126195000I162500J0D01*
G01*
X159092500Y-126195000D01*
G75*
G02*
X159255000Y-126357500I0J-162500D01*
G01*
X159255000Y-126682500D01*
G75*
G02*
X159092500Y-126845000I-162500J0D01*
G01*
X157442500Y-126845000D01*
G75*
G02*
X157280000Y-126682500I0J162500D01*
G01*
G37*
G36*
G01*
X157280000Y-127952500D02*
X157280000Y-127627500D01*
G75*
G02*
X157442500Y-127465000I162500J0D01*
G01*
X159092500Y-127465000D01*
G75*
G02*
X159255000Y-127627500I0J-162500D01*
G01*
X159255000Y-127952500D01*
G75*
G02*
X159092500Y-128115000I-162500J0D01*
G01*
X157442500Y-128115000D01*
G75*
G02*
X157280000Y-127952500I0J162500D01*
G01*
G37*
G36*
G01*
X152205000Y-127952500D02*
X152205000Y-127627500D01*
G75*
G02*
X152367500Y-127465000I162500J0D01*
G01*
X154017500Y-127465000D01*
G75*
G02*
X154180000Y-127627500I0J-162500D01*
G01*
X154180000Y-127952500D01*
G75*
G02*
X154017500Y-128115000I-162500J0D01*
G01*
X152367500Y-128115000D01*
G75*
G02*
X152205000Y-127952500I0J162500D01*
G01*
G37*
G36*
G01*
X152205000Y-126682500D02*
X152205000Y-126357500D01*
G75*
G02*
X152367500Y-126195000I162500J0D01*
G01*
X154017500Y-126195000D01*
G75*
G02*
X154180000Y-126357500I0J-162500D01*
G01*
X154180000Y-126682500D01*
G75*
G02*
X154017500Y-126845000I-162500J0D01*
G01*
X152367500Y-126845000D01*
G75*
G02*
X152205000Y-126682500I0J162500D01*
G01*
G37*
G36*
G01*
X152205000Y-125412500D02*
X152205000Y-125087500D01*
G75*
G02*
X152367500Y-124925000I162500J0D01*
G01*
X154017500Y-124925000D01*
G75*
G02*
X154180000Y-125087500I0J-162500D01*
G01*
X154180000Y-125412500D01*
G75*
G02*
X154017500Y-125575000I-162500J0D01*
G01*
X152367500Y-125575000D01*
G75*
G02*
X152205000Y-125412500I0J162500D01*
G01*
G37*
G36*
G01*
X152205000Y-124142500D02*
X152205000Y-123817500D01*
G75*
G02*
X152367500Y-123655000I162500J0D01*
G01*
X154017500Y-123655000D01*
G75*
G02*
X154180000Y-123817500I0J-162500D01*
G01*
X154180000Y-124142500D01*
G75*
G02*
X154017500Y-124305000I-162500J0D01*
G01*
X152367500Y-124305000D01*
G75*
G02*
X152205000Y-124142500I0J162500D01*
G01*
G37*
%TD*%
%TO.C,C4*%
G36*
G01*
X150887500Y-125535000D02*
X150412500Y-125535000D01*
G75*
G02*
X150175000Y-125297500I0J237500D01*
G01*
X150175000Y-124722500D01*
G75*
G02*
X150412500Y-124485000I237500J0D01*
G01*
X150887500Y-124485000D01*
G75*
G02*
X151125000Y-124722500I0J-237500D01*
G01*
X151125000Y-125297500D01*
G75*
G02*
X150887500Y-125535000I-237500J0D01*
G01*
G37*
G36*
G01*
X150887500Y-127285000D02*
X150412500Y-127285000D01*
G75*
G02*
X150175000Y-127047500I0J237500D01*
G01*
X150175000Y-126472500D01*
G75*
G02*
X150412500Y-126235000I237500J0D01*
G01*
X150887500Y-126235000D01*
G75*
G02*
X151125000Y-126472500I0J-237500D01*
G01*
X151125000Y-127047500D01*
G75*
G02*
X150887500Y-127285000I-237500J0D01*
G01*
G37*
%TD*%
%TO.C,C3*%
G36*
G01*
X156180000Y-122525001D02*
X156180000Y-121624999D01*
G75*
G02*
X156429999Y-121375000I249999J0D01*
G01*
X157080001Y-121375000D01*
G75*
G02*
X157330000Y-121624999I0J-249999D01*
G01*
X157330000Y-122525001D01*
G75*
G02*
X157080001Y-122775000I-249999J0D01*
G01*
X156429999Y-122775000D01*
G75*
G02*
X156180000Y-122525001I0J249999D01*
G01*
G37*
G36*
G01*
X154130000Y-122525001D02*
X154130000Y-121624999D01*
G75*
G02*
X154379999Y-121375000I249999J0D01*
G01*
X155030001Y-121375000D01*
G75*
G02*
X155280000Y-121624999I0J-249999D01*
G01*
X155280000Y-122525001D01*
G75*
G02*
X155030001Y-122775000I-249999J0D01*
G01*
X154379999Y-122775000D01*
G75*
G02*
X154130000Y-122525001I0J249999D01*
G01*
G37*
%TD*%
%TO.C,R4*%
G36*
G01*
X170572500Y-101405000D02*
X170097500Y-101405000D01*
G75*
G02*
X169860000Y-101167500I0J237500D01*
G01*
X169860000Y-100592500D01*
G75*
G02*
X170097500Y-100355000I237500J0D01*
G01*
X170572500Y-100355000D01*
G75*
G02*
X170810000Y-100592500I0J-237500D01*
G01*
X170810000Y-101167500D01*
G75*
G02*
X170572500Y-101405000I-237500J0D01*
G01*
G37*
G36*
G01*
X170572500Y-103155000D02*
X170097500Y-103155000D01*
G75*
G02*
X169860000Y-102917500I0J237500D01*
G01*
X169860000Y-102342500D01*
G75*
G02*
X170097500Y-102105000I237500J0D01*
G01*
X170572500Y-102105000D01*
G75*
G02*
X170810000Y-102342500I0J-237500D01*
G01*
X170810000Y-102917500D01*
G75*
G02*
X170572500Y-103155000I-237500J0D01*
G01*
G37*
%TD*%
%TO.C,R3*%
G36*
G01*
X168192500Y-102105000D02*
X168667500Y-102105000D01*
G75*
G02*
X168905000Y-102342500I0J-237500D01*
G01*
X168905000Y-102917500D01*
G75*
G02*
X168667500Y-103155000I-237500J0D01*
G01*
X168192500Y-103155000D01*
G75*
G02*
X167955000Y-102917500I0J237500D01*
G01*
X167955000Y-102342500D01*
G75*
G02*
X168192500Y-102105000I237500J0D01*
G01*
G37*
G36*
G01*
X168192500Y-100355000D02*
X168667500Y-100355000D01*
G75*
G02*
X168905000Y-100592500I0J-237500D01*
G01*
X168905000Y-101167500D01*
G75*
G02*
X168667500Y-101405000I-237500J0D01*
G01*
X168192500Y-101405000D01*
G75*
G02*
X167955000Y-101167500I0J237500D01*
G01*
X167955000Y-100592500D01*
G75*
G02*
X168192500Y-100355000I237500J0D01*
G01*
G37*
%TD*%
%TO.C,R2*%
G36*
G01*
X180892500Y-104010000D02*
X181367500Y-104010000D01*
G75*
G02*
X181605000Y-104247500I0J-237500D01*
G01*
X181605000Y-104822500D01*
G75*
G02*
X181367500Y-105060000I-237500J0D01*
G01*
X180892500Y-105060000D01*
G75*
G02*
X180655000Y-104822500I0J237500D01*
G01*
X180655000Y-104247500D01*
G75*
G02*
X180892500Y-104010000I237500J0D01*
G01*
G37*
G36*
G01*
X180892500Y-102260000D02*
X181367500Y-102260000D01*
G75*
G02*
X181605000Y-102497500I0J-237500D01*
G01*
X181605000Y-103072500D01*
G75*
G02*
X181367500Y-103310000I-237500J0D01*
G01*
X180892500Y-103310000D01*
G75*
G02*
X180655000Y-103072500I0J237500D01*
G01*
X180655000Y-102497500D01*
G75*
G02*
X180892500Y-102260000I237500J0D01*
G01*
G37*
%TD*%
%TO.C,R1*%
G36*
G01*
X145220000Y-107232500D02*
X145220000Y-107707500D01*
G75*
G02*
X144982500Y-107945000I-237500J0D01*
G01*
X144407500Y-107945000D01*
G75*
G02*
X144170000Y-107707500I0J237500D01*
G01*
X144170000Y-107232500D01*
G75*
G02*
X144407500Y-106995000I237500J0D01*
G01*
X144982500Y-106995000D01*
G75*
G02*
X145220000Y-107232500I0J-237500D01*
G01*
G37*
G36*
G01*
X146970000Y-107232500D02*
X146970000Y-107707500D01*
G75*
G02*
X146732500Y-107945000I-237500J0D01*
G01*
X146157500Y-107945000D01*
G75*
G02*
X145920000Y-107707500I0J237500D01*
G01*
X145920000Y-107232500D01*
G75*
G02*
X146157500Y-106995000I237500J0D01*
G01*
X146732500Y-106995000D01*
G75*
G02*
X146970000Y-107232500I0J-237500D01*
G01*
G37*
%TD*%
%TO.C,C2*%
G36*
G01*
X172477500Y-101405000D02*
X172002500Y-101405000D01*
G75*
G02*
X171765000Y-101167500I0J237500D01*
G01*
X171765000Y-100592500D01*
G75*
G02*
X172002500Y-100355000I237500J0D01*
G01*
X172477500Y-100355000D01*
G75*
G02*
X172715000Y-100592500I0J-237500D01*
G01*
X172715000Y-101167500D01*
G75*
G02*
X172477500Y-101405000I-237500J0D01*
G01*
G37*
G36*
G01*
X172477500Y-103155000D02*
X172002500Y-103155000D01*
G75*
G02*
X171765000Y-102917500I0J237500D01*
G01*
X171765000Y-102342500D01*
G75*
G02*
X172002500Y-102105000I237500J0D01*
G01*
X172477500Y-102105000D01*
G75*
G02*
X172715000Y-102342500I0J-237500D01*
G01*
X172715000Y-102917500D01*
G75*
G02*
X172477500Y-103155000I-237500J0D01*
G01*
G37*
%TD*%
%TO.C,C1*%
G36*
G01*
X179462500Y-103310000D02*
X178987500Y-103310000D01*
G75*
G02*
X178750000Y-103072500I0J237500D01*
G01*
X178750000Y-102497500D01*
G75*
G02*
X178987500Y-102260000I237500J0D01*
G01*
X179462500Y-102260000D01*
G75*
G02*
X179700000Y-102497500I0J-237500D01*
G01*
X179700000Y-103072500D01*
G75*
G02*
X179462500Y-103310000I-237500J0D01*
G01*
G37*
G36*
G01*
X179462500Y-105060000D02*
X178987500Y-105060000D01*
G75*
G02*
X178750000Y-104822500I0J237500D01*
G01*
X178750000Y-104247500D01*
G75*
G02*
X178987500Y-104010000I237500J0D01*
G01*
X179462500Y-104010000D01*
G75*
G02*
X179700000Y-104247500I0J-237500D01*
G01*
X179700000Y-104822500D01*
G75*
G02*
X179462500Y-105060000I-237500J0D01*
G01*
G37*
%TD*%
%TO.C,R53*%
G36*
G01*
X181494500Y-98992000D02*
X181019500Y-98992000D01*
G75*
G02*
X180782000Y-98754500I0J237500D01*
G01*
X180782000Y-98179500D01*
G75*
G02*
X181019500Y-97942000I237500J0D01*
G01*
X181494500Y-97942000D01*
G75*
G02*
X181732000Y-98179500I0J-237500D01*
G01*
X181732000Y-98754500D01*
G75*
G02*
X181494500Y-98992000I-237500J0D01*
G01*
G37*
G36*
G01*
X181494500Y-100742000D02*
X181019500Y-100742000D01*
G75*
G02*
X180782000Y-100504500I0J237500D01*
G01*
X180782000Y-99929500D01*
G75*
G02*
X181019500Y-99692000I237500J0D01*
G01*
X181494500Y-99692000D01*
G75*
G02*
X181732000Y-99929500I0J-237500D01*
G01*
X181732000Y-100504500D01*
G75*
G02*
X181494500Y-100742000I-237500J0D01*
G01*
G37*
%TD*%
%TO.C,R52*%
G36*
G01*
X181494500Y-95309000D02*
X181019500Y-95309000D01*
G75*
G02*
X180782000Y-95071500I0J237500D01*
G01*
X180782000Y-94496500D01*
G75*
G02*
X181019500Y-94259000I237500J0D01*
G01*
X181494500Y-94259000D01*
G75*
G02*
X181732000Y-94496500I0J-237500D01*
G01*
X181732000Y-95071500D01*
G75*
G02*
X181494500Y-95309000I-237500J0D01*
G01*
G37*
G36*
G01*
X181494500Y-97059000D02*
X181019500Y-97059000D01*
G75*
G02*
X180782000Y-96821500I0J237500D01*
G01*
X180782000Y-96246500D01*
G75*
G02*
X181019500Y-96009000I237500J0D01*
G01*
X181494500Y-96009000D01*
G75*
G02*
X181732000Y-96246500I0J-237500D01*
G01*
X181732000Y-96821500D01*
G75*
G02*
X181494500Y-97059000I-237500J0D01*
G01*
G37*
%TD*%
M02*
