%TF.GenerationSoftware,KiCad,Pcbnew,5.1.9-1.fc32*%
%TF.CreationDate,2021-04-18T22:57:20+02:00*%
%TF.ProjectId,energy-meter,656e6572-6779-42d6-9d65-7465722e6b69,rev?*%
%TF.SameCoordinates,Original*%
%TF.FileFunction,Legend,Bot*%
%TF.FilePolarity,Positive*%
%FSLAX46Y46*%
G04 Gerber Fmt 4.6, Leading zero omitted, Abs format (unit mm)*
G04 Created by KiCad (PCBNEW 5.1.9-1.fc32) date 2021-04-18 22:57:20*
%MOMM*%
%LPD*%
G01*
G04 APERTURE LIST*
%ADD10C,0.010000*%
%ADD11C,0.120000*%
%ADD12C,0.150000*%
G04 APERTURE END LIST*
D10*
%TO.C,G\u002A\u002A\u002A*%
G36*
X165210608Y-115461389D02*
G01*
X165136885Y-115502227D01*
X165018920Y-115568669D01*
X164859026Y-115659391D01*
X164659511Y-115773065D01*
X164422688Y-115908365D01*
X164150868Y-116063966D01*
X163846359Y-116238542D01*
X163511475Y-116430765D01*
X163148524Y-116639312D01*
X162759818Y-116862854D01*
X162347668Y-117100067D01*
X161914385Y-117349624D01*
X161462278Y-117610200D01*
X160993660Y-117880467D01*
X160510839Y-118159101D01*
X160228302Y-118322232D01*
X159361359Y-118822875D01*
X158541569Y-119296286D01*
X157767208Y-119743461D01*
X157036551Y-120165396D01*
X156347872Y-120563087D01*
X155699446Y-120937531D01*
X155089549Y-121289723D01*
X154516455Y-121620659D01*
X153978439Y-121931336D01*
X153473776Y-122222750D01*
X153000741Y-122495897D01*
X152557608Y-122751772D01*
X152142654Y-122991373D01*
X151754152Y-123215695D01*
X151390377Y-123425735D01*
X151049605Y-123622487D01*
X150730111Y-123806950D01*
X150430168Y-123980118D01*
X150148053Y-124142988D01*
X149882040Y-124296556D01*
X149630404Y-124441818D01*
X149391420Y-124579770D01*
X149344722Y-124606725D01*
X147926556Y-125425326D01*
X147926556Y-145422896D01*
X149344722Y-146241494D01*
X149605263Y-146391890D01*
X149907028Y-146566092D01*
X150242358Y-146759679D01*
X150603599Y-146968231D01*
X150983094Y-147187327D01*
X151373184Y-147412547D01*
X151766215Y-147639470D01*
X152154530Y-147863676D01*
X152530471Y-148080745D01*
X152837222Y-148257868D01*
X153803830Y-148816011D01*
X154722584Y-149346517D01*
X155594510Y-149849977D01*
X156420633Y-150326983D01*
X157201978Y-150778127D01*
X157939570Y-151204000D01*
X158634433Y-151605194D01*
X159287594Y-151982300D01*
X159900077Y-152335910D01*
X160472908Y-152666617D01*
X161007110Y-152975011D01*
X161503711Y-153261684D01*
X161963734Y-153527228D01*
X162388204Y-153772234D01*
X162778147Y-153997294D01*
X163134588Y-154203000D01*
X163458552Y-154389943D01*
X163751064Y-154558715D01*
X164013149Y-154709908D01*
X164245832Y-154844113D01*
X164450138Y-154961922D01*
X164627093Y-155063927D01*
X164777721Y-155150718D01*
X164903047Y-155222888D01*
X165004097Y-155281029D01*
X165081896Y-155325732D01*
X165137469Y-155357589D01*
X165171840Y-155377191D01*
X165185851Y-155385034D01*
X165195718Y-155385107D01*
X165215504Y-155379103D01*
X165246655Y-155366198D01*
X165290614Y-155345568D01*
X165348829Y-155316389D01*
X165422742Y-155277838D01*
X165513800Y-155229090D01*
X165623448Y-155169323D01*
X165753131Y-155097711D01*
X165904293Y-155013432D01*
X166078380Y-154915662D01*
X166276837Y-154803577D01*
X166501109Y-154676353D01*
X166752641Y-154533166D01*
X167032878Y-154373193D01*
X167343266Y-154195609D01*
X167685248Y-153999592D01*
X168060271Y-153784317D01*
X168469780Y-153548961D01*
X168915219Y-153292699D01*
X169085204Y-153194826D01*
X164493361Y-153194826D01*
X164401458Y-153138567D01*
X164369619Y-153119921D01*
X164290861Y-153074197D01*
X164167153Y-153002531D01*
X164000462Y-152906061D01*
X163792755Y-152785924D01*
X163546002Y-152643256D01*
X163262170Y-152479194D01*
X162943227Y-152294876D01*
X162591140Y-152091437D01*
X162207878Y-151870016D01*
X161795409Y-151631748D01*
X161355700Y-151377771D01*
X160890719Y-151109222D01*
X160402435Y-150827236D01*
X159892815Y-150532953D01*
X159363827Y-150227507D01*
X158817439Y-149912036D01*
X158255619Y-149587677D01*
X157680335Y-149255567D01*
X157310445Y-149042042D01*
X156728559Y-148706118D01*
X156159351Y-148377457D01*
X155604763Y-148057183D01*
X155066735Y-147746417D01*
X154547208Y-147446284D01*
X154048125Y-147157905D01*
X153571425Y-146882404D01*
X153119051Y-146620903D01*
X152692943Y-146374525D01*
X152295042Y-146144394D01*
X151927290Y-145931631D01*
X151591628Y-145737360D01*
X151289998Y-145562703D01*
X151024339Y-145408784D01*
X150796594Y-145276725D01*
X150608704Y-145167649D01*
X150462609Y-145082679D01*
X150360252Y-145022937D01*
X150303573Y-144989547D01*
X150292138Y-144982499D01*
X150313150Y-144966204D01*
X150378502Y-144924545D01*
X150483559Y-144860217D01*
X150623684Y-144775916D01*
X150794243Y-144674335D01*
X150990598Y-144558171D01*
X151208114Y-144430118D01*
X151442155Y-144292871D01*
X151688086Y-144149124D01*
X151941269Y-144001574D01*
X152197070Y-143852914D01*
X152450852Y-143705840D01*
X152697980Y-143563046D01*
X152933817Y-143427229D01*
X153153728Y-143301081D01*
X153353077Y-143187299D01*
X153527227Y-143088578D01*
X153671543Y-143007612D01*
X153781389Y-142947096D01*
X153852130Y-142909725D01*
X153877431Y-142898308D01*
X153906158Y-142911062D01*
X153981631Y-142950925D01*
X154101759Y-143016705D01*
X154264453Y-143107211D01*
X154467622Y-143221250D01*
X154709175Y-143357631D01*
X154987022Y-143515163D01*
X155299072Y-143692653D01*
X155643235Y-143888909D01*
X156017421Y-144102740D01*
X156419538Y-144332954D01*
X156847497Y-144578359D01*
X157299207Y-144837763D01*
X157772577Y-145109974D01*
X158265517Y-145393801D01*
X158775936Y-145688052D01*
X159201334Y-145933552D01*
X164478889Y-148980723D01*
X164486125Y-151087775D01*
X164493361Y-153194826D01*
X169085204Y-153194826D01*
X169398033Y-153014708D01*
X169919668Y-152714165D01*
X170481569Y-152390245D01*
X171085180Y-152042125D01*
X171731948Y-151668981D01*
X172423316Y-151269989D01*
X173160730Y-150844325D01*
X173899462Y-150417826D01*
X182555222Y-145420158D01*
X182555222Y-144977333D01*
X180193869Y-144977333D01*
X180168695Y-144992432D01*
X180096562Y-145034631D01*
X179979393Y-145102817D01*
X179819117Y-145195876D01*
X179617658Y-145312695D01*
X179376944Y-145452158D01*
X179098899Y-145613152D01*
X178785451Y-145794563D01*
X178438526Y-145995278D01*
X178060049Y-146214182D01*
X177651947Y-146450161D01*
X177216147Y-146702102D01*
X176754573Y-146968890D01*
X176269152Y-147249412D01*
X175761811Y-147542553D01*
X175234476Y-147847200D01*
X174689072Y-148162239D01*
X174127526Y-148486556D01*
X173551764Y-148819036D01*
X173092078Y-149084455D01*
X166002889Y-153177465D01*
X165995651Y-151089826D01*
X165994761Y-150751489D01*
X165994463Y-150429609D01*
X165994727Y-150128637D01*
X165995525Y-149853026D01*
X165996825Y-149607226D01*
X165998598Y-149395690D01*
X166000814Y-149222870D01*
X166003444Y-149093218D01*
X166006458Y-149011186D01*
X166009762Y-148981278D01*
X166037191Y-148964107D01*
X166110707Y-148920452D01*
X166227585Y-148851883D01*
X166385102Y-148759970D01*
X166580532Y-148646283D01*
X166811152Y-148512393D01*
X167074237Y-148359870D01*
X167367063Y-148190284D01*
X167686905Y-148005205D01*
X168031040Y-147806203D01*
X168396743Y-147594848D01*
X168781289Y-147372711D01*
X169181954Y-147141362D01*
X169596015Y-146902371D01*
X170020745Y-146657309D01*
X170453422Y-146407744D01*
X170891321Y-146155248D01*
X171331717Y-145901391D01*
X171771887Y-145647743D01*
X172209105Y-145395873D01*
X172640648Y-145147353D01*
X173063791Y-144903753D01*
X173475810Y-144666642D01*
X173873980Y-144437591D01*
X174255577Y-144218169D01*
X174617878Y-144009948D01*
X174958156Y-143814498D01*
X175273689Y-143633388D01*
X175561752Y-143468188D01*
X175819620Y-143320470D01*
X176044570Y-143191802D01*
X176233876Y-143083756D01*
X176384814Y-142997901D01*
X176494661Y-142935808D01*
X176560692Y-142899046D01*
X176580345Y-142888889D01*
X176609901Y-142902549D01*
X176683047Y-142941745D01*
X176795152Y-143003799D01*
X176941583Y-143086035D01*
X177117706Y-143185774D01*
X177318891Y-143300339D01*
X177540504Y-143427053D01*
X177777913Y-143563238D01*
X178026485Y-143706218D01*
X178281587Y-143853314D01*
X178538588Y-144001850D01*
X178792855Y-144149148D01*
X179039754Y-144292530D01*
X179274655Y-144429320D01*
X179492924Y-144556840D01*
X179689928Y-144672412D01*
X179861036Y-144773359D01*
X180001614Y-144857005D01*
X180107030Y-144920670D01*
X180172652Y-144961679D01*
X180193869Y-144977333D01*
X182555222Y-144977333D01*
X182555222Y-135424784D01*
X181059445Y-135424784D01*
X181059373Y-136102382D01*
X181059162Y-136765154D01*
X181058817Y-137410892D01*
X181058344Y-138037387D01*
X181057749Y-138642429D01*
X181057037Y-139223811D01*
X181056214Y-139779324D01*
X181055286Y-140306759D01*
X181054258Y-140803908D01*
X181053136Y-141268562D01*
X181051926Y-141698513D01*
X181050633Y-142091551D01*
X181049264Y-142445468D01*
X181047823Y-142758057D01*
X181046317Y-143027107D01*
X181044751Y-143250411D01*
X181043131Y-143425759D01*
X181041462Y-143550944D01*
X181039751Y-143623756D01*
X181038278Y-143642826D01*
X181010990Y-143627221D01*
X180938653Y-143585630D01*
X180825109Y-143520268D01*
X180674205Y-143433351D01*
X180489783Y-143327094D01*
X180275689Y-143203712D01*
X180035767Y-143065420D01*
X179773861Y-142914434D01*
X179493816Y-142752970D01*
X179199476Y-142583241D01*
X179189722Y-142577617D01*
X177362334Y-141523800D01*
X177362334Y-132534094D01*
X175862413Y-132534094D01*
X175862390Y-132939230D01*
X175862178Y-133388785D01*
X175861795Y-133885047D01*
X175861257Y-134430305D01*
X175860583Y-135026849D01*
X175859788Y-135676968D01*
X175859570Y-135850739D01*
X175852445Y-141490987D01*
X170927667Y-144334767D01*
X166002889Y-147178548D01*
X165997822Y-143170404D01*
X164487046Y-143170404D01*
X164486914Y-143677623D01*
X164486556Y-144161283D01*
X164485981Y-144618736D01*
X164485197Y-145047336D01*
X164484212Y-145444435D01*
X164483034Y-145807383D01*
X164481671Y-146133535D01*
X164480130Y-146420242D01*
X164478421Y-146664856D01*
X164476549Y-146864730D01*
X164474525Y-147017216D01*
X164472355Y-147119665D01*
X164470048Y-147169432D01*
X164469039Y-147173986D01*
X164442570Y-147159150D01*
X164369546Y-147117427D01*
X164252290Y-147050156D01*
X164093127Y-146958677D01*
X163894381Y-146844329D01*
X163658376Y-146708451D01*
X163387437Y-146552385D01*
X163083886Y-146377468D01*
X162750049Y-146185040D01*
X162388250Y-145976442D01*
X162000812Y-145753012D01*
X161590060Y-145516090D01*
X161158318Y-145267016D01*
X160707910Y-145007129D01*
X160241160Y-144737769D01*
X159760393Y-144460276D01*
X159537136Y-144331400D01*
X159050491Y-144050412D01*
X158576708Y-143776733D01*
X158118118Y-143511717D01*
X157677056Y-143256714D01*
X157255853Y-143013078D01*
X156856841Y-142782160D01*
X156482353Y-142565313D01*
X156134722Y-142363889D01*
X155816279Y-142179239D01*
X155529358Y-142012716D01*
X155276290Y-141865673D01*
X155059408Y-141739461D01*
X154881045Y-141635432D01*
X154743532Y-141554939D01*
X154742432Y-141554290D01*
X153063127Y-141554290D01*
X149492889Y-143617974D01*
X149485739Y-139530378D01*
X149484862Y-138958375D01*
X149484140Y-138339022D01*
X149483572Y-137681413D01*
X149483158Y-136994642D01*
X149482898Y-136287803D01*
X149482792Y-135569991D01*
X149482841Y-134850299D01*
X149483044Y-134137823D01*
X149483401Y-133441655D01*
X149483912Y-132770890D01*
X149484578Y-132134622D01*
X149485398Y-131541945D01*
X149485739Y-131336315D01*
X149492889Y-127229846D01*
X151270889Y-128256449D01*
X153048889Y-129283051D01*
X153056008Y-135418670D01*
X153063127Y-141554290D01*
X154742432Y-141554290D01*
X154649203Y-141499333D01*
X154600389Y-141469968D01*
X154593897Y-141465677D01*
X154587445Y-141449000D01*
X154581850Y-141409626D01*
X154577078Y-141344540D01*
X154573094Y-141250728D01*
X154569862Y-141125176D01*
X154567349Y-140964868D01*
X154565519Y-140766791D01*
X154564339Y-140527928D01*
X154563772Y-140245267D01*
X154563786Y-139915792D01*
X154564343Y-139536488D01*
X154565412Y-139104341D01*
X154565675Y-139014139D01*
X154572889Y-136595168D01*
X154855111Y-136758821D01*
X154988064Y-136835769D01*
X155122182Y-136913143D01*
X155238896Y-136980241D01*
X155299611Y-137014975D01*
X155461889Y-137107476D01*
X155461889Y-135611818D01*
X155010334Y-135350059D01*
X154558778Y-135088299D01*
X154558778Y-132622817D01*
X154559014Y-132255502D01*
X154559700Y-131905012D01*
X154560800Y-131575364D01*
X154562281Y-131270572D01*
X154564107Y-130994654D01*
X154566244Y-130751624D01*
X154568657Y-130545498D01*
X154571311Y-130380292D01*
X154574172Y-130260022D01*
X154577206Y-130188704D01*
X154579945Y-130169593D01*
X154606259Y-130184786D01*
X154678951Y-130226748D01*
X154795514Y-130294031D01*
X154953441Y-130385189D01*
X155150224Y-130498774D01*
X155383355Y-130633339D01*
X155650327Y-130787436D01*
X155948633Y-130959619D01*
X156275765Y-131148439D01*
X156629216Y-131352450D01*
X157006478Y-131570205D01*
X157405044Y-131800255D01*
X157822407Y-132041155D01*
X158256058Y-132291455D01*
X158703491Y-132549710D01*
X158820334Y-132617151D01*
X159283453Y-132884462D01*
X159740857Y-133148482D01*
X160189458Y-133407426D01*
X160626166Y-133659511D01*
X161047890Y-133902954D01*
X161451541Y-134135969D01*
X161834030Y-134356775D01*
X162192266Y-134563586D01*
X162523161Y-134754621D01*
X162823624Y-134928093D01*
X163090567Y-135082222D01*
X163320899Y-135215221D01*
X163511530Y-135325309D01*
X163659371Y-135410700D01*
X163759222Y-135468393D01*
X164478889Y-135884335D01*
X164486014Y-141533876D01*
X164486604Y-142095883D01*
X164486946Y-142642275D01*
X164487046Y-143170404D01*
X165997822Y-143170404D01*
X165995764Y-141542699D01*
X165995161Y-140982721D01*
X165994780Y-140437772D01*
X165994614Y-139910538D01*
X165994657Y-139403707D01*
X165994902Y-138919966D01*
X165995342Y-138462002D01*
X165995971Y-138032503D01*
X165996781Y-137634155D01*
X165997767Y-137269645D01*
X165998920Y-136941662D01*
X166000236Y-136652892D01*
X166001707Y-136406022D01*
X166003326Y-136203739D01*
X166005086Y-136048732D01*
X166006981Y-135943686D01*
X166009005Y-135891289D01*
X166009875Y-135885644D01*
X166036654Y-135868914D01*
X166107828Y-135826655D01*
X166219042Y-135761381D01*
X166365944Y-135675607D01*
X166544181Y-135571848D01*
X166749399Y-135452619D01*
X166977244Y-135320435D01*
X167223364Y-135177811D01*
X167483406Y-135027262D01*
X167753015Y-134871303D01*
X168027839Y-134712450D01*
X168303524Y-134553216D01*
X168575717Y-134396117D01*
X168840064Y-134243669D01*
X169092213Y-134098385D01*
X169327810Y-133962781D01*
X169542502Y-133839372D01*
X169731935Y-133730673D01*
X169891757Y-133639199D01*
X170017613Y-133567465D01*
X170105150Y-133517985D01*
X170150016Y-133493276D01*
X170155073Y-133490889D01*
X170156555Y-133518480D01*
X170157976Y-133598727D01*
X170159320Y-133727843D01*
X170160575Y-133902040D01*
X170161725Y-134117530D01*
X170162756Y-134370524D01*
X170163654Y-134657236D01*
X170164405Y-134973876D01*
X170164994Y-135316659D01*
X170165407Y-135681794D01*
X170165630Y-136065495D01*
X170165667Y-136299000D01*
X170165875Y-136691853D01*
X170166480Y-137068359D01*
X170167453Y-137424733D01*
X170168766Y-137757187D01*
X170170390Y-138061935D01*
X170172297Y-138335192D01*
X170174458Y-138573171D01*
X170176845Y-138772085D01*
X170179428Y-138928149D01*
X170182180Y-139037576D01*
X170185072Y-139096580D01*
X170186834Y-139106209D01*
X170215725Y-139092345D01*
X170287132Y-139053576D01*
X170394811Y-138993426D01*
X170532514Y-138915418D01*
X170693996Y-138823075D01*
X170873011Y-138719921D01*
X170927667Y-138688282D01*
X171647334Y-138271258D01*
X171675556Y-132607448D01*
X173721667Y-131423292D01*
X174034418Y-131242459D01*
X174333762Y-131069703D01*
X174616014Y-130907132D01*
X174877489Y-130756853D01*
X175114501Y-130620974D01*
X175323366Y-130501602D01*
X175500396Y-130400845D01*
X175641908Y-130320812D01*
X175744216Y-130263610D01*
X175803634Y-130231346D01*
X175817236Y-130224813D01*
X175823057Y-130225046D01*
X175828396Y-130230785D01*
X175833271Y-130244319D01*
X175837699Y-130267937D01*
X175841697Y-130303928D01*
X175845283Y-130354581D01*
X175848472Y-130422185D01*
X175851284Y-130509028D01*
X175853735Y-130617400D01*
X175855842Y-130749591D01*
X175857622Y-130907887D01*
X175859094Y-131094580D01*
X175860273Y-131311958D01*
X175861177Y-131562309D01*
X175861823Y-131847923D01*
X175862230Y-132171088D01*
X175862413Y-132534094D01*
X177362334Y-132534094D01*
X177362334Y-129320177D01*
X178128523Y-128878488D01*
X175012787Y-128878488D01*
X174985544Y-128895323D01*
X174912320Y-128938564D01*
X174795948Y-129006579D01*
X174639262Y-129097737D01*
X174445094Y-129210407D01*
X174216277Y-129342958D01*
X173955644Y-129493758D01*
X173666029Y-129661177D01*
X173350264Y-129843584D01*
X173011182Y-130039346D01*
X172651617Y-130246834D01*
X172274401Y-130464416D01*
X171882367Y-130690460D01*
X171478349Y-130923337D01*
X171065179Y-131161413D01*
X170645690Y-131403059D01*
X170222715Y-131646644D01*
X169799088Y-131890535D01*
X169377642Y-132133103D01*
X168961208Y-132372715D01*
X168552621Y-132607741D01*
X168154714Y-132836549D01*
X167770319Y-133057509D01*
X167402269Y-133268990D01*
X167053397Y-133469359D01*
X166726537Y-133656986D01*
X166424521Y-133830240D01*
X166150183Y-133987490D01*
X165906355Y-134127105D01*
X165695871Y-134247452D01*
X165521562Y-134346903D01*
X165386264Y-134423824D01*
X165292807Y-134476585D01*
X165244026Y-134503555D01*
X165237298Y-134506861D01*
X165207696Y-134493104D01*
X165133699Y-134453485D01*
X165019714Y-134390495D01*
X164870151Y-134306630D01*
X164689418Y-134204380D01*
X164481925Y-134086240D01*
X164252081Y-133954703D01*
X164004295Y-133812260D01*
X163783854Y-133685045D01*
X163462798Y-133499486D01*
X163106509Y-133293639D01*
X162727287Y-133074605D01*
X162337433Y-132849487D01*
X161949249Y-132625388D01*
X161575034Y-132409410D01*
X161227090Y-132208655D01*
X160965222Y-132057617D01*
X160707117Y-131908701D01*
X160462809Y-131767593D01*
X160236830Y-131636920D01*
X160033712Y-131519312D01*
X159857989Y-131417395D01*
X159714191Y-131333798D01*
X159606852Y-131271149D01*
X159540503Y-131232076D01*
X159520385Y-131219835D01*
X159510920Y-131205592D01*
X159521504Y-131184489D01*
X159557174Y-131153001D01*
X159622967Y-131107603D01*
X159723919Y-131044771D01*
X159865069Y-130960978D01*
X160014274Y-130874193D01*
X160120224Y-130812926D01*
X160270477Y-130726094D01*
X160460450Y-130616342D01*
X160685560Y-130486318D01*
X160941222Y-130338669D01*
X161222853Y-130176042D01*
X161525868Y-130001083D01*
X161845684Y-129816440D01*
X162177718Y-129624760D01*
X162517385Y-129428689D01*
X162813778Y-129257611D01*
X163143534Y-129067244D01*
X163460514Y-128884174D01*
X163761151Y-128710467D01*
X164041876Y-128548189D01*
X164299120Y-128399404D01*
X164529316Y-128266177D01*
X164728895Y-128150575D01*
X164894289Y-128054662D01*
X165021929Y-127980504D01*
X165108247Y-127930165D01*
X165149675Y-127905712D01*
X165151483Y-127904601D01*
X165231410Y-127854729D01*
X164558816Y-127465890D01*
X164378543Y-127361678D01*
X164211100Y-127264896D01*
X164063662Y-127179691D01*
X163943406Y-127110208D01*
X163857507Y-127060595D01*
X163813141Y-127034999D01*
X163812692Y-127034740D01*
X163800613Y-127028854D01*
X163786139Y-127025720D01*
X163766596Y-127026808D01*
X163739309Y-127033583D01*
X163701604Y-127047513D01*
X163650806Y-127070065D01*
X163584240Y-127102706D01*
X163499233Y-127146903D01*
X163393109Y-127204122D01*
X163263195Y-127275831D01*
X163106815Y-127363498D01*
X162921295Y-127468588D01*
X162703960Y-127592569D01*
X162452137Y-127736908D01*
X162163149Y-127903073D01*
X161834324Y-128092529D01*
X161462986Y-128306745D01*
X161046461Y-128547186D01*
X160877346Y-128644830D01*
X160507070Y-128858556D01*
X160150219Y-129064395D01*
X159809861Y-129260586D01*
X159489062Y-129445367D01*
X159190887Y-129616977D01*
X158918402Y-129773655D01*
X158674673Y-129913639D01*
X158462767Y-130035168D01*
X158285749Y-130136480D01*
X158146684Y-130215814D01*
X158048640Y-130271409D01*
X157994682Y-130301503D01*
X157984867Y-130306560D01*
X157954588Y-130295114D01*
X157882009Y-130258483D01*
X157772674Y-130199871D01*
X157632126Y-130122483D01*
X157465909Y-130029524D01*
X157279568Y-129924198D01*
X157078647Y-129809711D01*
X156868689Y-129689266D01*
X156655239Y-129566068D01*
X156443840Y-129443322D01*
X156240037Y-129324232D01*
X156049374Y-129212004D01*
X155877394Y-129109841D01*
X155729642Y-129020949D01*
X155611661Y-128948532D01*
X155528996Y-128895794D01*
X155487191Y-128865941D01*
X155483349Y-128860593D01*
X155509456Y-128844913D01*
X155581604Y-128802701D01*
X155696953Y-128735593D01*
X155852669Y-128645227D01*
X156045912Y-128533240D01*
X156273847Y-128401270D01*
X156533635Y-128250954D01*
X156822440Y-128083929D01*
X157137424Y-127901832D01*
X157475751Y-127706302D01*
X157834583Y-127498974D01*
X158211082Y-127281487D01*
X158602413Y-127055478D01*
X159005737Y-126822585D01*
X159418217Y-126584444D01*
X159837016Y-126342692D01*
X160259297Y-126098969D01*
X160682223Y-125854909D01*
X161102956Y-125612152D01*
X161518660Y-125372333D01*
X161926497Y-125137092D01*
X162323630Y-124908064D01*
X162707222Y-124686888D01*
X163074435Y-124475200D01*
X163422432Y-124274638D01*
X163748377Y-124086839D01*
X164049432Y-123913441D01*
X164322759Y-123756081D01*
X164565523Y-123616396D01*
X164774884Y-123496024D01*
X164948007Y-123396602D01*
X165082054Y-123319767D01*
X165174187Y-123267157D01*
X165221571Y-123240408D01*
X165227544Y-123237243D01*
X165253757Y-123250402D01*
X165325808Y-123290063D01*
X165440662Y-123354494D01*
X165595284Y-123441959D01*
X165786639Y-123550725D01*
X166011691Y-123679056D01*
X166267404Y-123825220D01*
X166550745Y-123987482D01*
X166858677Y-124164108D01*
X167188166Y-124353363D01*
X167536175Y-124553513D01*
X167899671Y-124762824D01*
X168130138Y-124895661D01*
X168567287Y-125147780D01*
X168958004Y-125373296D01*
X169304799Y-125573720D01*
X169610182Y-125750564D01*
X169876664Y-125905342D01*
X170106757Y-126039565D01*
X170302970Y-126154745D01*
X170467814Y-126252395D01*
X170603800Y-126334027D01*
X170713438Y-126401154D01*
X170799240Y-126455287D01*
X170863716Y-126497939D01*
X170909376Y-126530622D01*
X170938731Y-126554849D01*
X170954293Y-126572131D01*
X170958571Y-126583982D01*
X170954076Y-126591912D01*
X170950309Y-126594367D01*
X170879417Y-126633686D01*
X170767215Y-126697181D01*
X170617398Y-126782703D01*
X170433660Y-126888104D01*
X170219695Y-127011237D01*
X169979197Y-127149953D01*
X169715862Y-127302103D01*
X169433384Y-127465540D01*
X169135457Y-127638115D01*
X168825776Y-127817680D01*
X168508036Y-128002088D01*
X168185930Y-128189189D01*
X167863153Y-128376836D01*
X167543400Y-128562881D01*
X167230365Y-128745175D01*
X166927743Y-128921571D01*
X166639229Y-129089919D01*
X166368516Y-129248072D01*
X166119299Y-129393883D01*
X165895273Y-129525201D01*
X165700132Y-129639881D01*
X165537571Y-129735772D01*
X165411284Y-129810727D01*
X165324965Y-129862599D01*
X165282310Y-129889238D01*
X165278300Y-129892363D01*
X165301868Y-129911589D01*
X165368493Y-129955047D01*
X165472156Y-130019089D01*
X165606835Y-130100069D01*
X165766509Y-130194337D01*
X165945158Y-130298248D01*
X166009407Y-130335274D01*
X166740393Y-130755531D01*
X169625507Y-129089531D01*
X172510622Y-127423531D01*
X173765209Y-128147737D01*
X174007512Y-128287806D01*
X174234144Y-128419202D01*
X174440566Y-128539268D01*
X174622240Y-128645344D01*
X174774626Y-128734773D01*
X174893185Y-128804895D01*
X174973378Y-128853052D01*
X175010666Y-128876584D01*
X175012787Y-128878488D01*
X178128523Y-128878488D01*
X179147389Y-128291137D01*
X179439953Y-128122524D01*
X179719305Y-127961610D01*
X179981430Y-127810702D01*
X180222316Y-127672107D01*
X180437948Y-127548130D01*
X180624312Y-127441080D01*
X180777395Y-127353263D01*
X180893183Y-127286986D01*
X180967661Y-127244555D01*
X180995945Y-127228722D01*
X181059445Y-127195347D01*
X181059445Y-135424784D01*
X182555222Y-135424784D01*
X182555222Y-125866288D01*
X180189069Y-125866288D01*
X180168138Y-125882659D01*
X180102828Y-125924354D01*
X179997765Y-125988692D01*
X179857575Y-126072988D01*
X179686884Y-126174557D01*
X179490319Y-126290716D01*
X179272504Y-126418781D01*
X179038065Y-126556068D01*
X178791629Y-126699893D01*
X178537822Y-126847572D01*
X178281268Y-126996420D01*
X178026595Y-127143755D01*
X177778427Y-127286892D01*
X177541392Y-127423146D01*
X177320113Y-127549835D01*
X177119218Y-127664274D01*
X176943333Y-127763779D01*
X176797083Y-127845665D01*
X176685093Y-127907250D01*
X176611991Y-127945849D01*
X176582635Y-127958790D01*
X176555501Y-127944928D01*
X176481749Y-127904098D01*
X176363623Y-127837588D01*
X176203367Y-127746684D01*
X176003226Y-127632676D01*
X175765442Y-127496850D01*
X175492262Y-127340496D01*
X175185927Y-127164901D01*
X174848684Y-126971353D01*
X174482776Y-126761141D01*
X174090447Y-126535551D01*
X173673941Y-126295872D01*
X173235503Y-126043393D01*
X172777376Y-125779400D01*
X172301805Y-125505183D01*
X171811034Y-125222028D01*
X171307307Y-124931225D01*
X171276857Y-124913640D01*
X166002889Y-121867947D01*
X165995653Y-119760671D01*
X165995599Y-119744855D01*
X164493000Y-119744855D01*
X164493000Y-121856435D01*
X159210069Y-124907884D01*
X158705262Y-125199389D01*
X158213307Y-125483328D01*
X157736443Y-125758414D01*
X157276911Y-126023359D01*
X156836951Y-126276876D01*
X156418802Y-126517679D01*
X156024706Y-126744481D01*
X155656902Y-126955994D01*
X155317630Y-127150931D01*
X155009130Y-127328005D01*
X154733643Y-127485929D01*
X154493408Y-127623417D01*
X154290666Y-127739180D01*
X154127657Y-127831932D01*
X154006621Y-127900387D01*
X153929797Y-127943256D01*
X153899427Y-127959253D01*
X153899083Y-127959333D01*
X153870651Y-127945570D01*
X153797252Y-127905752D01*
X153682775Y-127842089D01*
X153531110Y-127756788D01*
X153346150Y-127652057D01*
X153131784Y-127530106D01*
X152891904Y-127393142D01*
X152630399Y-127243375D01*
X152351161Y-127083011D01*
X152071796Y-126922167D01*
X151780375Y-126753774D01*
X151504110Y-126593354D01*
X151246771Y-126443145D01*
X151012129Y-126305385D01*
X150803955Y-126182312D01*
X150626018Y-126076165D01*
X150482090Y-125989181D01*
X150375941Y-125923599D01*
X150311342Y-125881657D01*
X150291948Y-125865674D01*
X150317688Y-125850137D01*
X150390380Y-125807498D01*
X150508095Y-125738875D01*
X150668900Y-125645386D01*
X150870865Y-125528147D01*
X151112058Y-125388277D01*
X151390549Y-125226894D01*
X151704406Y-125045113D01*
X152051699Y-124844054D01*
X152430495Y-124624832D01*
X152838864Y-124388567D01*
X153274875Y-124136375D01*
X153736596Y-123869374D01*
X154222097Y-123588681D01*
X154729446Y-123295414D01*
X155256712Y-122990690D01*
X155801964Y-122675627D01*
X156363271Y-122351342D01*
X156938701Y-122018953D01*
X157381000Y-121763503D01*
X157965801Y-121425768D01*
X158537948Y-121095338D01*
X159095509Y-120773327D01*
X159636552Y-120460851D01*
X160159147Y-120159025D01*
X160661361Y-119868966D01*
X161141264Y-119591789D01*
X161596923Y-119328609D01*
X162026407Y-119080543D01*
X162427785Y-118848705D01*
X162799126Y-118634212D01*
X163138497Y-118438179D01*
X163443967Y-118261722D01*
X163713606Y-118105957D01*
X163945480Y-117971998D01*
X164137659Y-117860963D01*
X164288212Y-117773966D01*
X164395206Y-117712122D01*
X164456710Y-117676549D01*
X164471834Y-117667774D01*
X164475245Y-117693153D01*
X164478486Y-117770633D01*
X164481512Y-117895870D01*
X164484281Y-118064520D01*
X164486747Y-118272239D01*
X164488866Y-118514685D01*
X164490595Y-118787513D01*
X164491890Y-119086380D01*
X164492706Y-119406942D01*
X164493000Y-119744855D01*
X165995599Y-119744855D01*
X165988417Y-117653396D01*
X166080320Y-117709841D01*
X166112159Y-117728504D01*
X166190915Y-117774246D01*
X166314621Y-117845932D01*
X166481309Y-117942423D01*
X166689011Y-118062582D01*
X166935759Y-118205274D01*
X167219586Y-118369360D01*
X167538524Y-118553704D01*
X167890604Y-118757169D01*
X168273859Y-118978617D01*
X168686321Y-119216913D01*
X169126022Y-119470918D01*
X169590994Y-119739496D01*
X170079270Y-120021509D01*
X170588882Y-120315822D01*
X171117861Y-120621296D01*
X171664240Y-120936795D01*
X172226052Y-121261182D01*
X172801328Y-121593320D01*
X173171334Y-121806932D01*
X173753204Y-122142878D01*
X174322394Y-122471557D01*
X174876961Y-122791846D01*
X175414966Y-123102621D01*
X175934466Y-123402761D01*
X176433522Y-123691142D01*
X176910191Y-123966643D01*
X177362534Y-124228139D01*
X177788610Y-124474510D01*
X178186477Y-124704631D01*
X178554195Y-124917380D01*
X178889822Y-125111634D01*
X179191418Y-125286272D01*
X179457043Y-125440169D01*
X179684754Y-125572204D01*
X179872611Y-125681253D01*
X180018674Y-125766194D01*
X180121001Y-125825905D01*
X180177652Y-125859262D01*
X180189069Y-125866288D01*
X182555222Y-125866288D01*
X182555222Y-125427821D01*
X173912201Y-120437651D01*
X173264946Y-120064001D01*
X172630132Y-119697631D01*
X172009504Y-119339548D01*
X171404813Y-118990757D01*
X170817804Y-118652264D01*
X170250227Y-118325075D01*
X169703830Y-118010194D01*
X169180359Y-117708627D01*
X168681564Y-117421381D01*
X168209193Y-117149460D01*
X167764993Y-116893871D01*
X167350712Y-116655618D01*
X166968098Y-116435707D01*
X166618899Y-116235144D01*
X166304863Y-116054935D01*
X166027739Y-115896084D01*
X165789274Y-115759598D01*
X165591215Y-115646482D01*
X165435312Y-115557742D01*
X165323312Y-115494383D01*
X165256963Y-115457411D01*
X165237780Y-115447481D01*
X165210608Y-115461389D01*
G37*
X165210608Y-115461389D02*
X165136885Y-115502227D01*
X165018920Y-115568669D01*
X164859026Y-115659391D01*
X164659511Y-115773065D01*
X164422688Y-115908365D01*
X164150868Y-116063966D01*
X163846359Y-116238542D01*
X163511475Y-116430765D01*
X163148524Y-116639312D01*
X162759818Y-116862854D01*
X162347668Y-117100067D01*
X161914385Y-117349624D01*
X161462278Y-117610200D01*
X160993660Y-117880467D01*
X160510839Y-118159101D01*
X160228302Y-118322232D01*
X159361359Y-118822875D01*
X158541569Y-119296286D01*
X157767208Y-119743461D01*
X157036551Y-120165396D01*
X156347872Y-120563087D01*
X155699446Y-120937531D01*
X155089549Y-121289723D01*
X154516455Y-121620659D01*
X153978439Y-121931336D01*
X153473776Y-122222750D01*
X153000741Y-122495897D01*
X152557608Y-122751772D01*
X152142654Y-122991373D01*
X151754152Y-123215695D01*
X151390377Y-123425735D01*
X151049605Y-123622487D01*
X150730111Y-123806950D01*
X150430168Y-123980118D01*
X150148053Y-124142988D01*
X149882040Y-124296556D01*
X149630404Y-124441818D01*
X149391420Y-124579770D01*
X149344722Y-124606725D01*
X147926556Y-125425326D01*
X147926556Y-145422896D01*
X149344722Y-146241494D01*
X149605263Y-146391890D01*
X149907028Y-146566092D01*
X150242358Y-146759679D01*
X150603599Y-146968231D01*
X150983094Y-147187327D01*
X151373184Y-147412547D01*
X151766215Y-147639470D01*
X152154530Y-147863676D01*
X152530471Y-148080745D01*
X152837222Y-148257868D01*
X153803830Y-148816011D01*
X154722584Y-149346517D01*
X155594510Y-149849977D01*
X156420633Y-150326983D01*
X157201978Y-150778127D01*
X157939570Y-151204000D01*
X158634433Y-151605194D01*
X159287594Y-151982300D01*
X159900077Y-152335910D01*
X160472908Y-152666617D01*
X161007110Y-152975011D01*
X161503711Y-153261684D01*
X161963734Y-153527228D01*
X162388204Y-153772234D01*
X162778147Y-153997294D01*
X163134588Y-154203000D01*
X163458552Y-154389943D01*
X163751064Y-154558715D01*
X164013149Y-154709908D01*
X164245832Y-154844113D01*
X164450138Y-154961922D01*
X164627093Y-155063927D01*
X164777721Y-155150718D01*
X164903047Y-155222888D01*
X165004097Y-155281029D01*
X165081896Y-155325732D01*
X165137469Y-155357589D01*
X165171840Y-155377191D01*
X165185851Y-155385034D01*
X165195718Y-155385107D01*
X165215504Y-155379103D01*
X165246655Y-155366198D01*
X165290614Y-155345568D01*
X165348829Y-155316389D01*
X165422742Y-155277838D01*
X165513800Y-155229090D01*
X165623448Y-155169323D01*
X165753131Y-155097711D01*
X165904293Y-155013432D01*
X166078380Y-154915662D01*
X166276837Y-154803577D01*
X166501109Y-154676353D01*
X166752641Y-154533166D01*
X167032878Y-154373193D01*
X167343266Y-154195609D01*
X167685248Y-153999592D01*
X168060271Y-153784317D01*
X168469780Y-153548961D01*
X168915219Y-153292699D01*
X169085204Y-153194826D01*
X164493361Y-153194826D01*
X164401458Y-153138567D01*
X164369619Y-153119921D01*
X164290861Y-153074197D01*
X164167153Y-153002531D01*
X164000462Y-152906061D01*
X163792755Y-152785924D01*
X163546002Y-152643256D01*
X163262170Y-152479194D01*
X162943227Y-152294876D01*
X162591140Y-152091437D01*
X162207878Y-151870016D01*
X161795409Y-151631748D01*
X161355700Y-151377771D01*
X160890719Y-151109222D01*
X160402435Y-150827236D01*
X159892815Y-150532953D01*
X159363827Y-150227507D01*
X158817439Y-149912036D01*
X158255619Y-149587677D01*
X157680335Y-149255567D01*
X157310445Y-149042042D01*
X156728559Y-148706118D01*
X156159351Y-148377457D01*
X155604763Y-148057183D01*
X155066735Y-147746417D01*
X154547208Y-147446284D01*
X154048125Y-147157905D01*
X153571425Y-146882404D01*
X153119051Y-146620903D01*
X152692943Y-146374525D01*
X152295042Y-146144394D01*
X151927290Y-145931631D01*
X151591628Y-145737360D01*
X151289998Y-145562703D01*
X151024339Y-145408784D01*
X150796594Y-145276725D01*
X150608704Y-145167649D01*
X150462609Y-145082679D01*
X150360252Y-145022937D01*
X150303573Y-144989547D01*
X150292138Y-144982499D01*
X150313150Y-144966204D01*
X150378502Y-144924545D01*
X150483559Y-144860217D01*
X150623684Y-144775916D01*
X150794243Y-144674335D01*
X150990598Y-144558171D01*
X151208114Y-144430118D01*
X151442155Y-144292871D01*
X151688086Y-144149124D01*
X151941269Y-144001574D01*
X152197070Y-143852914D01*
X152450852Y-143705840D01*
X152697980Y-143563046D01*
X152933817Y-143427229D01*
X153153728Y-143301081D01*
X153353077Y-143187299D01*
X153527227Y-143088578D01*
X153671543Y-143007612D01*
X153781389Y-142947096D01*
X153852130Y-142909725D01*
X153877431Y-142898308D01*
X153906158Y-142911062D01*
X153981631Y-142950925D01*
X154101759Y-143016705D01*
X154264453Y-143107211D01*
X154467622Y-143221250D01*
X154709175Y-143357631D01*
X154987022Y-143515163D01*
X155299072Y-143692653D01*
X155643235Y-143888909D01*
X156017421Y-144102740D01*
X156419538Y-144332954D01*
X156847497Y-144578359D01*
X157299207Y-144837763D01*
X157772577Y-145109974D01*
X158265517Y-145393801D01*
X158775936Y-145688052D01*
X159201334Y-145933552D01*
X164478889Y-148980723D01*
X164486125Y-151087775D01*
X164493361Y-153194826D01*
X169085204Y-153194826D01*
X169398033Y-153014708D01*
X169919668Y-152714165D01*
X170481569Y-152390245D01*
X171085180Y-152042125D01*
X171731948Y-151668981D01*
X172423316Y-151269989D01*
X173160730Y-150844325D01*
X173899462Y-150417826D01*
X182555222Y-145420158D01*
X182555222Y-144977333D01*
X180193869Y-144977333D01*
X180168695Y-144992432D01*
X180096562Y-145034631D01*
X179979393Y-145102817D01*
X179819117Y-145195876D01*
X179617658Y-145312695D01*
X179376944Y-145452158D01*
X179098899Y-145613152D01*
X178785451Y-145794563D01*
X178438526Y-145995278D01*
X178060049Y-146214182D01*
X177651947Y-146450161D01*
X177216147Y-146702102D01*
X176754573Y-146968890D01*
X176269152Y-147249412D01*
X175761811Y-147542553D01*
X175234476Y-147847200D01*
X174689072Y-148162239D01*
X174127526Y-148486556D01*
X173551764Y-148819036D01*
X173092078Y-149084455D01*
X166002889Y-153177465D01*
X165995651Y-151089826D01*
X165994761Y-150751489D01*
X165994463Y-150429609D01*
X165994727Y-150128637D01*
X165995525Y-149853026D01*
X165996825Y-149607226D01*
X165998598Y-149395690D01*
X166000814Y-149222870D01*
X166003444Y-149093218D01*
X166006458Y-149011186D01*
X166009762Y-148981278D01*
X166037191Y-148964107D01*
X166110707Y-148920452D01*
X166227585Y-148851883D01*
X166385102Y-148759970D01*
X166580532Y-148646283D01*
X166811152Y-148512393D01*
X167074237Y-148359870D01*
X167367063Y-148190284D01*
X167686905Y-148005205D01*
X168031040Y-147806203D01*
X168396743Y-147594848D01*
X168781289Y-147372711D01*
X169181954Y-147141362D01*
X169596015Y-146902371D01*
X170020745Y-146657309D01*
X170453422Y-146407744D01*
X170891321Y-146155248D01*
X171331717Y-145901391D01*
X171771887Y-145647743D01*
X172209105Y-145395873D01*
X172640648Y-145147353D01*
X173063791Y-144903753D01*
X173475810Y-144666642D01*
X173873980Y-144437591D01*
X174255577Y-144218169D01*
X174617878Y-144009948D01*
X174958156Y-143814498D01*
X175273689Y-143633388D01*
X175561752Y-143468188D01*
X175819620Y-143320470D01*
X176044570Y-143191802D01*
X176233876Y-143083756D01*
X176384814Y-142997901D01*
X176494661Y-142935808D01*
X176560692Y-142899046D01*
X176580345Y-142888889D01*
X176609901Y-142902549D01*
X176683047Y-142941745D01*
X176795152Y-143003799D01*
X176941583Y-143086035D01*
X177117706Y-143185774D01*
X177318891Y-143300339D01*
X177540504Y-143427053D01*
X177777913Y-143563238D01*
X178026485Y-143706218D01*
X178281587Y-143853314D01*
X178538588Y-144001850D01*
X178792855Y-144149148D01*
X179039754Y-144292530D01*
X179274655Y-144429320D01*
X179492924Y-144556840D01*
X179689928Y-144672412D01*
X179861036Y-144773359D01*
X180001614Y-144857005D01*
X180107030Y-144920670D01*
X180172652Y-144961679D01*
X180193869Y-144977333D01*
X182555222Y-144977333D01*
X182555222Y-135424784D01*
X181059445Y-135424784D01*
X181059373Y-136102382D01*
X181059162Y-136765154D01*
X181058817Y-137410892D01*
X181058344Y-138037387D01*
X181057749Y-138642429D01*
X181057037Y-139223811D01*
X181056214Y-139779324D01*
X181055286Y-140306759D01*
X181054258Y-140803908D01*
X181053136Y-141268562D01*
X181051926Y-141698513D01*
X181050633Y-142091551D01*
X181049264Y-142445468D01*
X181047823Y-142758057D01*
X181046317Y-143027107D01*
X181044751Y-143250411D01*
X181043131Y-143425759D01*
X181041462Y-143550944D01*
X181039751Y-143623756D01*
X181038278Y-143642826D01*
X181010990Y-143627221D01*
X180938653Y-143585630D01*
X180825109Y-143520268D01*
X180674205Y-143433351D01*
X180489783Y-143327094D01*
X180275689Y-143203712D01*
X180035767Y-143065420D01*
X179773861Y-142914434D01*
X179493816Y-142752970D01*
X179199476Y-142583241D01*
X179189722Y-142577617D01*
X177362334Y-141523800D01*
X177362334Y-132534094D01*
X175862413Y-132534094D01*
X175862390Y-132939230D01*
X175862178Y-133388785D01*
X175861795Y-133885047D01*
X175861257Y-134430305D01*
X175860583Y-135026849D01*
X175859788Y-135676968D01*
X175859570Y-135850739D01*
X175852445Y-141490987D01*
X170927667Y-144334767D01*
X166002889Y-147178548D01*
X165997822Y-143170404D01*
X164487046Y-143170404D01*
X164486914Y-143677623D01*
X164486556Y-144161283D01*
X164485981Y-144618736D01*
X164485197Y-145047336D01*
X164484212Y-145444435D01*
X164483034Y-145807383D01*
X164481671Y-146133535D01*
X164480130Y-146420242D01*
X164478421Y-146664856D01*
X164476549Y-146864730D01*
X164474525Y-147017216D01*
X164472355Y-147119665D01*
X164470048Y-147169432D01*
X164469039Y-147173986D01*
X164442570Y-147159150D01*
X164369546Y-147117427D01*
X164252290Y-147050156D01*
X164093127Y-146958677D01*
X163894381Y-146844329D01*
X163658376Y-146708451D01*
X163387437Y-146552385D01*
X163083886Y-146377468D01*
X162750049Y-146185040D01*
X162388250Y-145976442D01*
X162000812Y-145753012D01*
X161590060Y-145516090D01*
X161158318Y-145267016D01*
X160707910Y-145007129D01*
X160241160Y-144737769D01*
X159760393Y-144460276D01*
X159537136Y-144331400D01*
X159050491Y-144050412D01*
X158576708Y-143776733D01*
X158118118Y-143511717D01*
X157677056Y-143256714D01*
X157255853Y-143013078D01*
X156856841Y-142782160D01*
X156482353Y-142565313D01*
X156134722Y-142363889D01*
X155816279Y-142179239D01*
X155529358Y-142012716D01*
X155276290Y-141865673D01*
X155059408Y-141739461D01*
X154881045Y-141635432D01*
X154743532Y-141554939D01*
X154742432Y-141554290D01*
X153063127Y-141554290D01*
X149492889Y-143617974D01*
X149485739Y-139530378D01*
X149484862Y-138958375D01*
X149484140Y-138339022D01*
X149483572Y-137681413D01*
X149483158Y-136994642D01*
X149482898Y-136287803D01*
X149482792Y-135569991D01*
X149482841Y-134850299D01*
X149483044Y-134137823D01*
X149483401Y-133441655D01*
X149483912Y-132770890D01*
X149484578Y-132134622D01*
X149485398Y-131541945D01*
X149485739Y-131336315D01*
X149492889Y-127229846D01*
X151270889Y-128256449D01*
X153048889Y-129283051D01*
X153056008Y-135418670D01*
X153063127Y-141554290D01*
X154742432Y-141554290D01*
X154649203Y-141499333D01*
X154600389Y-141469968D01*
X154593897Y-141465677D01*
X154587445Y-141449000D01*
X154581850Y-141409626D01*
X154577078Y-141344540D01*
X154573094Y-141250728D01*
X154569862Y-141125176D01*
X154567349Y-140964868D01*
X154565519Y-140766791D01*
X154564339Y-140527928D01*
X154563772Y-140245267D01*
X154563786Y-139915792D01*
X154564343Y-139536488D01*
X154565412Y-139104341D01*
X154565675Y-139014139D01*
X154572889Y-136595168D01*
X154855111Y-136758821D01*
X154988064Y-136835769D01*
X155122182Y-136913143D01*
X155238896Y-136980241D01*
X155299611Y-137014975D01*
X155461889Y-137107476D01*
X155461889Y-135611818D01*
X155010334Y-135350059D01*
X154558778Y-135088299D01*
X154558778Y-132622817D01*
X154559014Y-132255502D01*
X154559700Y-131905012D01*
X154560800Y-131575364D01*
X154562281Y-131270572D01*
X154564107Y-130994654D01*
X154566244Y-130751624D01*
X154568657Y-130545498D01*
X154571311Y-130380292D01*
X154574172Y-130260022D01*
X154577206Y-130188704D01*
X154579945Y-130169593D01*
X154606259Y-130184786D01*
X154678951Y-130226748D01*
X154795514Y-130294031D01*
X154953441Y-130385189D01*
X155150224Y-130498774D01*
X155383355Y-130633339D01*
X155650327Y-130787436D01*
X155948633Y-130959619D01*
X156275765Y-131148439D01*
X156629216Y-131352450D01*
X157006478Y-131570205D01*
X157405044Y-131800255D01*
X157822407Y-132041155D01*
X158256058Y-132291455D01*
X158703491Y-132549710D01*
X158820334Y-132617151D01*
X159283453Y-132884462D01*
X159740857Y-133148482D01*
X160189458Y-133407426D01*
X160626166Y-133659511D01*
X161047890Y-133902954D01*
X161451541Y-134135969D01*
X161834030Y-134356775D01*
X162192266Y-134563586D01*
X162523161Y-134754621D01*
X162823624Y-134928093D01*
X163090567Y-135082222D01*
X163320899Y-135215221D01*
X163511530Y-135325309D01*
X163659371Y-135410700D01*
X163759222Y-135468393D01*
X164478889Y-135884335D01*
X164486014Y-141533876D01*
X164486604Y-142095883D01*
X164486946Y-142642275D01*
X164487046Y-143170404D01*
X165997822Y-143170404D01*
X165995764Y-141542699D01*
X165995161Y-140982721D01*
X165994780Y-140437772D01*
X165994614Y-139910538D01*
X165994657Y-139403707D01*
X165994902Y-138919966D01*
X165995342Y-138462002D01*
X165995971Y-138032503D01*
X165996781Y-137634155D01*
X165997767Y-137269645D01*
X165998920Y-136941662D01*
X166000236Y-136652892D01*
X166001707Y-136406022D01*
X166003326Y-136203739D01*
X166005086Y-136048732D01*
X166006981Y-135943686D01*
X166009005Y-135891289D01*
X166009875Y-135885644D01*
X166036654Y-135868914D01*
X166107828Y-135826655D01*
X166219042Y-135761381D01*
X166365944Y-135675607D01*
X166544181Y-135571848D01*
X166749399Y-135452619D01*
X166977244Y-135320435D01*
X167223364Y-135177811D01*
X167483406Y-135027262D01*
X167753015Y-134871303D01*
X168027839Y-134712450D01*
X168303524Y-134553216D01*
X168575717Y-134396117D01*
X168840064Y-134243669D01*
X169092213Y-134098385D01*
X169327810Y-133962781D01*
X169542502Y-133839372D01*
X169731935Y-133730673D01*
X169891757Y-133639199D01*
X170017613Y-133567465D01*
X170105150Y-133517985D01*
X170150016Y-133493276D01*
X170155073Y-133490889D01*
X170156555Y-133518480D01*
X170157976Y-133598727D01*
X170159320Y-133727843D01*
X170160575Y-133902040D01*
X170161725Y-134117530D01*
X170162756Y-134370524D01*
X170163654Y-134657236D01*
X170164405Y-134973876D01*
X170164994Y-135316659D01*
X170165407Y-135681794D01*
X170165630Y-136065495D01*
X170165667Y-136299000D01*
X170165875Y-136691853D01*
X170166480Y-137068359D01*
X170167453Y-137424733D01*
X170168766Y-137757187D01*
X170170390Y-138061935D01*
X170172297Y-138335192D01*
X170174458Y-138573171D01*
X170176845Y-138772085D01*
X170179428Y-138928149D01*
X170182180Y-139037576D01*
X170185072Y-139096580D01*
X170186834Y-139106209D01*
X170215725Y-139092345D01*
X170287132Y-139053576D01*
X170394811Y-138993426D01*
X170532514Y-138915418D01*
X170693996Y-138823075D01*
X170873011Y-138719921D01*
X170927667Y-138688282D01*
X171647334Y-138271258D01*
X171675556Y-132607448D01*
X173721667Y-131423292D01*
X174034418Y-131242459D01*
X174333762Y-131069703D01*
X174616014Y-130907132D01*
X174877489Y-130756853D01*
X175114501Y-130620974D01*
X175323366Y-130501602D01*
X175500396Y-130400845D01*
X175641908Y-130320812D01*
X175744216Y-130263610D01*
X175803634Y-130231346D01*
X175817236Y-130224813D01*
X175823057Y-130225046D01*
X175828396Y-130230785D01*
X175833271Y-130244319D01*
X175837699Y-130267937D01*
X175841697Y-130303928D01*
X175845283Y-130354581D01*
X175848472Y-130422185D01*
X175851284Y-130509028D01*
X175853735Y-130617400D01*
X175855842Y-130749591D01*
X175857622Y-130907887D01*
X175859094Y-131094580D01*
X175860273Y-131311958D01*
X175861177Y-131562309D01*
X175861823Y-131847923D01*
X175862230Y-132171088D01*
X175862413Y-132534094D01*
X177362334Y-132534094D01*
X177362334Y-129320177D01*
X178128523Y-128878488D01*
X175012787Y-128878488D01*
X174985544Y-128895323D01*
X174912320Y-128938564D01*
X174795948Y-129006579D01*
X174639262Y-129097737D01*
X174445094Y-129210407D01*
X174216277Y-129342958D01*
X173955644Y-129493758D01*
X173666029Y-129661177D01*
X173350264Y-129843584D01*
X173011182Y-130039346D01*
X172651617Y-130246834D01*
X172274401Y-130464416D01*
X171882367Y-130690460D01*
X171478349Y-130923337D01*
X171065179Y-131161413D01*
X170645690Y-131403059D01*
X170222715Y-131646644D01*
X169799088Y-131890535D01*
X169377642Y-132133103D01*
X168961208Y-132372715D01*
X168552621Y-132607741D01*
X168154714Y-132836549D01*
X167770319Y-133057509D01*
X167402269Y-133268990D01*
X167053397Y-133469359D01*
X166726537Y-133656986D01*
X166424521Y-133830240D01*
X166150183Y-133987490D01*
X165906355Y-134127105D01*
X165695871Y-134247452D01*
X165521562Y-134346903D01*
X165386264Y-134423824D01*
X165292807Y-134476585D01*
X165244026Y-134503555D01*
X165237298Y-134506861D01*
X165207696Y-134493104D01*
X165133699Y-134453485D01*
X165019714Y-134390495D01*
X164870151Y-134306630D01*
X164689418Y-134204380D01*
X164481925Y-134086240D01*
X164252081Y-133954703D01*
X164004295Y-133812260D01*
X163783854Y-133685045D01*
X163462798Y-133499486D01*
X163106509Y-133293639D01*
X162727287Y-133074605D01*
X162337433Y-132849487D01*
X161949249Y-132625388D01*
X161575034Y-132409410D01*
X161227090Y-132208655D01*
X160965222Y-132057617D01*
X160707117Y-131908701D01*
X160462809Y-131767593D01*
X160236830Y-131636920D01*
X160033712Y-131519312D01*
X159857989Y-131417395D01*
X159714191Y-131333798D01*
X159606852Y-131271149D01*
X159540503Y-131232076D01*
X159520385Y-131219835D01*
X159510920Y-131205592D01*
X159521504Y-131184489D01*
X159557174Y-131153001D01*
X159622967Y-131107603D01*
X159723919Y-131044771D01*
X159865069Y-130960978D01*
X160014274Y-130874193D01*
X160120224Y-130812926D01*
X160270477Y-130726094D01*
X160460450Y-130616342D01*
X160685560Y-130486318D01*
X160941222Y-130338669D01*
X161222853Y-130176042D01*
X161525868Y-130001083D01*
X161845684Y-129816440D01*
X162177718Y-129624760D01*
X162517385Y-129428689D01*
X162813778Y-129257611D01*
X163143534Y-129067244D01*
X163460514Y-128884174D01*
X163761151Y-128710467D01*
X164041876Y-128548189D01*
X164299120Y-128399404D01*
X164529316Y-128266177D01*
X164728895Y-128150575D01*
X164894289Y-128054662D01*
X165021929Y-127980504D01*
X165108247Y-127930165D01*
X165149675Y-127905712D01*
X165151483Y-127904601D01*
X165231410Y-127854729D01*
X164558816Y-127465890D01*
X164378543Y-127361678D01*
X164211100Y-127264896D01*
X164063662Y-127179691D01*
X163943406Y-127110208D01*
X163857507Y-127060595D01*
X163813141Y-127034999D01*
X163812692Y-127034740D01*
X163800613Y-127028854D01*
X163786139Y-127025720D01*
X163766596Y-127026808D01*
X163739309Y-127033583D01*
X163701604Y-127047513D01*
X163650806Y-127070065D01*
X163584240Y-127102706D01*
X163499233Y-127146903D01*
X163393109Y-127204122D01*
X163263195Y-127275831D01*
X163106815Y-127363498D01*
X162921295Y-127468588D01*
X162703960Y-127592569D01*
X162452137Y-127736908D01*
X162163149Y-127903073D01*
X161834324Y-128092529D01*
X161462986Y-128306745D01*
X161046461Y-128547186D01*
X160877346Y-128644830D01*
X160507070Y-128858556D01*
X160150219Y-129064395D01*
X159809861Y-129260586D01*
X159489062Y-129445367D01*
X159190887Y-129616977D01*
X158918402Y-129773655D01*
X158674673Y-129913639D01*
X158462767Y-130035168D01*
X158285749Y-130136480D01*
X158146684Y-130215814D01*
X158048640Y-130271409D01*
X157994682Y-130301503D01*
X157984867Y-130306560D01*
X157954588Y-130295114D01*
X157882009Y-130258483D01*
X157772674Y-130199871D01*
X157632126Y-130122483D01*
X157465909Y-130029524D01*
X157279568Y-129924198D01*
X157078647Y-129809711D01*
X156868689Y-129689266D01*
X156655239Y-129566068D01*
X156443840Y-129443322D01*
X156240037Y-129324232D01*
X156049374Y-129212004D01*
X155877394Y-129109841D01*
X155729642Y-129020949D01*
X155611661Y-128948532D01*
X155528996Y-128895794D01*
X155487191Y-128865941D01*
X155483349Y-128860593D01*
X155509456Y-128844913D01*
X155581604Y-128802701D01*
X155696953Y-128735593D01*
X155852669Y-128645227D01*
X156045912Y-128533240D01*
X156273847Y-128401270D01*
X156533635Y-128250954D01*
X156822440Y-128083929D01*
X157137424Y-127901832D01*
X157475751Y-127706302D01*
X157834583Y-127498974D01*
X158211082Y-127281487D01*
X158602413Y-127055478D01*
X159005737Y-126822585D01*
X159418217Y-126584444D01*
X159837016Y-126342692D01*
X160259297Y-126098969D01*
X160682223Y-125854909D01*
X161102956Y-125612152D01*
X161518660Y-125372333D01*
X161926497Y-125137092D01*
X162323630Y-124908064D01*
X162707222Y-124686888D01*
X163074435Y-124475200D01*
X163422432Y-124274638D01*
X163748377Y-124086839D01*
X164049432Y-123913441D01*
X164322759Y-123756081D01*
X164565523Y-123616396D01*
X164774884Y-123496024D01*
X164948007Y-123396602D01*
X165082054Y-123319767D01*
X165174187Y-123267157D01*
X165221571Y-123240408D01*
X165227544Y-123237243D01*
X165253757Y-123250402D01*
X165325808Y-123290063D01*
X165440662Y-123354494D01*
X165595284Y-123441959D01*
X165786639Y-123550725D01*
X166011691Y-123679056D01*
X166267404Y-123825220D01*
X166550745Y-123987482D01*
X166858677Y-124164108D01*
X167188166Y-124353363D01*
X167536175Y-124553513D01*
X167899671Y-124762824D01*
X168130138Y-124895661D01*
X168567287Y-125147780D01*
X168958004Y-125373296D01*
X169304799Y-125573720D01*
X169610182Y-125750564D01*
X169876664Y-125905342D01*
X170106757Y-126039565D01*
X170302970Y-126154745D01*
X170467814Y-126252395D01*
X170603800Y-126334027D01*
X170713438Y-126401154D01*
X170799240Y-126455287D01*
X170863716Y-126497939D01*
X170909376Y-126530622D01*
X170938731Y-126554849D01*
X170954293Y-126572131D01*
X170958571Y-126583982D01*
X170954076Y-126591912D01*
X170950309Y-126594367D01*
X170879417Y-126633686D01*
X170767215Y-126697181D01*
X170617398Y-126782703D01*
X170433660Y-126888104D01*
X170219695Y-127011237D01*
X169979197Y-127149953D01*
X169715862Y-127302103D01*
X169433384Y-127465540D01*
X169135457Y-127638115D01*
X168825776Y-127817680D01*
X168508036Y-128002088D01*
X168185930Y-128189189D01*
X167863153Y-128376836D01*
X167543400Y-128562881D01*
X167230365Y-128745175D01*
X166927743Y-128921571D01*
X166639229Y-129089919D01*
X166368516Y-129248072D01*
X166119299Y-129393883D01*
X165895273Y-129525201D01*
X165700132Y-129639881D01*
X165537571Y-129735772D01*
X165411284Y-129810727D01*
X165324965Y-129862599D01*
X165282310Y-129889238D01*
X165278300Y-129892363D01*
X165301868Y-129911589D01*
X165368493Y-129955047D01*
X165472156Y-130019089D01*
X165606835Y-130100069D01*
X165766509Y-130194337D01*
X165945158Y-130298248D01*
X166009407Y-130335274D01*
X166740393Y-130755531D01*
X169625507Y-129089531D01*
X172510622Y-127423531D01*
X173765209Y-128147737D01*
X174007512Y-128287806D01*
X174234144Y-128419202D01*
X174440566Y-128539268D01*
X174622240Y-128645344D01*
X174774626Y-128734773D01*
X174893185Y-128804895D01*
X174973378Y-128853052D01*
X175010666Y-128876584D01*
X175012787Y-128878488D01*
X178128523Y-128878488D01*
X179147389Y-128291137D01*
X179439953Y-128122524D01*
X179719305Y-127961610D01*
X179981430Y-127810702D01*
X180222316Y-127672107D01*
X180437948Y-127548130D01*
X180624312Y-127441080D01*
X180777395Y-127353263D01*
X180893183Y-127286986D01*
X180967661Y-127244555D01*
X180995945Y-127228722D01*
X181059445Y-127195347D01*
X181059445Y-135424784D01*
X182555222Y-135424784D01*
X182555222Y-125866288D01*
X180189069Y-125866288D01*
X180168138Y-125882659D01*
X180102828Y-125924354D01*
X179997765Y-125988692D01*
X179857575Y-126072988D01*
X179686884Y-126174557D01*
X179490319Y-126290716D01*
X179272504Y-126418781D01*
X179038065Y-126556068D01*
X178791629Y-126699893D01*
X178537822Y-126847572D01*
X178281268Y-126996420D01*
X178026595Y-127143755D01*
X177778427Y-127286892D01*
X177541392Y-127423146D01*
X177320113Y-127549835D01*
X177119218Y-127664274D01*
X176943333Y-127763779D01*
X176797083Y-127845665D01*
X176685093Y-127907250D01*
X176611991Y-127945849D01*
X176582635Y-127958790D01*
X176555501Y-127944928D01*
X176481749Y-127904098D01*
X176363623Y-127837588D01*
X176203367Y-127746684D01*
X176003226Y-127632676D01*
X175765442Y-127496850D01*
X175492262Y-127340496D01*
X175185927Y-127164901D01*
X174848684Y-126971353D01*
X174482776Y-126761141D01*
X174090447Y-126535551D01*
X173673941Y-126295872D01*
X173235503Y-126043393D01*
X172777376Y-125779400D01*
X172301805Y-125505183D01*
X171811034Y-125222028D01*
X171307307Y-124931225D01*
X171276857Y-124913640D01*
X166002889Y-121867947D01*
X165995653Y-119760671D01*
X165995599Y-119744855D01*
X164493000Y-119744855D01*
X164493000Y-121856435D01*
X159210069Y-124907884D01*
X158705262Y-125199389D01*
X158213307Y-125483328D01*
X157736443Y-125758414D01*
X157276911Y-126023359D01*
X156836951Y-126276876D01*
X156418802Y-126517679D01*
X156024706Y-126744481D01*
X155656902Y-126955994D01*
X155317630Y-127150931D01*
X155009130Y-127328005D01*
X154733643Y-127485929D01*
X154493408Y-127623417D01*
X154290666Y-127739180D01*
X154127657Y-127831932D01*
X154006621Y-127900387D01*
X153929797Y-127943256D01*
X153899427Y-127959253D01*
X153899083Y-127959333D01*
X153870651Y-127945570D01*
X153797252Y-127905752D01*
X153682775Y-127842089D01*
X153531110Y-127756788D01*
X153346150Y-127652057D01*
X153131784Y-127530106D01*
X152891904Y-127393142D01*
X152630399Y-127243375D01*
X152351161Y-127083011D01*
X152071796Y-126922167D01*
X151780375Y-126753774D01*
X151504110Y-126593354D01*
X151246771Y-126443145D01*
X151012129Y-126305385D01*
X150803955Y-126182312D01*
X150626018Y-126076165D01*
X150482090Y-125989181D01*
X150375941Y-125923599D01*
X150311342Y-125881657D01*
X150291948Y-125865674D01*
X150317688Y-125850137D01*
X150390380Y-125807498D01*
X150508095Y-125738875D01*
X150668900Y-125645386D01*
X150870865Y-125528147D01*
X151112058Y-125388277D01*
X151390549Y-125226894D01*
X151704406Y-125045113D01*
X152051699Y-124844054D01*
X152430495Y-124624832D01*
X152838864Y-124388567D01*
X153274875Y-124136375D01*
X153736596Y-123869374D01*
X154222097Y-123588681D01*
X154729446Y-123295414D01*
X155256712Y-122990690D01*
X155801964Y-122675627D01*
X156363271Y-122351342D01*
X156938701Y-122018953D01*
X157381000Y-121763503D01*
X157965801Y-121425768D01*
X158537948Y-121095338D01*
X159095509Y-120773327D01*
X159636552Y-120460851D01*
X160159147Y-120159025D01*
X160661361Y-119868966D01*
X161141264Y-119591789D01*
X161596923Y-119328609D01*
X162026407Y-119080543D01*
X162427785Y-118848705D01*
X162799126Y-118634212D01*
X163138497Y-118438179D01*
X163443967Y-118261722D01*
X163713606Y-118105957D01*
X163945480Y-117971998D01*
X164137659Y-117860963D01*
X164288212Y-117773966D01*
X164395206Y-117712122D01*
X164456710Y-117676549D01*
X164471834Y-117667774D01*
X164475245Y-117693153D01*
X164478486Y-117770633D01*
X164481512Y-117895870D01*
X164484281Y-118064520D01*
X164486747Y-118272239D01*
X164488866Y-118514685D01*
X164490595Y-118787513D01*
X164491890Y-119086380D01*
X164492706Y-119406942D01*
X164493000Y-119744855D01*
X165995599Y-119744855D01*
X165988417Y-117653396D01*
X166080320Y-117709841D01*
X166112159Y-117728504D01*
X166190915Y-117774246D01*
X166314621Y-117845932D01*
X166481309Y-117942423D01*
X166689011Y-118062582D01*
X166935759Y-118205274D01*
X167219586Y-118369360D01*
X167538524Y-118553704D01*
X167890604Y-118757169D01*
X168273859Y-118978617D01*
X168686321Y-119216913D01*
X169126022Y-119470918D01*
X169590994Y-119739496D01*
X170079270Y-120021509D01*
X170588882Y-120315822D01*
X171117861Y-120621296D01*
X171664240Y-120936795D01*
X172226052Y-121261182D01*
X172801328Y-121593320D01*
X173171334Y-121806932D01*
X173753204Y-122142878D01*
X174322394Y-122471557D01*
X174876961Y-122791846D01*
X175414966Y-123102621D01*
X175934466Y-123402761D01*
X176433522Y-123691142D01*
X176910191Y-123966643D01*
X177362534Y-124228139D01*
X177788610Y-124474510D01*
X178186477Y-124704631D01*
X178554195Y-124917380D01*
X178889822Y-125111634D01*
X179191418Y-125286272D01*
X179457043Y-125440169D01*
X179684754Y-125572204D01*
X179872611Y-125681253D01*
X180018674Y-125766194D01*
X180121001Y-125825905D01*
X180177652Y-125859262D01*
X180189069Y-125866288D01*
X182555222Y-125866288D01*
X182555222Y-125427821D01*
X173912201Y-120437651D01*
X173264946Y-120064001D01*
X172630132Y-119697631D01*
X172009504Y-119339548D01*
X171404813Y-118990757D01*
X170817804Y-118652264D01*
X170250227Y-118325075D01*
X169703830Y-118010194D01*
X169180359Y-117708627D01*
X168681564Y-117421381D01*
X168209193Y-117149460D01*
X167764993Y-116893871D01*
X167350712Y-116655618D01*
X166968098Y-116435707D01*
X166618899Y-116235144D01*
X166304863Y-116054935D01*
X166027739Y-115896084D01*
X165789274Y-115759598D01*
X165591215Y-115646482D01*
X165435312Y-115557742D01*
X165323312Y-115494383D01*
X165256963Y-115457411D01*
X165237780Y-115447481D01*
X165210608Y-115461389D01*
G36*
X157980255Y-139658460D02*
G01*
X157987778Y-140414468D01*
X159591479Y-141341234D01*
X159866840Y-141500260D01*
X160127618Y-141650664D01*
X160369736Y-141790108D01*
X160589120Y-141916254D01*
X160781692Y-142026764D01*
X160943376Y-142119300D01*
X161070097Y-142191524D01*
X161157779Y-142241099D01*
X161202344Y-142265685D01*
X161207201Y-142268000D01*
X161210408Y-142241006D01*
X161213293Y-142164935D01*
X161215736Y-142047155D01*
X161217618Y-141895034D01*
X161218820Y-141715939D01*
X161219222Y-141525733D01*
X161219222Y-140783466D01*
X159659945Y-139883630D01*
X159386586Y-139725822D01*
X159126496Y-139575561D01*
X158883999Y-139435354D01*
X158663423Y-139307708D01*
X158469093Y-139195130D01*
X158305336Y-139100126D01*
X158176476Y-139025202D01*
X158086842Y-138972866D01*
X158040758Y-138945623D01*
X158036699Y-138943123D01*
X157972732Y-138902451D01*
X157980255Y-139658460D01*
G37*
X157980255Y-139658460D02*
X157987778Y-140414468D01*
X159591479Y-141341234D01*
X159866840Y-141500260D01*
X160127618Y-141650664D01*
X160369736Y-141790108D01*
X160589120Y-141916254D01*
X160781692Y-142026764D01*
X160943376Y-142119300D01*
X161070097Y-142191524D01*
X161157779Y-142241099D01*
X161202344Y-142265685D01*
X161207201Y-142268000D01*
X161210408Y-142241006D01*
X161213293Y-142164935D01*
X161215736Y-142047155D01*
X161217618Y-141895034D01*
X161218820Y-141715939D01*
X161219222Y-141525733D01*
X161219222Y-140783466D01*
X159659945Y-139883630D01*
X159386586Y-139725822D01*
X159126496Y-139575561D01*
X158883999Y-139435354D01*
X158663423Y-139307708D01*
X158469093Y-139195130D01*
X158305336Y-139100126D01*
X158176476Y-139025202D01*
X158086842Y-138972866D01*
X158040758Y-138945623D01*
X158036699Y-138943123D01*
X157972732Y-138902451D01*
X157980255Y-139658460D01*
G36*
X157981636Y-135182995D02*
G01*
X157979029Y-135259071D01*
X157976822Y-135376864D01*
X157975120Y-135529013D01*
X157974033Y-135708153D01*
X157973667Y-135899155D01*
X157973667Y-136642311D01*
X159532945Y-137541459D01*
X159806327Y-137699159D01*
X160066439Y-137849310D01*
X160308953Y-137989407D01*
X160529541Y-138116947D01*
X160723877Y-138229423D01*
X160887633Y-138324331D01*
X161016482Y-138399166D01*
X161106097Y-138451423D01*
X161152150Y-138478599D01*
X161156190Y-138481078D01*
X161220158Y-138521549D01*
X161212635Y-137765862D01*
X161205111Y-137010176D01*
X159600256Y-136083088D01*
X159324814Y-135924065D01*
X159063986Y-135773659D01*
X158821844Y-135634207D01*
X158602458Y-135508046D01*
X158409900Y-135397510D01*
X158248243Y-135304937D01*
X158121556Y-135232662D01*
X158033913Y-135183022D01*
X157989384Y-135158354D01*
X157984533Y-135156000D01*
X157981636Y-135182995D01*
G37*
X157981636Y-135182995D02*
X157979029Y-135259071D01*
X157976822Y-135376864D01*
X157975120Y-135529013D01*
X157974033Y-135708153D01*
X157973667Y-135899155D01*
X157973667Y-136642311D01*
X159532945Y-137541459D01*
X159806327Y-137699159D01*
X160066439Y-137849310D01*
X160308953Y-137989407D01*
X160529541Y-138116947D01*
X160723877Y-138229423D01*
X160887633Y-138324331D01*
X161016482Y-138399166D01*
X161106097Y-138451423D01*
X161152150Y-138478599D01*
X161156190Y-138481078D01*
X161220158Y-138521549D01*
X161212635Y-137765862D01*
X161205111Y-137010176D01*
X159600256Y-136083088D01*
X159324814Y-135924065D01*
X159063986Y-135773659D01*
X158821844Y-135634207D01*
X158602458Y-135508046D01*
X158409900Y-135397510D01*
X158248243Y-135304937D01*
X158121556Y-135232662D01*
X158033913Y-135183022D01*
X157989384Y-135158354D01*
X157984533Y-135156000D01*
X157981636Y-135182995D01*
D11*
%TO.C,J2*%
X140430000Y-117165000D02*
X148170000Y-117165000D01*
X148170000Y-117165000D02*
X148170000Y-119825000D01*
X148170000Y-119825000D02*
X140430000Y-119825000D01*
X140430000Y-119825000D02*
X140430000Y-117165000D01*
X141380000Y-119825000D02*
X141380000Y-125825000D01*
X141380000Y-125825000D02*
X142140000Y-125825000D01*
X142140000Y-125825000D02*
X142140000Y-119825000D01*
X141440000Y-119825000D02*
X141440000Y-125825000D01*
X141560000Y-119825000D02*
X141560000Y-125825000D01*
X141680000Y-119825000D02*
X141680000Y-125825000D01*
X141800000Y-119825000D02*
X141800000Y-125825000D01*
X141920000Y-119825000D02*
X141920000Y-125825000D01*
X142040000Y-119825000D02*
X142040000Y-125825000D01*
X141380000Y-116835000D02*
X141380000Y-117165000D01*
X142140000Y-116835000D02*
X142140000Y-117165000D01*
X143030000Y-117165000D02*
X143030000Y-119825000D01*
X143920000Y-119825000D02*
X143920000Y-125825000D01*
X143920000Y-125825000D02*
X144680000Y-125825000D01*
X144680000Y-125825000D02*
X144680000Y-119825000D01*
X143920000Y-116767929D02*
X143920000Y-117165000D01*
X144680000Y-116767929D02*
X144680000Y-117165000D01*
X145570000Y-117165000D02*
X145570000Y-119825000D01*
X146460000Y-119825000D02*
X146460000Y-125825000D01*
X146460000Y-125825000D02*
X147220000Y-125825000D01*
X147220000Y-125825000D02*
X147220000Y-119825000D01*
X146460000Y-116767929D02*
X146460000Y-117165000D01*
X147220000Y-116767929D02*
X147220000Y-117165000D01*
X141760000Y-114455000D02*
X140490000Y-114455000D01*
X140490000Y-114455000D02*
X140490000Y-115725000D01*
%TO.C,D4*%
X143285000Y-94815000D02*
X146585000Y-94815000D01*
X146585000Y-94815000D02*
X146585000Y-101715000D01*
X143285000Y-94815000D02*
X143285000Y-101715000D01*
%TO.C,D3*%
X142775000Y-103615000D02*
X139475000Y-103615000D01*
X139475000Y-103615000D02*
X139475000Y-96715000D01*
X142775000Y-103615000D02*
X142775000Y-96715000D01*
%TO.C,D2*%
X146585000Y-113180000D02*
X143285000Y-113180000D01*
X143285000Y-113180000D02*
X143285000Y-106280000D01*
X146585000Y-113180000D02*
X146585000Y-106280000D01*
%TO.C,D1*%
X139475000Y-104340000D02*
X142775000Y-104340000D01*
X142775000Y-104340000D02*
X142775000Y-111240000D01*
X139475000Y-104340000D02*
X139475000Y-111240000D01*
%TO.C,JP3*%
X145870000Y-124485000D02*
X145270000Y-124485000D01*
X146570000Y-126585000D02*
X146570000Y-125185000D01*
X145270000Y-127285000D02*
X145870000Y-127285000D01*
X144570000Y-125185000D02*
X144570000Y-126585000D01*
X145270000Y-124485000D02*
G75*
G03*
X144570000Y-125185000I0J-700000D01*
G01*
X146570000Y-125185000D02*
G75*
G03*
X145870000Y-124485000I-700000J0D01*
G01*
X145870000Y-127285000D02*
G75*
G03*
X146570000Y-126585000I0J700000D01*
G01*
X144570000Y-126585000D02*
G75*
G03*
X145270000Y-127285000I700000J0D01*
G01*
%TO.C,JP2*%
X149045000Y-124485000D02*
X148445000Y-124485000D01*
X149745000Y-126585000D02*
X149745000Y-125185000D01*
X148445000Y-127285000D02*
X149045000Y-127285000D01*
X147745000Y-125185000D02*
X147745000Y-126585000D01*
X148445000Y-124485000D02*
G75*
G03*
X147745000Y-125185000I0J-700000D01*
G01*
X149745000Y-125185000D02*
G75*
G03*
X149045000Y-124485000I-700000J0D01*
G01*
X149045000Y-127285000D02*
G75*
G03*
X149745000Y-126585000I0J700000D01*
G01*
X147745000Y-126585000D02*
G75*
G03*
X148445000Y-127285000I700000J0D01*
G01*
D10*
%TO.C,G\u002A\u002A\u002A*%
G36*
X175865327Y-106408599D02*
G01*
X175864806Y-106423814D01*
X175864364Y-106447373D01*
X175864024Y-106477803D01*
X175863807Y-106513631D01*
X175863733Y-106551831D01*
X175863733Y-106700462D01*
X176175589Y-106880292D01*
X176230265Y-106911832D01*
X176282288Y-106941862D01*
X176330791Y-106969882D01*
X176374908Y-106995390D01*
X176413775Y-107017885D01*
X176446527Y-107036866D01*
X176472296Y-107051833D01*
X176490219Y-107062285D01*
X176499430Y-107067720D01*
X176500238Y-107068216D01*
X176513032Y-107076310D01*
X176511527Y-106925173D01*
X176510022Y-106774035D01*
X176189051Y-106588618D01*
X176133963Y-106556813D01*
X176081797Y-106526732D01*
X176033369Y-106498842D01*
X175989492Y-106473609D01*
X175950980Y-106451502D01*
X175918649Y-106432988D01*
X175893311Y-106418533D01*
X175875783Y-106408605D01*
X175866877Y-106403671D01*
X175865907Y-106403200D01*
X175865327Y-106408599D01*
G37*
X175865327Y-106408599D02*
X175864806Y-106423814D01*
X175864364Y-106447373D01*
X175864024Y-106477803D01*
X175863807Y-106513631D01*
X175863733Y-106551831D01*
X175863733Y-106700462D01*
X176175589Y-106880292D01*
X176230265Y-106911832D01*
X176282288Y-106941862D01*
X176330791Y-106969882D01*
X176374908Y-106995390D01*
X176413775Y-107017885D01*
X176446527Y-107036866D01*
X176472296Y-107051833D01*
X176490219Y-107062285D01*
X176499430Y-107067720D01*
X176500238Y-107068216D01*
X176513032Y-107076310D01*
X176511527Y-106925173D01*
X176510022Y-106774035D01*
X176189051Y-106588618D01*
X176133963Y-106556813D01*
X176081797Y-106526732D01*
X176033369Y-106498842D01*
X175989492Y-106473609D01*
X175950980Y-106451502D01*
X175918649Y-106432988D01*
X175893311Y-106418533D01*
X175875783Y-106408605D01*
X175866877Y-106403671D01*
X175865907Y-106403200D01*
X175865327Y-106408599D01*
G36*
X175866556Y-107454894D02*
G01*
X176187296Y-107640247D01*
X176242368Y-107672052D01*
X176294524Y-107702133D01*
X176342947Y-107730022D01*
X176386824Y-107755251D01*
X176425338Y-107777353D01*
X176457675Y-107795860D01*
X176483019Y-107810305D01*
X176500556Y-107820220D01*
X176509469Y-107825137D01*
X176510440Y-107825600D01*
X176511082Y-107820201D01*
X176511659Y-107804987D01*
X176512147Y-107781431D01*
X176512524Y-107751007D01*
X176512764Y-107715188D01*
X176512844Y-107677147D01*
X176512844Y-107528693D01*
X176200989Y-107348726D01*
X176146317Y-107317165D01*
X176094299Y-107287112D01*
X176045800Y-107259071D01*
X176001685Y-107233542D01*
X175962819Y-107211026D01*
X175930067Y-107192025D01*
X175904295Y-107177041D01*
X175886368Y-107166573D01*
X175877152Y-107161125D01*
X175876340Y-107160625D01*
X175863546Y-107152490D01*
X175866556Y-107454894D01*
G37*
X175866556Y-107454894D02*
X176187296Y-107640247D01*
X176242368Y-107672052D01*
X176294524Y-107702133D01*
X176342947Y-107730022D01*
X176386824Y-107755251D01*
X176425338Y-107777353D01*
X176457675Y-107795860D01*
X176483019Y-107810305D01*
X176500556Y-107820220D01*
X176509469Y-107825137D01*
X176510440Y-107825600D01*
X176511082Y-107820201D01*
X176511659Y-107804987D01*
X176512147Y-107781431D01*
X176512524Y-107751007D01*
X176512764Y-107715188D01*
X176512844Y-107677147D01*
X176512844Y-107528693D01*
X176200989Y-107348726D01*
X176146317Y-107317165D01*
X176094299Y-107287112D01*
X176045800Y-107259071D01*
X176001685Y-107233542D01*
X175962819Y-107211026D01*
X175930067Y-107192025D01*
X175904295Y-107177041D01*
X175886368Y-107166573D01*
X175877152Y-107161125D01*
X175876340Y-107160625D01*
X175863546Y-107152490D01*
X175866556Y-107454894D01*
G36*
X177311122Y-102464278D02*
G01*
X177296377Y-102472446D01*
X177272784Y-102485734D01*
X177240805Y-102503878D01*
X177200902Y-102526613D01*
X177153538Y-102553673D01*
X177099174Y-102584793D01*
X177038272Y-102619709D01*
X176971295Y-102658153D01*
X176898705Y-102699863D01*
X176820964Y-102744571D01*
X176738534Y-102792014D01*
X176651877Y-102841925D01*
X176561456Y-102894040D01*
X176467732Y-102948094D01*
X176371168Y-103003820D01*
X176314660Y-103036447D01*
X176141272Y-103136575D01*
X175977314Y-103231257D01*
X175822442Y-103320692D01*
X175676310Y-103405079D01*
X175538574Y-103484618D01*
X175408889Y-103559506D01*
X175286910Y-103629945D01*
X175172291Y-103696132D01*
X175064688Y-103758267D01*
X174963755Y-103816550D01*
X174869148Y-103871180D01*
X174780522Y-103922355D01*
X174697531Y-103970275D01*
X174619830Y-104015139D01*
X174547075Y-104057147D01*
X174478921Y-104096498D01*
X174415022Y-104133390D01*
X174355034Y-104168024D01*
X174298611Y-104200598D01*
X174245408Y-104231311D01*
X174195081Y-104260364D01*
X174147284Y-104287954D01*
X174137944Y-104293345D01*
X173854311Y-104457065D01*
X173854311Y-108456579D01*
X174137944Y-108620299D01*
X174190053Y-108650378D01*
X174250406Y-108685219D01*
X174317472Y-108723936D01*
X174389720Y-108765646D01*
X174465619Y-108809466D01*
X174543637Y-108854510D01*
X174622243Y-108899894D01*
X174699906Y-108944735D01*
X174775094Y-108988149D01*
X174836444Y-109023574D01*
X175029766Y-109135202D01*
X175213517Y-109241304D01*
X175387902Y-109341996D01*
X175553127Y-109437397D01*
X175709396Y-109527626D01*
X175856914Y-109612800D01*
X175995887Y-109693039D01*
X176126519Y-109768460D01*
X176249015Y-109839182D01*
X176363582Y-109905324D01*
X176470422Y-109967002D01*
X176569742Y-110024337D01*
X176661747Y-110077446D01*
X176746641Y-110126447D01*
X176824629Y-110171459D01*
X176895918Y-110212600D01*
X176960710Y-110249989D01*
X177019213Y-110283743D01*
X177071630Y-110313982D01*
X177118166Y-110340823D01*
X177159028Y-110364385D01*
X177194419Y-110384786D01*
X177224544Y-110402144D01*
X177249609Y-110416578D01*
X177269819Y-110428206D01*
X177285379Y-110437147D01*
X177296494Y-110443518D01*
X177303368Y-110447438D01*
X177306170Y-110449007D01*
X177308144Y-110449022D01*
X177312101Y-110447821D01*
X177318331Y-110445240D01*
X177327123Y-110441114D01*
X177338766Y-110435278D01*
X177353548Y-110427568D01*
X177371760Y-110417818D01*
X177393690Y-110405865D01*
X177419626Y-110391542D01*
X177449859Y-110374687D01*
X177484676Y-110355133D01*
X177524367Y-110332716D01*
X177569222Y-110307271D01*
X177619528Y-110278633D01*
X177675576Y-110246639D01*
X177737653Y-110211122D01*
X177806050Y-110171919D01*
X177881054Y-110128864D01*
X177962956Y-110081792D01*
X178052044Y-110030540D01*
X178086041Y-110010965D01*
X177167672Y-110010965D01*
X177149292Y-109999714D01*
X177142924Y-109995984D01*
X177127172Y-109986840D01*
X177102431Y-109972506D01*
X177069092Y-109953212D01*
X177027551Y-109929185D01*
X176978200Y-109900651D01*
X176921434Y-109867839D01*
X176857645Y-109830975D01*
X176787228Y-109790288D01*
X176710576Y-109746003D01*
X176628082Y-109698350D01*
X176540140Y-109647554D01*
X176447144Y-109593845D01*
X176349487Y-109537447D01*
X176247563Y-109478591D01*
X176141765Y-109417502D01*
X176032488Y-109354407D01*
X175920124Y-109289536D01*
X175805067Y-109223114D01*
X175731089Y-109180409D01*
X175614712Y-109113224D01*
X175500870Y-109047492D01*
X175389953Y-108983437D01*
X175282347Y-108921284D01*
X175178442Y-108861257D01*
X175078625Y-108803581D01*
X174983285Y-108748481D01*
X174892810Y-108696181D01*
X174807589Y-108646905D01*
X174728008Y-108600879D01*
X174654458Y-108558326D01*
X174587326Y-108519472D01*
X174527000Y-108484541D01*
X174473868Y-108453757D01*
X174428319Y-108427345D01*
X174390741Y-108405530D01*
X174361522Y-108388536D01*
X174341050Y-108376588D01*
X174329715Y-108369910D01*
X174327428Y-108368500D01*
X174331630Y-108365241D01*
X174344700Y-108356909D01*
X174365712Y-108344044D01*
X174393737Y-108327183D01*
X174427849Y-108306867D01*
X174467120Y-108283634D01*
X174510623Y-108258024D01*
X174557431Y-108230574D01*
X174606617Y-108201825D01*
X174657254Y-108172315D01*
X174708414Y-108142583D01*
X174759170Y-108113168D01*
X174808596Y-108084609D01*
X174855763Y-108057446D01*
X174899746Y-108032216D01*
X174939615Y-108009460D01*
X174974445Y-107989716D01*
X175003309Y-107973523D01*
X175025278Y-107961419D01*
X175039426Y-107953945D01*
X175044486Y-107951662D01*
X175050232Y-107954213D01*
X175065326Y-107962185D01*
X175089352Y-107975341D01*
X175121891Y-107993442D01*
X175162524Y-108016250D01*
X175210835Y-108043526D01*
X175266404Y-108075033D01*
X175328814Y-108110531D01*
X175397647Y-108149782D01*
X175472484Y-108192548D01*
X175552908Y-108238591D01*
X175638499Y-108287672D01*
X175728841Y-108339553D01*
X175823515Y-108393995D01*
X175922103Y-108450760D01*
X176024187Y-108509611D01*
X176109267Y-108558711D01*
X177164778Y-109168145D01*
X177167672Y-110010965D01*
X178086041Y-110010965D01*
X178148607Y-109974942D01*
X178252934Y-109914833D01*
X178365314Y-109850049D01*
X178486036Y-109780425D01*
X178615390Y-109705796D01*
X178753663Y-109625998D01*
X178901146Y-109540865D01*
X179048892Y-109455565D01*
X180780044Y-108456032D01*
X180780044Y-108367467D01*
X180307774Y-108367467D01*
X180302739Y-108370487D01*
X180288312Y-108378926D01*
X180264879Y-108392564D01*
X180232823Y-108411175D01*
X180192532Y-108434539D01*
X180144389Y-108462432D01*
X180088780Y-108494631D01*
X180026090Y-108530913D01*
X179956705Y-108571056D01*
X179881010Y-108614837D01*
X179799389Y-108662032D01*
X179712229Y-108712421D01*
X179619915Y-108765778D01*
X179522830Y-108821883D01*
X179421362Y-108880511D01*
X179315895Y-108941440D01*
X179206814Y-109004448D01*
X179094505Y-109069311D01*
X178979353Y-109135807D01*
X178887416Y-109188891D01*
X177469578Y-110007493D01*
X177468130Y-109589965D01*
X177467952Y-109522298D01*
X177467893Y-109457922D01*
X177467945Y-109397728D01*
X177468105Y-109342605D01*
X177468365Y-109293445D01*
X177468720Y-109251138D01*
X177469163Y-109216574D01*
X177469689Y-109190644D01*
X177470292Y-109174237D01*
X177470952Y-109168256D01*
X177476438Y-109164822D01*
X177491141Y-109156091D01*
X177514517Y-109142377D01*
X177546020Y-109123994D01*
X177585106Y-109101257D01*
X177631230Y-109074479D01*
X177683847Y-109043974D01*
X177742413Y-109010057D01*
X177806381Y-108973041D01*
X177875208Y-108933241D01*
X177948349Y-108890970D01*
X178025258Y-108846542D01*
X178105391Y-108800273D01*
X178188203Y-108752474D01*
X178273149Y-108703462D01*
X178359684Y-108653549D01*
X178447264Y-108603050D01*
X178535343Y-108552278D01*
X178623377Y-108501549D01*
X178710821Y-108451175D01*
X178797130Y-108401471D01*
X178881758Y-108352751D01*
X178964162Y-108305329D01*
X179043796Y-108259518D01*
X179120115Y-108215634D01*
X179192576Y-108173990D01*
X179260631Y-108134900D01*
X179323738Y-108098678D01*
X179381350Y-108065638D01*
X179432924Y-108036094D01*
X179477914Y-108010361D01*
X179515775Y-107988751D01*
X179545963Y-107971580D01*
X179567932Y-107959162D01*
X179581138Y-107951809D01*
X179585069Y-107949778D01*
X179590980Y-107952510D01*
X179605609Y-107960349D01*
X179628030Y-107972760D01*
X179657317Y-107989207D01*
X179692541Y-108009155D01*
X179732778Y-108032068D01*
X179777101Y-108057411D01*
X179824583Y-108084648D01*
X179874297Y-108113244D01*
X179925317Y-108142663D01*
X179976718Y-108172370D01*
X180027571Y-108201830D01*
X180076951Y-108230506D01*
X180123931Y-108257864D01*
X180167585Y-108283368D01*
X180206986Y-108306483D01*
X180241207Y-108326672D01*
X180269323Y-108343401D01*
X180290406Y-108356134D01*
X180303530Y-108364336D01*
X180307774Y-108367467D01*
X180780044Y-108367467D01*
X180780044Y-106456957D01*
X180480889Y-106456957D01*
X180480875Y-106592477D01*
X180480832Y-106725031D01*
X180480763Y-106854179D01*
X180480669Y-106979478D01*
X180480550Y-107100486D01*
X180480407Y-107216762D01*
X180480243Y-107327865D01*
X180480057Y-107433352D01*
X180479852Y-107532782D01*
X180479627Y-107625713D01*
X180479385Y-107711703D01*
X180479127Y-107790310D01*
X180478853Y-107861094D01*
X180478565Y-107923612D01*
X180478263Y-107977422D01*
X180477950Y-108022082D01*
X180477626Y-108057152D01*
X180477292Y-108082189D01*
X180476950Y-108096751D01*
X180476656Y-108100565D01*
X180471198Y-108097444D01*
X180456731Y-108089126D01*
X180434022Y-108076054D01*
X180403841Y-108058670D01*
X180366957Y-108037419D01*
X180324138Y-108012743D01*
X180276153Y-107985084D01*
X180223772Y-107954887D01*
X180167763Y-107922594D01*
X180108895Y-107888648D01*
X180106944Y-107887524D01*
X179741467Y-107676760D01*
X179741467Y-105878819D01*
X179441483Y-105878819D01*
X179441478Y-105959846D01*
X179441436Y-106049757D01*
X179441359Y-106149010D01*
X179441251Y-106258061D01*
X179441117Y-106377370D01*
X179440958Y-106507394D01*
X179440914Y-106542148D01*
X179439489Y-107670198D01*
X178454533Y-108238954D01*
X177469578Y-108807710D01*
X177468565Y-108006081D01*
X177166409Y-108006081D01*
X177166383Y-108107525D01*
X177166311Y-108204257D01*
X177166196Y-108295747D01*
X177166039Y-108381467D01*
X177165842Y-108460887D01*
X177165607Y-108533477D01*
X177165334Y-108598707D01*
X177165026Y-108656049D01*
X177164684Y-108704971D01*
X177164310Y-108744946D01*
X177163905Y-108775443D01*
X177163471Y-108795933D01*
X177163010Y-108805887D01*
X177162808Y-108806797D01*
X177157514Y-108803830D01*
X177142909Y-108795486D01*
X177119458Y-108782031D01*
X177087625Y-108763736D01*
X177047876Y-108740866D01*
X177000675Y-108713690D01*
X176946487Y-108682477D01*
X176885777Y-108647494D01*
X176819010Y-108609008D01*
X176746650Y-108567289D01*
X176669162Y-108522603D01*
X176587012Y-108475218D01*
X176500664Y-108425403D01*
X176410582Y-108373426D01*
X176317232Y-108319554D01*
X176221079Y-108264055D01*
X176176427Y-108238280D01*
X176079098Y-108182083D01*
X175984342Y-108127347D01*
X175892624Y-108074344D01*
X175804411Y-108023343D01*
X175720171Y-107974616D01*
X175640368Y-107928432D01*
X175565471Y-107885063D01*
X175495944Y-107844778D01*
X175432256Y-107807848D01*
X175374872Y-107774543D01*
X175324258Y-107745135D01*
X175280882Y-107719892D01*
X175245209Y-107699087D01*
X175217706Y-107682988D01*
X175217486Y-107682858D01*
X174881625Y-107682858D01*
X174524602Y-107889227D01*
X174167578Y-108095595D01*
X174166148Y-107278076D01*
X174165972Y-107163675D01*
X174165828Y-107039805D01*
X174165714Y-106908283D01*
X174165632Y-106770929D01*
X174165580Y-106629561D01*
X174165558Y-106485998D01*
X174165568Y-106342060D01*
X174165609Y-106199565D01*
X174165680Y-106060331D01*
X174165782Y-105926178D01*
X174165916Y-105798925D01*
X174166080Y-105680389D01*
X174166148Y-105639263D01*
X174167578Y-104817969D01*
X174523178Y-105023290D01*
X174878778Y-105228610D01*
X174880202Y-106455734D01*
X174881625Y-107682858D01*
X175217486Y-107682858D01*
X175198841Y-107671867D01*
X175189078Y-107665994D01*
X175187779Y-107665136D01*
X175186489Y-107661800D01*
X175185370Y-107653925D01*
X175184416Y-107640908D01*
X175183619Y-107622146D01*
X175182972Y-107597035D01*
X175182470Y-107564974D01*
X175182104Y-107525358D01*
X175181868Y-107477586D01*
X175181754Y-107421054D01*
X175181757Y-107355159D01*
X175181869Y-107279298D01*
X175182082Y-107192868D01*
X175182135Y-107174828D01*
X175183578Y-106691034D01*
X175240022Y-106723764D01*
X175266613Y-106739154D01*
X175293436Y-106754629D01*
X175316779Y-106768048D01*
X175328922Y-106774995D01*
X175361378Y-106793495D01*
X175361378Y-106494364D01*
X175180756Y-106389660D01*
X175180756Y-105896564D01*
X175180803Y-105823101D01*
X175180940Y-105753003D01*
X175181160Y-105687073D01*
X175181456Y-105626115D01*
X175181821Y-105570931D01*
X175182249Y-105522325D01*
X175182731Y-105481100D01*
X175183262Y-105448059D01*
X175183834Y-105424005D01*
X175184441Y-105409741D01*
X175184989Y-105405919D01*
X175190252Y-105408957D01*
X175204790Y-105417350D01*
X175228103Y-105430806D01*
X175259688Y-105449038D01*
X175299045Y-105471755D01*
X175345671Y-105498668D01*
X175399065Y-105529487D01*
X175458727Y-105563924D01*
X175524153Y-105601688D01*
X175594843Y-105642490D01*
X175670296Y-105686041D01*
X175750009Y-105732051D01*
X175833481Y-105780231D01*
X175920212Y-105830291D01*
X176009698Y-105881942D01*
X176033067Y-105895430D01*
X176125691Y-105948893D01*
X176217171Y-106001697D01*
X176306892Y-106053485D01*
X176394233Y-106103902D01*
X176478578Y-106152591D01*
X176559308Y-106199194D01*
X176635806Y-106243355D01*
X176707453Y-106284717D01*
X176773632Y-106322924D01*
X176833725Y-106357619D01*
X176887113Y-106388445D01*
X176933180Y-106415044D01*
X176971306Y-106437062D01*
X177000874Y-106454140D01*
X177020844Y-106465679D01*
X177164778Y-106548867D01*
X177166203Y-107678775D01*
X177166321Y-107791177D01*
X177166389Y-107900455D01*
X177166409Y-108006081D01*
X177468565Y-108006081D01*
X177468153Y-107680540D01*
X177468032Y-107568544D01*
X177467956Y-107459555D01*
X177467923Y-107354108D01*
X177467931Y-107252742D01*
X177467980Y-107155993D01*
X177468068Y-107064401D01*
X177468194Y-106978501D01*
X177468356Y-106898831D01*
X177468553Y-106825929D01*
X177468784Y-106760333D01*
X177469047Y-106702579D01*
X177469341Y-106653205D01*
X177469665Y-106612748D01*
X177470017Y-106581747D01*
X177470396Y-106560737D01*
X177470801Y-106550258D01*
X177470975Y-106549129D01*
X177476331Y-106545783D01*
X177490566Y-106537331D01*
X177512808Y-106524276D01*
X177542189Y-106507122D01*
X177577836Y-106486370D01*
X177618880Y-106462524D01*
X177664449Y-106436087D01*
X177713673Y-106407562D01*
X177765681Y-106377453D01*
X177819603Y-106346261D01*
X177874568Y-106314490D01*
X177929705Y-106282643D01*
X177984143Y-106251224D01*
X178037013Y-106220734D01*
X178087443Y-106191677D01*
X178134562Y-106164556D01*
X178177500Y-106139875D01*
X178215387Y-106118135D01*
X178247351Y-106099840D01*
X178272523Y-106085493D01*
X178290030Y-106075597D01*
X178299003Y-106070655D01*
X178300015Y-106070178D01*
X178300311Y-106075696D01*
X178300595Y-106091746D01*
X178300864Y-106117569D01*
X178301115Y-106152408D01*
X178301345Y-106195506D01*
X178301551Y-106246105D01*
X178301731Y-106303447D01*
X178301881Y-106366775D01*
X178301999Y-106435332D01*
X178302081Y-106508359D01*
X178302126Y-106585099D01*
X178302133Y-106631800D01*
X178302175Y-106710371D01*
X178302296Y-106785672D01*
X178302491Y-106856947D01*
X178302753Y-106923438D01*
X178303078Y-106984387D01*
X178303459Y-107039039D01*
X178303892Y-107086634D01*
X178304369Y-107126417D01*
X178304886Y-107157630D01*
X178305436Y-107179515D01*
X178306014Y-107191316D01*
X178306367Y-107193242D01*
X178312145Y-107190469D01*
X178326426Y-107182715D01*
X178347962Y-107170685D01*
X178375503Y-107155084D01*
X178407799Y-107136615D01*
X178443602Y-107115984D01*
X178454533Y-107109657D01*
X178598467Y-107026252D01*
X178604111Y-105893490D01*
X179013333Y-105656659D01*
X179075884Y-105620492D01*
X179135752Y-105585941D01*
X179192203Y-105553427D01*
X179244498Y-105523371D01*
X179291900Y-105496195D01*
X179333673Y-105472321D01*
X179369079Y-105452169D01*
X179397382Y-105436163D01*
X179417843Y-105424722D01*
X179429727Y-105418269D01*
X179432447Y-105416963D01*
X179433611Y-105417009D01*
X179434679Y-105418157D01*
X179435654Y-105420864D01*
X179436540Y-105425588D01*
X179437339Y-105432786D01*
X179438057Y-105442916D01*
X179438694Y-105456437D01*
X179439257Y-105473806D01*
X179439747Y-105495480D01*
X179440168Y-105521918D01*
X179440524Y-105553578D01*
X179440819Y-105590916D01*
X179441055Y-105634392D01*
X179441235Y-105684462D01*
X179441365Y-105741585D01*
X179441446Y-105806218D01*
X179441483Y-105878819D01*
X179741467Y-105878819D01*
X179741467Y-105236036D01*
X179894705Y-105147698D01*
X179271557Y-105147698D01*
X179266109Y-105151065D01*
X179251464Y-105159713D01*
X179228190Y-105173316D01*
X179196852Y-105191548D01*
X179158019Y-105214082D01*
X179112255Y-105240592D01*
X179060129Y-105270752D01*
X179002206Y-105304236D01*
X178939053Y-105340717D01*
X178871236Y-105379869D01*
X178799323Y-105421367D01*
X178723880Y-105464883D01*
X178645473Y-105510092D01*
X178564670Y-105556668D01*
X178482036Y-105604283D01*
X178398138Y-105652612D01*
X178313543Y-105701329D01*
X178228818Y-105750107D01*
X178144528Y-105798621D01*
X178061242Y-105846543D01*
X177979524Y-105893548D01*
X177899943Y-105939310D01*
X177823064Y-105983502D01*
X177749454Y-106025798D01*
X177679679Y-106065872D01*
X177614307Y-106103397D01*
X177553904Y-106138048D01*
X177499037Y-106169498D01*
X177450271Y-106197421D01*
X177408174Y-106221491D01*
X177373312Y-106241381D01*
X177346253Y-106256765D01*
X177327561Y-106267317D01*
X177317805Y-106272711D01*
X177316460Y-106273372D01*
X177310539Y-106270621D01*
X177295740Y-106262697D01*
X177272943Y-106250099D01*
X177243030Y-106233326D01*
X177206884Y-106212876D01*
X177165385Y-106189248D01*
X177119416Y-106162941D01*
X177069859Y-106134452D01*
X177025771Y-106109009D01*
X176961560Y-106071897D01*
X176890302Y-106030728D01*
X176814457Y-105986921D01*
X176736487Y-105941898D01*
X176658850Y-105897078D01*
X176584007Y-105853882D01*
X176514418Y-105813731D01*
X176462044Y-105783524D01*
X176410423Y-105753740D01*
X176361562Y-105725519D01*
X176316366Y-105699384D01*
X176275742Y-105675863D01*
X176240598Y-105655479D01*
X176211838Y-105638760D01*
X176190370Y-105626230D01*
X176177101Y-105618415D01*
X176173077Y-105615967D01*
X176171184Y-105613119D01*
X176173301Y-105608898D01*
X176180435Y-105602600D01*
X176193593Y-105593521D01*
X176213784Y-105580954D01*
X176242014Y-105564196D01*
X176271855Y-105546839D01*
X176293045Y-105534585D01*
X176323095Y-105517219D01*
X176361090Y-105495269D01*
X176406112Y-105469264D01*
X176457244Y-105439734D01*
X176513571Y-105407209D01*
X176574174Y-105372217D01*
X176638137Y-105335288D01*
X176704544Y-105296952D01*
X176772477Y-105257738D01*
X176831756Y-105223522D01*
X176897707Y-105185449D01*
X176961103Y-105148835D01*
X177021230Y-105114094D01*
X177077375Y-105081638D01*
X177128824Y-105051881D01*
X177174863Y-105025236D01*
X177214779Y-105002115D01*
X177247858Y-104982933D01*
X177273386Y-104968101D01*
X177290649Y-104958033D01*
X177298935Y-104953143D01*
X177299297Y-104952920D01*
X177315282Y-104942946D01*
X177180763Y-104865178D01*
X177144709Y-104844336D01*
X177111220Y-104824979D01*
X177081732Y-104807938D01*
X177057681Y-104794042D01*
X177040501Y-104784119D01*
X177031628Y-104779000D01*
X177031538Y-104778948D01*
X177029123Y-104777771D01*
X177026228Y-104777144D01*
X177022319Y-104777362D01*
X177016862Y-104778717D01*
X177009321Y-104781503D01*
X176999161Y-104786013D01*
X176985848Y-104792541D01*
X176968847Y-104801381D01*
X176947622Y-104812825D01*
X176921639Y-104827166D01*
X176890363Y-104844700D01*
X176853259Y-104865718D01*
X176809792Y-104890514D01*
X176759427Y-104919382D01*
X176701630Y-104952615D01*
X176635865Y-104990506D01*
X176561597Y-105033349D01*
X176478292Y-105081437D01*
X176444469Y-105100966D01*
X176370414Y-105143711D01*
X176299044Y-105184879D01*
X176230972Y-105224117D01*
X176166812Y-105261074D01*
X176107177Y-105295396D01*
X176052680Y-105326731D01*
X176003935Y-105354728D01*
X175961553Y-105379034D01*
X175926150Y-105399296D01*
X175898337Y-105415163D01*
X175878728Y-105426282D01*
X175867936Y-105432301D01*
X175865973Y-105433312D01*
X175859918Y-105431023D01*
X175845402Y-105423697D01*
X175823535Y-105411974D01*
X175795425Y-105396497D01*
X175762182Y-105377905D01*
X175724914Y-105356840D01*
X175684729Y-105333942D01*
X175642738Y-105309853D01*
X175600048Y-105285214D01*
X175557768Y-105260665D01*
X175517007Y-105236847D01*
X175478875Y-105214401D01*
X175444479Y-105193968D01*
X175414928Y-105176190D01*
X175391332Y-105161707D01*
X175374799Y-105151159D01*
X175366438Y-105145188D01*
X175365670Y-105144119D01*
X175370891Y-105140983D01*
X175385321Y-105132540D01*
X175408391Y-105119119D01*
X175439534Y-105101046D01*
X175478182Y-105078648D01*
X175523769Y-105052254D01*
X175575727Y-105022191D01*
X175633488Y-104988786D01*
X175696485Y-104952367D01*
X175764150Y-104913261D01*
X175835917Y-104871795D01*
X175911216Y-104828298D01*
X175989483Y-104783096D01*
X176070147Y-104736517D01*
X176152643Y-104688889D01*
X176236403Y-104640539D01*
X176320859Y-104591794D01*
X176405445Y-104542982D01*
X176489591Y-104494431D01*
X176572732Y-104446467D01*
X176654299Y-104399419D01*
X176733726Y-104353613D01*
X176810444Y-104309378D01*
X176883887Y-104267040D01*
X176953486Y-104226928D01*
X177018675Y-104189368D01*
X177078886Y-104154688D01*
X177133552Y-104123216D01*
X177182105Y-104095279D01*
X177223977Y-104071205D01*
X177258601Y-104051321D01*
X177285411Y-104035954D01*
X177303837Y-104025432D01*
X177313314Y-104020082D01*
X177314509Y-104019449D01*
X177319751Y-104022081D01*
X177334162Y-104030013D01*
X177357132Y-104042899D01*
X177388057Y-104060392D01*
X177426328Y-104082145D01*
X177471338Y-104107811D01*
X177522481Y-104137044D01*
X177579149Y-104169497D01*
X177640735Y-104204822D01*
X177706633Y-104242673D01*
X177776235Y-104282703D01*
X177848934Y-104324565D01*
X177895028Y-104351132D01*
X177982457Y-104401556D01*
X178060601Y-104446659D01*
X178129960Y-104486744D01*
X178191036Y-104522113D01*
X178244333Y-104553069D01*
X178290351Y-104579913D01*
X178329594Y-104602949D01*
X178362563Y-104622479D01*
X178389760Y-104638806D01*
X178411688Y-104652231D01*
X178428848Y-104663058D01*
X178441743Y-104671588D01*
X178450875Y-104678125D01*
X178456746Y-104682970D01*
X178459859Y-104686426D01*
X178460714Y-104688797D01*
X178459815Y-104690383D01*
X178459062Y-104690874D01*
X178444883Y-104698737D01*
X178422443Y-104711436D01*
X178392480Y-104728541D01*
X178355732Y-104749621D01*
X178312939Y-104774248D01*
X178264839Y-104801991D01*
X178212172Y-104832421D01*
X178155677Y-104865108D01*
X178096091Y-104899623D01*
X178034155Y-104935536D01*
X177970607Y-104972418D01*
X177906186Y-105009838D01*
X177841631Y-105047367D01*
X177777680Y-105084576D01*
X177715073Y-105121035D01*
X177654549Y-105156314D01*
X177596846Y-105189984D01*
X177542703Y-105221615D01*
X177492860Y-105250777D01*
X177448055Y-105277040D01*
X177409026Y-105299976D01*
X177376514Y-105319155D01*
X177351257Y-105334146D01*
X177333993Y-105344520D01*
X177325462Y-105349848D01*
X177324660Y-105350473D01*
X177329374Y-105354318D01*
X177342699Y-105363010D01*
X177363431Y-105375818D01*
X177390367Y-105392014D01*
X177422302Y-105410868D01*
X177458032Y-105431650D01*
X177470881Y-105439055D01*
X177617079Y-105523106D01*
X178194101Y-105189906D01*
X178771124Y-104856706D01*
X179022042Y-105001548D01*
X179070502Y-105029561D01*
X179115829Y-105055841D01*
X179157113Y-105079854D01*
X179193448Y-105101069D01*
X179223925Y-105118955D01*
X179247637Y-105132979D01*
X179263676Y-105142611D01*
X179271133Y-105147317D01*
X179271557Y-105147698D01*
X179894705Y-105147698D01*
X180098478Y-105030228D01*
X180156991Y-104996505D01*
X180212861Y-104964322D01*
X180265286Y-104934141D01*
X180313463Y-104906422D01*
X180356590Y-104881626D01*
X180393862Y-104860216D01*
X180424479Y-104842653D01*
X180447637Y-104829397D01*
X180462532Y-104820911D01*
X180468189Y-104817745D01*
X180480889Y-104811070D01*
X180480889Y-106456957D01*
X180780044Y-106456957D01*
X180780044Y-104545258D01*
X180306814Y-104545258D01*
X180302628Y-104548532D01*
X180289566Y-104556871D01*
X180268553Y-104569739D01*
X180240515Y-104586598D01*
X180206377Y-104606912D01*
X180167064Y-104630143D01*
X180123501Y-104655756D01*
X180076613Y-104683214D01*
X180027326Y-104711979D01*
X179976564Y-104741515D01*
X179925254Y-104771284D01*
X179874319Y-104800751D01*
X179824685Y-104829379D01*
X179777278Y-104856629D01*
X179733023Y-104881967D01*
X179692844Y-104904855D01*
X179657667Y-104924756D01*
X179628417Y-104941133D01*
X179606019Y-104953450D01*
X179591398Y-104961170D01*
X179585527Y-104963758D01*
X179580100Y-104960986D01*
X179565350Y-104952820D01*
X179541725Y-104939518D01*
X179509673Y-104921337D01*
X179469645Y-104898535D01*
X179422088Y-104871370D01*
X179367452Y-104840099D01*
X179306185Y-104804980D01*
X179238737Y-104766271D01*
X179165555Y-104724228D01*
X179087089Y-104679110D01*
X179003788Y-104631175D01*
X178916101Y-104580679D01*
X178824475Y-104527880D01*
X178729361Y-104473037D01*
X178631207Y-104416406D01*
X178530461Y-104358245D01*
X178524371Y-104354728D01*
X177469578Y-103745590D01*
X177468131Y-103324134D01*
X177468121Y-103320971D01*
X177167600Y-103320971D01*
X177167600Y-103743287D01*
X176111014Y-104353577D01*
X176010052Y-104411878D01*
X175911661Y-104468666D01*
X175816289Y-104523683D01*
X175724382Y-104576672D01*
X175636390Y-104627375D01*
X175552760Y-104675536D01*
X175473941Y-104720896D01*
X175400380Y-104763199D01*
X175332526Y-104802186D01*
X175270826Y-104837601D01*
X175215729Y-104869186D01*
X175167682Y-104896684D01*
X175127133Y-104919836D01*
X175094531Y-104938387D01*
X175070324Y-104952078D01*
X175054959Y-104960651D01*
X175048885Y-104963851D01*
X175048817Y-104963867D01*
X175043130Y-104961114D01*
X175028450Y-104953151D01*
X175005555Y-104940418D01*
X174975222Y-104923358D01*
X174938230Y-104902412D01*
X174895357Y-104878021D01*
X174847381Y-104850629D01*
X174795080Y-104820675D01*
X174739232Y-104788602D01*
X174683359Y-104756434D01*
X174625075Y-104722755D01*
X174569822Y-104690671D01*
X174518354Y-104660629D01*
X174471426Y-104633077D01*
X174429791Y-104608463D01*
X174394204Y-104587233D01*
X174365418Y-104569836D01*
X174344188Y-104556720D01*
X174331268Y-104548332D01*
X174327390Y-104545135D01*
X174332538Y-104542028D01*
X174347076Y-104533500D01*
X174370619Y-104519775D01*
X174402780Y-104501077D01*
X174443173Y-104477630D01*
X174491412Y-104449656D01*
X174547110Y-104417379D01*
X174609881Y-104381023D01*
X174679340Y-104340811D01*
X174755099Y-104296967D01*
X174836773Y-104249714D01*
X174923975Y-104199275D01*
X175016319Y-104145875D01*
X175113419Y-104089736D01*
X175214889Y-104031083D01*
X175320342Y-103970138D01*
X175429393Y-103907126D01*
X175541654Y-103842269D01*
X175656740Y-103775791D01*
X175745200Y-103724701D01*
X175862160Y-103657154D01*
X175976590Y-103591068D01*
X176088102Y-103526666D01*
X176196310Y-103464170D01*
X176300829Y-103403805D01*
X176401272Y-103345793D01*
X176497253Y-103290358D01*
X176588385Y-103237722D01*
X176674281Y-103188109D01*
X176754557Y-103141741D01*
X176828825Y-103098843D01*
X176896699Y-103059636D01*
X176957793Y-103024345D01*
X177011721Y-102993192D01*
X177058096Y-102966400D01*
X177096532Y-102944193D01*
X177126642Y-102926793D01*
X177148041Y-102914425D01*
X177160342Y-102907310D01*
X177163367Y-102905555D01*
X177164049Y-102910631D01*
X177164697Y-102926127D01*
X177165302Y-102951174D01*
X177165856Y-102984904D01*
X177166349Y-103026448D01*
X177166773Y-103074937D01*
X177167119Y-103129503D01*
X177167378Y-103189276D01*
X177167541Y-103253389D01*
X177167600Y-103320971D01*
X177468121Y-103320971D01*
X177466683Y-102902679D01*
X177485064Y-102913968D01*
X177491432Y-102917701D01*
X177507183Y-102926849D01*
X177531924Y-102941187D01*
X177565262Y-102960485D01*
X177606802Y-102984517D01*
X177656152Y-103013055D01*
X177712917Y-103045872D01*
X177776705Y-103082741D01*
X177847121Y-103123434D01*
X177923772Y-103167724D01*
X178006264Y-103215383D01*
X178094204Y-103266184D01*
X178187199Y-103319899D01*
X178284854Y-103376302D01*
X178386776Y-103435165D01*
X178492572Y-103496259D01*
X178601848Y-103559359D01*
X178714210Y-103624237D01*
X178829266Y-103690664D01*
X178903267Y-103733387D01*
X179019641Y-103800576D01*
X179133479Y-103866312D01*
X179244392Y-103930369D01*
X179351993Y-103992524D01*
X179455893Y-104052552D01*
X179555704Y-104110229D01*
X179651038Y-104165329D01*
X179741507Y-104217628D01*
X179826722Y-104266902D01*
X179906295Y-104312926D01*
X179979839Y-104355476D01*
X180046964Y-104394327D01*
X180107284Y-104429255D01*
X180160409Y-104460034D01*
X180205951Y-104486441D01*
X180243522Y-104508251D01*
X180272735Y-104525239D01*
X180293200Y-104537181D01*
X180304530Y-104543853D01*
X180306814Y-104545258D01*
X180780044Y-104545258D01*
X180780044Y-104457564D01*
X179051440Y-103459530D01*
X178921989Y-103384800D01*
X178795026Y-103311526D01*
X178670901Y-103239910D01*
X178549963Y-103170152D01*
X178432561Y-103102453D01*
X178319045Y-103037015D01*
X178209766Y-102974039D01*
X178105072Y-102913726D01*
X178005313Y-102856276D01*
X177910839Y-102801892D01*
X177821999Y-102750774D01*
X177739142Y-102703124D01*
X177662620Y-102659142D01*
X177592780Y-102619029D01*
X177529973Y-102582987D01*
X177474548Y-102551217D01*
X177426855Y-102523920D01*
X177387243Y-102501297D01*
X177356062Y-102483549D01*
X177333662Y-102470877D01*
X177320393Y-102463482D01*
X177316556Y-102461496D01*
X177311122Y-102464278D01*
G37*
X177311122Y-102464278D02*
X177296377Y-102472446D01*
X177272784Y-102485734D01*
X177240805Y-102503878D01*
X177200902Y-102526613D01*
X177153538Y-102553673D01*
X177099174Y-102584793D01*
X177038272Y-102619709D01*
X176971295Y-102658153D01*
X176898705Y-102699863D01*
X176820964Y-102744571D01*
X176738534Y-102792014D01*
X176651877Y-102841925D01*
X176561456Y-102894040D01*
X176467732Y-102948094D01*
X176371168Y-103003820D01*
X176314660Y-103036447D01*
X176141272Y-103136575D01*
X175977314Y-103231257D01*
X175822442Y-103320692D01*
X175676310Y-103405079D01*
X175538574Y-103484618D01*
X175408889Y-103559506D01*
X175286910Y-103629945D01*
X175172291Y-103696132D01*
X175064688Y-103758267D01*
X174963755Y-103816550D01*
X174869148Y-103871180D01*
X174780522Y-103922355D01*
X174697531Y-103970275D01*
X174619830Y-104015139D01*
X174547075Y-104057147D01*
X174478921Y-104096498D01*
X174415022Y-104133390D01*
X174355034Y-104168024D01*
X174298611Y-104200598D01*
X174245408Y-104231311D01*
X174195081Y-104260364D01*
X174147284Y-104287954D01*
X174137944Y-104293345D01*
X173854311Y-104457065D01*
X173854311Y-108456579D01*
X174137944Y-108620299D01*
X174190053Y-108650378D01*
X174250406Y-108685219D01*
X174317472Y-108723936D01*
X174389720Y-108765646D01*
X174465619Y-108809466D01*
X174543637Y-108854510D01*
X174622243Y-108899894D01*
X174699906Y-108944735D01*
X174775094Y-108988149D01*
X174836444Y-109023574D01*
X175029766Y-109135202D01*
X175213517Y-109241304D01*
X175387902Y-109341996D01*
X175553127Y-109437397D01*
X175709396Y-109527626D01*
X175856914Y-109612800D01*
X175995887Y-109693039D01*
X176126519Y-109768460D01*
X176249015Y-109839182D01*
X176363582Y-109905324D01*
X176470422Y-109967002D01*
X176569742Y-110024337D01*
X176661747Y-110077446D01*
X176746641Y-110126447D01*
X176824629Y-110171459D01*
X176895918Y-110212600D01*
X176960710Y-110249989D01*
X177019213Y-110283743D01*
X177071630Y-110313982D01*
X177118166Y-110340823D01*
X177159028Y-110364385D01*
X177194419Y-110384786D01*
X177224544Y-110402144D01*
X177249609Y-110416578D01*
X177269819Y-110428206D01*
X177285379Y-110437147D01*
X177296494Y-110443518D01*
X177303368Y-110447438D01*
X177306170Y-110449007D01*
X177308144Y-110449022D01*
X177312101Y-110447821D01*
X177318331Y-110445240D01*
X177327123Y-110441114D01*
X177338766Y-110435278D01*
X177353548Y-110427568D01*
X177371760Y-110417818D01*
X177393690Y-110405865D01*
X177419626Y-110391542D01*
X177449859Y-110374687D01*
X177484676Y-110355133D01*
X177524367Y-110332716D01*
X177569222Y-110307271D01*
X177619528Y-110278633D01*
X177675576Y-110246639D01*
X177737653Y-110211122D01*
X177806050Y-110171919D01*
X177881054Y-110128864D01*
X177962956Y-110081792D01*
X178052044Y-110030540D01*
X178086041Y-110010965D01*
X177167672Y-110010965D01*
X177149292Y-109999714D01*
X177142924Y-109995984D01*
X177127172Y-109986840D01*
X177102431Y-109972506D01*
X177069092Y-109953212D01*
X177027551Y-109929185D01*
X176978200Y-109900651D01*
X176921434Y-109867839D01*
X176857645Y-109830975D01*
X176787228Y-109790288D01*
X176710576Y-109746003D01*
X176628082Y-109698350D01*
X176540140Y-109647554D01*
X176447144Y-109593845D01*
X176349487Y-109537447D01*
X176247563Y-109478591D01*
X176141765Y-109417502D01*
X176032488Y-109354407D01*
X175920124Y-109289536D01*
X175805067Y-109223114D01*
X175731089Y-109180409D01*
X175614712Y-109113224D01*
X175500870Y-109047492D01*
X175389953Y-108983437D01*
X175282347Y-108921284D01*
X175178442Y-108861257D01*
X175078625Y-108803581D01*
X174983285Y-108748481D01*
X174892810Y-108696181D01*
X174807589Y-108646905D01*
X174728008Y-108600879D01*
X174654458Y-108558326D01*
X174587326Y-108519472D01*
X174527000Y-108484541D01*
X174473868Y-108453757D01*
X174428319Y-108427345D01*
X174390741Y-108405530D01*
X174361522Y-108388536D01*
X174341050Y-108376588D01*
X174329715Y-108369910D01*
X174327428Y-108368500D01*
X174331630Y-108365241D01*
X174344700Y-108356909D01*
X174365712Y-108344044D01*
X174393737Y-108327183D01*
X174427849Y-108306867D01*
X174467120Y-108283634D01*
X174510623Y-108258024D01*
X174557431Y-108230574D01*
X174606617Y-108201825D01*
X174657254Y-108172315D01*
X174708414Y-108142583D01*
X174759170Y-108113168D01*
X174808596Y-108084609D01*
X174855763Y-108057446D01*
X174899746Y-108032216D01*
X174939615Y-108009460D01*
X174974445Y-107989716D01*
X175003309Y-107973523D01*
X175025278Y-107961419D01*
X175039426Y-107953945D01*
X175044486Y-107951662D01*
X175050232Y-107954213D01*
X175065326Y-107962185D01*
X175089352Y-107975341D01*
X175121891Y-107993442D01*
X175162524Y-108016250D01*
X175210835Y-108043526D01*
X175266404Y-108075033D01*
X175328814Y-108110531D01*
X175397647Y-108149782D01*
X175472484Y-108192548D01*
X175552908Y-108238591D01*
X175638499Y-108287672D01*
X175728841Y-108339553D01*
X175823515Y-108393995D01*
X175922103Y-108450760D01*
X176024187Y-108509611D01*
X176109267Y-108558711D01*
X177164778Y-109168145D01*
X177167672Y-110010965D01*
X178086041Y-110010965D01*
X178148607Y-109974942D01*
X178252934Y-109914833D01*
X178365314Y-109850049D01*
X178486036Y-109780425D01*
X178615390Y-109705796D01*
X178753663Y-109625998D01*
X178901146Y-109540865D01*
X179048892Y-109455565D01*
X180780044Y-108456032D01*
X180780044Y-108367467D01*
X180307774Y-108367467D01*
X180302739Y-108370487D01*
X180288312Y-108378926D01*
X180264879Y-108392564D01*
X180232823Y-108411175D01*
X180192532Y-108434539D01*
X180144389Y-108462432D01*
X180088780Y-108494631D01*
X180026090Y-108530913D01*
X179956705Y-108571056D01*
X179881010Y-108614837D01*
X179799389Y-108662032D01*
X179712229Y-108712421D01*
X179619915Y-108765778D01*
X179522830Y-108821883D01*
X179421362Y-108880511D01*
X179315895Y-108941440D01*
X179206814Y-109004448D01*
X179094505Y-109069311D01*
X178979353Y-109135807D01*
X178887416Y-109188891D01*
X177469578Y-110007493D01*
X177468130Y-109589965D01*
X177467952Y-109522298D01*
X177467893Y-109457922D01*
X177467945Y-109397728D01*
X177468105Y-109342605D01*
X177468365Y-109293445D01*
X177468720Y-109251138D01*
X177469163Y-109216574D01*
X177469689Y-109190644D01*
X177470292Y-109174237D01*
X177470952Y-109168256D01*
X177476438Y-109164822D01*
X177491141Y-109156091D01*
X177514517Y-109142377D01*
X177546020Y-109123994D01*
X177585106Y-109101257D01*
X177631230Y-109074479D01*
X177683847Y-109043974D01*
X177742413Y-109010057D01*
X177806381Y-108973041D01*
X177875208Y-108933241D01*
X177948349Y-108890970D01*
X178025258Y-108846542D01*
X178105391Y-108800273D01*
X178188203Y-108752474D01*
X178273149Y-108703462D01*
X178359684Y-108653549D01*
X178447264Y-108603050D01*
X178535343Y-108552278D01*
X178623377Y-108501549D01*
X178710821Y-108451175D01*
X178797130Y-108401471D01*
X178881758Y-108352751D01*
X178964162Y-108305329D01*
X179043796Y-108259518D01*
X179120115Y-108215634D01*
X179192576Y-108173990D01*
X179260631Y-108134900D01*
X179323738Y-108098678D01*
X179381350Y-108065638D01*
X179432924Y-108036094D01*
X179477914Y-108010361D01*
X179515775Y-107988751D01*
X179545963Y-107971580D01*
X179567932Y-107959162D01*
X179581138Y-107951809D01*
X179585069Y-107949778D01*
X179590980Y-107952510D01*
X179605609Y-107960349D01*
X179628030Y-107972760D01*
X179657317Y-107989207D01*
X179692541Y-108009155D01*
X179732778Y-108032068D01*
X179777101Y-108057411D01*
X179824583Y-108084648D01*
X179874297Y-108113244D01*
X179925317Y-108142663D01*
X179976718Y-108172370D01*
X180027571Y-108201830D01*
X180076951Y-108230506D01*
X180123931Y-108257864D01*
X180167585Y-108283368D01*
X180206986Y-108306483D01*
X180241207Y-108326672D01*
X180269323Y-108343401D01*
X180290406Y-108356134D01*
X180303530Y-108364336D01*
X180307774Y-108367467D01*
X180780044Y-108367467D01*
X180780044Y-106456957D01*
X180480889Y-106456957D01*
X180480875Y-106592477D01*
X180480832Y-106725031D01*
X180480763Y-106854179D01*
X180480669Y-106979478D01*
X180480550Y-107100486D01*
X180480407Y-107216762D01*
X180480243Y-107327865D01*
X180480057Y-107433352D01*
X180479852Y-107532782D01*
X180479627Y-107625713D01*
X180479385Y-107711703D01*
X180479127Y-107790310D01*
X180478853Y-107861094D01*
X180478565Y-107923612D01*
X180478263Y-107977422D01*
X180477950Y-108022082D01*
X180477626Y-108057152D01*
X180477292Y-108082189D01*
X180476950Y-108096751D01*
X180476656Y-108100565D01*
X180471198Y-108097444D01*
X180456731Y-108089126D01*
X180434022Y-108076054D01*
X180403841Y-108058670D01*
X180366957Y-108037419D01*
X180324138Y-108012743D01*
X180276153Y-107985084D01*
X180223772Y-107954887D01*
X180167763Y-107922594D01*
X180108895Y-107888648D01*
X180106944Y-107887524D01*
X179741467Y-107676760D01*
X179741467Y-105878819D01*
X179441483Y-105878819D01*
X179441478Y-105959846D01*
X179441436Y-106049757D01*
X179441359Y-106149010D01*
X179441251Y-106258061D01*
X179441117Y-106377370D01*
X179440958Y-106507394D01*
X179440914Y-106542148D01*
X179439489Y-107670198D01*
X178454533Y-108238954D01*
X177469578Y-108807710D01*
X177468565Y-108006081D01*
X177166409Y-108006081D01*
X177166383Y-108107525D01*
X177166311Y-108204257D01*
X177166196Y-108295747D01*
X177166039Y-108381467D01*
X177165842Y-108460887D01*
X177165607Y-108533477D01*
X177165334Y-108598707D01*
X177165026Y-108656049D01*
X177164684Y-108704971D01*
X177164310Y-108744946D01*
X177163905Y-108775443D01*
X177163471Y-108795933D01*
X177163010Y-108805887D01*
X177162808Y-108806797D01*
X177157514Y-108803830D01*
X177142909Y-108795486D01*
X177119458Y-108782031D01*
X177087625Y-108763736D01*
X177047876Y-108740866D01*
X177000675Y-108713690D01*
X176946487Y-108682477D01*
X176885777Y-108647494D01*
X176819010Y-108609008D01*
X176746650Y-108567289D01*
X176669162Y-108522603D01*
X176587012Y-108475218D01*
X176500664Y-108425403D01*
X176410582Y-108373426D01*
X176317232Y-108319554D01*
X176221079Y-108264055D01*
X176176427Y-108238280D01*
X176079098Y-108182083D01*
X175984342Y-108127347D01*
X175892624Y-108074344D01*
X175804411Y-108023343D01*
X175720171Y-107974616D01*
X175640368Y-107928432D01*
X175565471Y-107885063D01*
X175495944Y-107844778D01*
X175432256Y-107807848D01*
X175374872Y-107774543D01*
X175324258Y-107745135D01*
X175280882Y-107719892D01*
X175245209Y-107699087D01*
X175217706Y-107682988D01*
X175217486Y-107682858D01*
X174881625Y-107682858D01*
X174524602Y-107889227D01*
X174167578Y-108095595D01*
X174166148Y-107278076D01*
X174165972Y-107163675D01*
X174165828Y-107039805D01*
X174165714Y-106908283D01*
X174165632Y-106770929D01*
X174165580Y-106629561D01*
X174165558Y-106485998D01*
X174165568Y-106342060D01*
X174165609Y-106199565D01*
X174165680Y-106060331D01*
X174165782Y-105926178D01*
X174165916Y-105798925D01*
X174166080Y-105680389D01*
X174166148Y-105639263D01*
X174167578Y-104817969D01*
X174523178Y-105023290D01*
X174878778Y-105228610D01*
X174880202Y-106455734D01*
X174881625Y-107682858D01*
X175217486Y-107682858D01*
X175198841Y-107671867D01*
X175189078Y-107665994D01*
X175187779Y-107665136D01*
X175186489Y-107661800D01*
X175185370Y-107653925D01*
X175184416Y-107640908D01*
X175183619Y-107622146D01*
X175182972Y-107597035D01*
X175182470Y-107564974D01*
X175182104Y-107525358D01*
X175181868Y-107477586D01*
X175181754Y-107421054D01*
X175181757Y-107355159D01*
X175181869Y-107279298D01*
X175182082Y-107192868D01*
X175182135Y-107174828D01*
X175183578Y-106691034D01*
X175240022Y-106723764D01*
X175266613Y-106739154D01*
X175293436Y-106754629D01*
X175316779Y-106768048D01*
X175328922Y-106774995D01*
X175361378Y-106793495D01*
X175361378Y-106494364D01*
X175180756Y-106389660D01*
X175180756Y-105896564D01*
X175180803Y-105823101D01*
X175180940Y-105753003D01*
X175181160Y-105687073D01*
X175181456Y-105626115D01*
X175181821Y-105570931D01*
X175182249Y-105522325D01*
X175182731Y-105481100D01*
X175183262Y-105448059D01*
X175183834Y-105424005D01*
X175184441Y-105409741D01*
X175184989Y-105405919D01*
X175190252Y-105408957D01*
X175204790Y-105417350D01*
X175228103Y-105430806D01*
X175259688Y-105449038D01*
X175299045Y-105471755D01*
X175345671Y-105498668D01*
X175399065Y-105529487D01*
X175458727Y-105563924D01*
X175524153Y-105601688D01*
X175594843Y-105642490D01*
X175670296Y-105686041D01*
X175750009Y-105732051D01*
X175833481Y-105780231D01*
X175920212Y-105830291D01*
X176009698Y-105881942D01*
X176033067Y-105895430D01*
X176125691Y-105948893D01*
X176217171Y-106001697D01*
X176306892Y-106053485D01*
X176394233Y-106103902D01*
X176478578Y-106152591D01*
X176559308Y-106199194D01*
X176635806Y-106243355D01*
X176707453Y-106284717D01*
X176773632Y-106322924D01*
X176833725Y-106357619D01*
X176887113Y-106388445D01*
X176933180Y-106415044D01*
X176971306Y-106437062D01*
X177000874Y-106454140D01*
X177020844Y-106465679D01*
X177164778Y-106548867D01*
X177166203Y-107678775D01*
X177166321Y-107791177D01*
X177166389Y-107900455D01*
X177166409Y-108006081D01*
X177468565Y-108006081D01*
X177468153Y-107680540D01*
X177468032Y-107568544D01*
X177467956Y-107459555D01*
X177467923Y-107354108D01*
X177467931Y-107252742D01*
X177467980Y-107155993D01*
X177468068Y-107064401D01*
X177468194Y-106978501D01*
X177468356Y-106898831D01*
X177468553Y-106825929D01*
X177468784Y-106760333D01*
X177469047Y-106702579D01*
X177469341Y-106653205D01*
X177469665Y-106612748D01*
X177470017Y-106581747D01*
X177470396Y-106560737D01*
X177470801Y-106550258D01*
X177470975Y-106549129D01*
X177476331Y-106545783D01*
X177490566Y-106537331D01*
X177512808Y-106524276D01*
X177542189Y-106507122D01*
X177577836Y-106486370D01*
X177618880Y-106462524D01*
X177664449Y-106436087D01*
X177713673Y-106407562D01*
X177765681Y-106377453D01*
X177819603Y-106346261D01*
X177874568Y-106314490D01*
X177929705Y-106282643D01*
X177984143Y-106251224D01*
X178037013Y-106220734D01*
X178087443Y-106191677D01*
X178134562Y-106164556D01*
X178177500Y-106139875D01*
X178215387Y-106118135D01*
X178247351Y-106099840D01*
X178272523Y-106085493D01*
X178290030Y-106075597D01*
X178299003Y-106070655D01*
X178300015Y-106070178D01*
X178300311Y-106075696D01*
X178300595Y-106091746D01*
X178300864Y-106117569D01*
X178301115Y-106152408D01*
X178301345Y-106195506D01*
X178301551Y-106246105D01*
X178301731Y-106303447D01*
X178301881Y-106366775D01*
X178301999Y-106435332D01*
X178302081Y-106508359D01*
X178302126Y-106585099D01*
X178302133Y-106631800D01*
X178302175Y-106710371D01*
X178302296Y-106785672D01*
X178302491Y-106856947D01*
X178302753Y-106923438D01*
X178303078Y-106984387D01*
X178303459Y-107039039D01*
X178303892Y-107086634D01*
X178304369Y-107126417D01*
X178304886Y-107157630D01*
X178305436Y-107179515D01*
X178306014Y-107191316D01*
X178306367Y-107193242D01*
X178312145Y-107190469D01*
X178326426Y-107182715D01*
X178347962Y-107170685D01*
X178375503Y-107155084D01*
X178407799Y-107136615D01*
X178443602Y-107115984D01*
X178454533Y-107109657D01*
X178598467Y-107026252D01*
X178604111Y-105893490D01*
X179013333Y-105656659D01*
X179075884Y-105620492D01*
X179135752Y-105585941D01*
X179192203Y-105553427D01*
X179244498Y-105523371D01*
X179291900Y-105496195D01*
X179333673Y-105472321D01*
X179369079Y-105452169D01*
X179397382Y-105436163D01*
X179417843Y-105424722D01*
X179429727Y-105418269D01*
X179432447Y-105416963D01*
X179433611Y-105417009D01*
X179434679Y-105418157D01*
X179435654Y-105420864D01*
X179436540Y-105425588D01*
X179437339Y-105432786D01*
X179438057Y-105442916D01*
X179438694Y-105456437D01*
X179439257Y-105473806D01*
X179439747Y-105495480D01*
X179440168Y-105521918D01*
X179440524Y-105553578D01*
X179440819Y-105590916D01*
X179441055Y-105634392D01*
X179441235Y-105684462D01*
X179441365Y-105741585D01*
X179441446Y-105806218D01*
X179441483Y-105878819D01*
X179741467Y-105878819D01*
X179741467Y-105236036D01*
X179894705Y-105147698D01*
X179271557Y-105147698D01*
X179266109Y-105151065D01*
X179251464Y-105159713D01*
X179228190Y-105173316D01*
X179196852Y-105191548D01*
X179158019Y-105214082D01*
X179112255Y-105240592D01*
X179060129Y-105270752D01*
X179002206Y-105304236D01*
X178939053Y-105340717D01*
X178871236Y-105379869D01*
X178799323Y-105421367D01*
X178723880Y-105464883D01*
X178645473Y-105510092D01*
X178564670Y-105556668D01*
X178482036Y-105604283D01*
X178398138Y-105652612D01*
X178313543Y-105701329D01*
X178228818Y-105750107D01*
X178144528Y-105798621D01*
X178061242Y-105846543D01*
X177979524Y-105893548D01*
X177899943Y-105939310D01*
X177823064Y-105983502D01*
X177749454Y-106025798D01*
X177679679Y-106065872D01*
X177614307Y-106103397D01*
X177553904Y-106138048D01*
X177499037Y-106169498D01*
X177450271Y-106197421D01*
X177408174Y-106221491D01*
X177373312Y-106241381D01*
X177346253Y-106256765D01*
X177327561Y-106267317D01*
X177317805Y-106272711D01*
X177316460Y-106273372D01*
X177310539Y-106270621D01*
X177295740Y-106262697D01*
X177272943Y-106250099D01*
X177243030Y-106233326D01*
X177206884Y-106212876D01*
X177165385Y-106189248D01*
X177119416Y-106162941D01*
X177069859Y-106134452D01*
X177025771Y-106109009D01*
X176961560Y-106071897D01*
X176890302Y-106030728D01*
X176814457Y-105986921D01*
X176736487Y-105941898D01*
X176658850Y-105897078D01*
X176584007Y-105853882D01*
X176514418Y-105813731D01*
X176462044Y-105783524D01*
X176410423Y-105753740D01*
X176361562Y-105725519D01*
X176316366Y-105699384D01*
X176275742Y-105675863D01*
X176240598Y-105655479D01*
X176211838Y-105638760D01*
X176190370Y-105626230D01*
X176177101Y-105618415D01*
X176173077Y-105615967D01*
X176171184Y-105613119D01*
X176173301Y-105608898D01*
X176180435Y-105602600D01*
X176193593Y-105593521D01*
X176213784Y-105580954D01*
X176242014Y-105564196D01*
X176271855Y-105546839D01*
X176293045Y-105534585D01*
X176323095Y-105517219D01*
X176361090Y-105495269D01*
X176406112Y-105469264D01*
X176457244Y-105439734D01*
X176513571Y-105407209D01*
X176574174Y-105372217D01*
X176638137Y-105335288D01*
X176704544Y-105296952D01*
X176772477Y-105257738D01*
X176831756Y-105223522D01*
X176897707Y-105185449D01*
X176961103Y-105148835D01*
X177021230Y-105114094D01*
X177077375Y-105081638D01*
X177128824Y-105051881D01*
X177174863Y-105025236D01*
X177214779Y-105002115D01*
X177247858Y-104982933D01*
X177273386Y-104968101D01*
X177290649Y-104958033D01*
X177298935Y-104953143D01*
X177299297Y-104952920D01*
X177315282Y-104942946D01*
X177180763Y-104865178D01*
X177144709Y-104844336D01*
X177111220Y-104824979D01*
X177081732Y-104807938D01*
X177057681Y-104794042D01*
X177040501Y-104784119D01*
X177031628Y-104779000D01*
X177031538Y-104778948D01*
X177029123Y-104777771D01*
X177026228Y-104777144D01*
X177022319Y-104777362D01*
X177016862Y-104778717D01*
X177009321Y-104781503D01*
X176999161Y-104786013D01*
X176985848Y-104792541D01*
X176968847Y-104801381D01*
X176947622Y-104812825D01*
X176921639Y-104827166D01*
X176890363Y-104844700D01*
X176853259Y-104865718D01*
X176809792Y-104890514D01*
X176759427Y-104919382D01*
X176701630Y-104952615D01*
X176635865Y-104990506D01*
X176561597Y-105033349D01*
X176478292Y-105081437D01*
X176444469Y-105100966D01*
X176370414Y-105143711D01*
X176299044Y-105184879D01*
X176230972Y-105224117D01*
X176166812Y-105261074D01*
X176107177Y-105295396D01*
X176052680Y-105326731D01*
X176003935Y-105354728D01*
X175961553Y-105379034D01*
X175926150Y-105399296D01*
X175898337Y-105415163D01*
X175878728Y-105426282D01*
X175867936Y-105432301D01*
X175865973Y-105433312D01*
X175859918Y-105431023D01*
X175845402Y-105423697D01*
X175823535Y-105411974D01*
X175795425Y-105396497D01*
X175762182Y-105377905D01*
X175724914Y-105356840D01*
X175684729Y-105333942D01*
X175642738Y-105309853D01*
X175600048Y-105285214D01*
X175557768Y-105260665D01*
X175517007Y-105236847D01*
X175478875Y-105214401D01*
X175444479Y-105193968D01*
X175414928Y-105176190D01*
X175391332Y-105161707D01*
X175374799Y-105151159D01*
X175366438Y-105145188D01*
X175365670Y-105144119D01*
X175370891Y-105140983D01*
X175385321Y-105132540D01*
X175408391Y-105119119D01*
X175439534Y-105101046D01*
X175478182Y-105078648D01*
X175523769Y-105052254D01*
X175575727Y-105022191D01*
X175633488Y-104988786D01*
X175696485Y-104952367D01*
X175764150Y-104913261D01*
X175835917Y-104871795D01*
X175911216Y-104828298D01*
X175989483Y-104783096D01*
X176070147Y-104736517D01*
X176152643Y-104688889D01*
X176236403Y-104640539D01*
X176320859Y-104591794D01*
X176405445Y-104542982D01*
X176489591Y-104494431D01*
X176572732Y-104446467D01*
X176654299Y-104399419D01*
X176733726Y-104353613D01*
X176810444Y-104309378D01*
X176883887Y-104267040D01*
X176953486Y-104226928D01*
X177018675Y-104189368D01*
X177078886Y-104154688D01*
X177133552Y-104123216D01*
X177182105Y-104095279D01*
X177223977Y-104071205D01*
X177258601Y-104051321D01*
X177285411Y-104035954D01*
X177303837Y-104025432D01*
X177313314Y-104020082D01*
X177314509Y-104019449D01*
X177319751Y-104022081D01*
X177334162Y-104030013D01*
X177357132Y-104042899D01*
X177388057Y-104060392D01*
X177426328Y-104082145D01*
X177471338Y-104107811D01*
X177522481Y-104137044D01*
X177579149Y-104169497D01*
X177640735Y-104204822D01*
X177706633Y-104242673D01*
X177776235Y-104282703D01*
X177848934Y-104324565D01*
X177895028Y-104351132D01*
X177982457Y-104401556D01*
X178060601Y-104446659D01*
X178129960Y-104486744D01*
X178191036Y-104522113D01*
X178244333Y-104553069D01*
X178290351Y-104579913D01*
X178329594Y-104602949D01*
X178362563Y-104622479D01*
X178389760Y-104638806D01*
X178411688Y-104652231D01*
X178428848Y-104663058D01*
X178441743Y-104671588D01*
X178450875Y-104678125D01*
X178456746Y-104682970D01*
X178459859Y-104686426D01*
X178460714Y-104688797D01*
X178459815Y-104690383D01*
X178459062Y-104690874D01*
X178444883Y-104698737D01*
X178422443Y-104711436D01*
X178392480Y-104728541D01*
X178355732Y-104749621D01*
X178312939Y-104774248D01*
X178264839Y-104801991D01*
X178212172Y-104832421D01*
X178155677Y-104865108D01*
X178096091Y-104899623D01*
X178034155Y-104935536D01*
X177970607Y-104972418D01*
X177906186Y-105009838D01*
X177841631Y-105047367D01*
X177777680Y-105084576D01*
X177715073Y-105121035D01*
X177654549Y-105156314D01*
X177596846Y-105189984D01*
X177542703Y-105221615D01*
X177492860Y-105250777D01*
X177448055Y-105277040D01*
X177409026Y-105299976D01*
X177376514Y-105319155D01*
X177351257Y-105334146D01*
X177333993Y-105344520D01*
X177325462Y-105349848D01*
X177324660Y-105350473D01*
X177329374Y-105354318D01*
X177342699Y-105363010D01*
X177363431Y-105375818D01*
X177390367Y-105392014D01*
X177422302Y-105410868D01*
X177458032Y-105431650D01*
X177470881Y-105439055D01*
X177617079Y-105523106D01*
X178194101Y-105189906D01*
X178771124Y-104856706D01*
X179022042Y-105001548D01*
X179070502Y-105029561D01*
X179115829Y-105055841D01*
X179157113Y-105079854D01*
X179193448Y-105101069D01*
X179223925Y-105118955D01*
X179247637Y-105132979D01*
X179263676Y-105142611D01*
X179271133Y-105147317D01*
X179271557Y-105147698D01*
X179894705Y-105147698D01*
X180098478Y-105030228D01*
X180156991Y-104996505D01*
X180212861Y-104964322D01*
X180265286Y-104934141D01*
X180313463Y-104906422D01*
X180356590Y-104881626D01*
X180393862Y-104860216D01*
X180424479Y-104842653D01*
X180447637Y-104829397D01*
X180462532Y-104820911D01*
X180468189Y-104817745D01*
X180480889Y-104811070D01*
X180480889Y-106456957D01*
X180780044Y-106456957D01*
X180780044Y-104545258D01*
X180306814Y-104545258D01*
X180302628Y-104548532D01*
X180289566Y-104556871D01*
X180268553Y-104569739D01*
X180240515Y-104586598D01*
X180206377Y-104606912D01*
X180167064Y-104630143D01*
X180123501Y-104655756D01*
X180076613Y-104683214D01*
X180027326Y-104711979D01*
X179976564Y-104741515D01*
X179925254Y-104771284D01*
X179874319Y-104800751D01*
X179824685Y-104829379D01*
X179777278Y-104856629D01*
X179733023Y-104881967D01*
X179692844Y-104904855D01*
X179657667Y-104924756D01*
X179628417Y-104941133D01*
X179606019Y-104953450D01*
X179591398Y-104961170D01*
X179585527Y-104963758D01*
X179580100Y-104960986D01*
X179565350Y-104952820D01*
X179541725Y-104939518D01*
X179509673Y-104921337D01*
X179469645Y-104898535D01*
X179422088Y-104871370D01*
X179367452Y-104840099D01*
X179306185Y-104804980D01*
X179238737Y-104766271D01*
X179165555Y-104724228D01*
X179087089Y-104679110D01*
X179003788Y-104631175D01*
X178916101Y-104580679D01*
X178824475Y-104527880D01*
X178729361Y-104473037D01*
X178631207Y-104416406D01*
X178530461Y-104358245D01*
X178524371Y-104354728D01*
X177469578Y-103745590D01*
X177468131Y-103324134D01*
X177468121Y-103320971D01*
X177167600Y-103320971D01*
X177167600Y-103743287D01*
X176111014Y-104353577D01*
X176010052Y-104411878D01*
X175911661Y-104468666D01*
X175816289Y-104523683D01*
X175724382Y-104576672D01*
X175636390Y-104627375D01*
X175552760Y-104675536D01*
X175473941Y-104720896D01*
X175400380Y-104763199D01*
X175332526Y-104802186D01*
X175270826Y-104837601D01*
X175215729Y-104869186D01*
X175167682Y-104896684D01*
X175127133Y-104919836D01*
X175094531Y-104938387D01*
X175070324Y-104952078D01*
X175054959Y-104960651D01*
X175048885Y-104963851D01*
X175048817Y-104963867D01*
X175043130Y-104961114D01*
X175028450Y-104953151D01*
X175005555Y-104940418D01*
X174975222Y-104923358D01*
X174938230Y-104902412D01*
X174895357Y-104878021D01*
X174847381Y-104850629D01*
X174795080Y-104820675D01*
X174739232Y-104788602D01*
X174683359Y-104756434D01*
X174625075Y-104722755D01*
X174569822Y-104690671D01*
X174518354Y-104660629D01*
X174471426Y-104633077D01*
X174429791Y-104608463D01*
X174394204Y-104587233D01*
X174365418Y-104569836D01*
X174344188Y-104556720D01*
X174331268Y-104548332D01*
X174327390Y-104545135D01*
X174332538Y-104542028D01*
X174347076Y-104533500D01*
X174370619Y-104519775D01*
X174402780Y-104501077D01*
X174443173Y-104477630D01*
X174491412Y-104449656D01*
X174547110Y-104417379D01*
X174609881Y-104381023D01*
X174679340Y-104340811D01*
X174755099Y-104296967D01*
X174836773Y-104249714D01*
X174923975Y-104199275D01*
X175016319Y-104145875D01*
X175113419Y-104089736D01*
X175214889Y-104031083D01*
X175320342Y-103970138D01*
X175429393Y-103907126D01*
X175541654Y-103842269D01*
X175656740Y-103775791D01*
X175745200Y-103724701D01*
X175862160Y-103657154D01*
X175976590Y-103591068D01*
X176088102Y-103526666D01*
X176196310Y-103464170D01*
X176300829Y-103403805D01*
X176401272Y-103345793D01*
X176497253Y-103290358D01*
X176588385Y-103237722D01*
X176674281Y-103188109D01*
X176754557Y-103141741D01*
X176828825Y-103098843D01*
X176896699Y-103059636D01*
X176957793Y-103024345D01*
X177011721Y-102993192D01*
X177058096Y-102966400D01*
X177096532Y-102944193D01*
X177126642Y-102926793D01*
X177148041Y-102914425D01*
X177160342Y-102907310D01*
X177163367Y-102905555D01*
X177164049Y-102910631D01*
X177164697Y-102926127D01*
X177165302Y-102951174D01*
X177165856Y-102984904D01*
X177166349Y-103026448D01*
X177166773Y-103074937D01*
X177167119Y-103129503D01*
X177167378Y-103189276D01*
X177167541Y-103253389D01*
X177167600Y-103320971D01*
X177468121Y-103320971D01*
X177466683Y-102902679D01*
X177485064Y-102913968D01*
X177491432Y-102917701D01*
X177507183Y-102926849D01*
X177531924Y-102941187D01*
X177565262Y-102960485D01*
X177606802Y-102984517D01*
X177656152Y-103013055D01*
X177712917Y-103045872D01*
X177776705Y-103082741D01*
X177847121Y-103123434D01*
X177923772Y-103167724D01*
X178006264Y-103215383D01*
X178094204Y-103266184D01*
X178187199Y-103319899D01*
X178284854Y-103376302D01*
X178386776Y-103435165D01*
X178492572Y-103496259D01*
X178601848Y-103559359D01*
X178714210Y-103624237D01*
X178829266Y-103690664D01*
X178903267Y-103733387D01*
X179019641Y-103800576D01*
X179133479Y-103866312D01*
X179244392Y-103930369D01*
X179351993Y-103992524D01*
X179455893Y-104052552D01*
X179555704Y-104110229D01*
X179651038Y-104165329D01*
X179741507Y-104217628D01*
X179826722Y-104266902D01*
X179906295Y-104312926D01*
X179979839Y-104355476D01*
X180046964Y-104394327D01*
X180107284Y-104429255D01*
X180160409Y-104460034D01*
X180205951Y-104486441D01*
X180243522Y-104508251D01*
X180272735Y-104525239D01*
X180293200Y-104537181D01*
X180304530Y-104543853D01*
X180306814Y-104545258D01*
X180780044Y-104545258D01*
X180780044Y-104457564D01*
X179051440Y-103459530D01*
X178921989Y-103384800D01*
X178795026Y-103311526D01*
X178670901Y-103239910D01*
X178549963Y-103170152D01*
X178432561Y-103102453D01*
X178319045Y-103037015D01*
X178209766Y-102974039D01*
X178105072Y-102913726D01*
X178005313Y-102856276D01*
X177910839Y-102801892D01*
X177821999Y-102750774D01*
X177739142Y-102703124D01*
X177662620Y-102659142D01*
X177592780Y-102619029D01*
X177529973Y-102582987D01*
X177474548Y-102551217D01*
X177426855Y-102523920D01*
X177387243Y-102501297D01*
X177356062Y-102483549D01*
X177333662Y-102470877D01*
X177320393Y-102463482D01*
X177316556Y-102461496D01*
X177311122Y-102464278D01*
%TO.C,NT5*%
D12*
X127157217Y-138240973D02*
X126450110Y-137533866D01*
X126753156Y-138645034D01*
X126046049Y-137937927D01*
X125810347Y-138173630D02*
X125406286Y-138577691D01*
X126315423Y-139082767D02*
X125608317Y-138375660D01*
X124833866Y-139150110D02*
X125170584Y-138813393D01*
X125540973Y-139116439D01*
X125473630Y-139116439D01*
X125372614Y-139150110D01*
X125204256Y-139318469D01*
X125170584Y-139419484D01*
X125170584Y-139486828D01*
X125204256Y-139587843D01*
X125372614Y-139756202D01*
X125473630Y-139789874D01*
X125540973Y-139789874D01*
X125641988Y-139756202D01*
X125810347Y-139587843D01*
X125844019Y-139486828D01*
X125844019Y-139419484D01*
%TO.C,NT4*%
X124617217Y-135700973D02*
X123910110Y-134993866D01*
X124213156Y-136105034D01*
X123506049Y-135397927D01*
X123270347Y-135633630D02*
X122866286Y-136037691D01*
X123775423Y-136542767D02*
X123068317Y-135835660D01*
X122563240Y-136812141D02*
X123034645Y-137283545D01*
X122462225Y-136374408D02*
X123135660Y-136711126D01*
X122697927Y-137148858D01*
%TO.C,J2*%
X138942380Y-119776666D02*
X139656666Y-119776666D01*
X139799523Y-119729047D01*
X139894761Y-119633809D01*
X139942380Y-119490952D01*
X139942380Y-119395714D01*
X139037619Y-120205238D02*
X138990000Y-120252857D01*
X138942380Y-120348095D01*
X138942380Y-120586190D01*
X138990000Y-120681428D01*
X139037619Y-120729047D01*
X139132857Y-120776666D01*
X139228095Y-120776666D01*
X139370952Y-120729047D01*
X139942380Y-120157619D01*
X139942380Y-120776666D01*
%TO.C,D4*%
X139037380Y-98476904D02*
X138037380Y-98476904D01*
X138037380Y-98715000D01*
X138085000Y-98857857D01*
X138180238Y-98953095D01*
X138275476Y-99000714D01*
X138465952Y-99048333D01*
X138608809Y-99048333D01*
X138799285Y-99000714D01*
X138894523Y-98953095D01*
X138989761Y-98857857D01*
X139037380Y-98715000D01*
X139037380Y-98476904D01*
X138370714Y-99905476D02*
X139037380Y-99905476D01*
X137989761Y-99667380D02*
X138704047Y-99429285D01*
X138704047Y-100048333D01*
%TO.C,D3*%
X147927380Y-102286904D02*
X146927380Y-102286904D01*
X146927380Y-102525000D01*
X146975000Y-102667857D01*
X147070238Y-102763095D01*
X147165476Y-102810714D01*
X147355952Y-102858333D01*
X147498809Y-102858333D01*
X147689285Y-102810714D01*
X147784523Y-102763095D01*
X147879761Y-102667857D01*
X147927380Y-102525000D01*
X147927380Y-102286904D01*
X146927380Y-103191666D02*
X146927380Y-103810714D01*
X147308333Y-103477380D01*
X147308333Y-103620238D01*
X147355952Y-103715476D01*
X147403571Y-103763095D01*
X147498809Y-103810714D01*
X147736904Y-103810714D01*
X147832142Y-103763095D01*
X147879761Y-103715476D01*
X147927380Y-103620238D01*
X147927380Y-103334523D01*
X147879761Y-103239285D01*
X147832142Y-103191666D01*
%TO.C,D2*%
X147927380Y-104826904D02*
X146927380Y-104826904D01*
X146927380Y-105065000D01*
X146975000Y-105207857D01*
X147070238Y-105303095D01*
X147165476Y-105350714D01*
X147355952Y-105398333D01*
X147498809Y-105398333D01*
X147689285Y-105350714D01*
X147784523Y-105303095D01*
X147879761Y-105207857D01*
X147927380Y-105065000D01*
X147927380Y-104826904D01*
X147022619Y-105779285D02*
X146975000Y-105826904D01*
X146927380Y-105922142D01*
X146927380Y-106160238D01*
X146975000Y-106255476D01*
X147022619Y-106303095D01*
X147117857Y-106350714D01*
X147213095Y-106350714D01*
X147355952Y-106303095D01*
X147927380Y-105731666D01*
X147927380Y-106350714D01*
%TO.C,D1*%
X139037380Y-110541904D02*
X138037380Y-110541904D01*
X138037380Y-110780000D01*
X138085000Y-110922857D01*
X138180238Y-111018095D01*
X138275476Y-111065714D01*
X138465952Y-111113333D01*
X138608809Y-111113333D01*
X138799285Y-111065714D01*
X138894523Y-111018095D01*
X138989761Y-110922857D01*
X139037380Y-110780000D01*
X139037380Y-110541904D01*
X139037380Y-112065714D02*
X139037380Y-111494285D01*
X139037380Y-111780000D02*
X138037380Y-111780000D01*
X138180238Y-111684761D01*
X138275476Y-111589523D01*
X138323095Y-111494285D01*
%TO.C,JP3*%
X145022380Y-128226666D02*
X145736666Y-128226666D01*
X145879523Y-128179047D01*
X145974761Y-128083809D01*
X146022380Y-127940952D01*
X146022380Y-127845714D01*
X146022380Y-128702857D02*
X145022380Y-128702857D01*
X145022380Y-129083809D01*
X145070000Y-129179047D01*
X145117619Y-129226666D01*
X145212857Y-129274285D01*
X145355714Y-129274285D01*
X145450952Y-129226666D01*
X145498571Y-129179047D01*
X145546190Y-129083809D01*
X145546190Y-128702857D01*
X145022380Y-129607619D02*
X145022380Y-130226666D01*
X145403333Y-129893333D01*
X145403333Y-130036190D01*
X145450952Y-130131428D01*
X145498571Y-130179047D01*
X145593809Y-130226666D01*
X145831904Y-130226666D01*
X145927142Y-130179047D01*
X145974761Y-130131428D01*
X146022380Y-130036190D01*
X146022380Y-129750476D01*
X145974761Y-129655238D01*
X145927142Y-129607619D01*
%TO.C,JP2*%
X149467380Y-128226666D02*
X150181666Y-128226666D01*
X150324523Y-128179047D01*
X150419761Y-128083809D01*
X150467380Y-127940952D01*
X150467380Y-127845714D01*
X150467380Y-128702857D02*
X149467380Y-128702857D01*
X149467380Y-129083809D01*
X149515000Y-129179047D01*
X149562619Y-129226666D01*
X149657857Y-129274285D01*
X149800714Y-129274285D01*
X149895952Y-129226666D01*
X149943571Y-129179047D01*
X149991190Y-129083809D01*
X149991190Y-128702857D01*
X149562619Y-129655238D02*
X149515000Y-129702857D01*
X149467380Y-129798095D01*
X149467380Y-130036190D01*
X149515000Y-130131428D01*
X149562619Y-130179047D01*
X149657857Y-130226666D01*
X149753095Y-130226666D01*
X149895952Y-130179047D01*
X150467380Y-129607619D01*
X150467380Y-130226666D01*
%TD*%
M02*
